<?xml version="1.0" standalone="no"?>
<!DOCTYPE svg PUBLIC "-//W3C//DTD SVG 1.1//EN" "http://www.w3.org/Graphics/SVG/1.1/DTD/svg11.dtd" >
<svg xmlns="http://www.w3.org/2000/svg" xmlns:xlink="http://www.w3.org/1999/xlink" version="1.1">
<metadata></metadata>
<defs>
<font id="eb_garamonditalic" horiz-adv-x="480" >
<font-face units-per-em="1000" ascent="800" descent="-200" />
<missing-glyph horiz-adv-x="200" />
<glyph unicode="&#xfb01;" horiz-adv-x="557" d="M-194 -240q0 15 14.5 28.5t24.5 13.5q8 0 15 -8.5t17 -19.5q9 -10 21.5 -17t30.5 -7q19 0 33 11t27.5 40t29.5 84l134 454q6 18 -14 18l-62 -1q-7 0 -10 3.5t-3 8.5q0 8 6 16.5t13 9.5l70 4q14 2 19 20l8 32q18 71 51 120t72.5 78.5t77 43t63.5 13.5q58 0 89.5 -19.5 t31.5 -49.5q0 -25 -12.5 -38t-26.5 -13q-10 0 -18.5 11.5t-16.5 27.5q-9 20 -22 31t-35 11q-21 0 -46.5 -9t-51 -28.5t-46.5 -50.5t-33 -75l-26 -94q0 -5 3 -7t7 -2q15 0 44.5 0.5t63 1t61.5 1t41 0.5q7 0 7 -11q0 -4 -3.5 -11t-10 -12.5t-15.5 -5.5l-191 -1 q-10 0 -16.5 -3.5t-8.5 -12.5q-35 -113 -68 -228t-62 -228q-10 -40 -33.5 -73t-53 -57t-58 -37t-49.5 -13q-37 0 -60 12.5t-23 37.5zM290 20q0 4 0.5 8t2.5 8l137 339l-32 27q17 1 35 2.5t31 8.5q9 4 18 -2t14.5 -15t3.5 -14l-122 -289q-4 -8 -5.5 -15.5t-1.5 -13.5 q0 -7 5.5 -9.5t10.5 -2.5q14 0 32 13.5t38.5 33t39.5 38.5q2 2 4 2t4 -1.5t2 -3.5q0 -16 -19 -40.5t-47.5 -49t-58.5 -41.5t-53 -17q-17 0 -28 11t-11 23z" />
<glyph unicode="&#xfb02;" horiz-adv-x="587" d="M-194 -240q0 15 14.5 28.5t24.5 13.5q8 0 15 -8.5t17 -19.5q9 -10 21.5 -17t30.5 -7q19 0 33 11t27.5 40t29.5 84l134 454q6 18 -14 18l-62 -1q-7 0 -10 3.5t-3 8.5q0 8 6 16.5t13 9.5l70 4q12 1 19 20l10 30q31 93 79 149.5t99.5 82t92.5 25.5q35 0 60 -11t38 -29 t13 -39l-36 -47q-19 46 -44 65t-63 19q-57 0 -96.5 -38t-65.5 -124q-12 -40 -18 -59t-8 -24.5t-2 -8.5q0 -5 3 -7t7 -2l213 3q7 0 7 -11q0 -4 -3.5 -11t-10 -12.5t-15.5 -5.5l-194 -1q-10 0 -16.5 -3.5t-8.5 -12.5l-130 -456q-11 -40 -34.5 -73t-52.5 -57t-57.5 -37 t-49.5 -13q-37 0 -60 12.5t-23 37.5zM312 30q0 6 2 12l190 541q5 14 7.5 27t2.5 26q0 9 -9.5 17t-23.5 11q-10 2 -16 5.5t-6 7.5q0 3 0.5 5t2 4t3.5 2q19 5 46 9.5t50.5 8t31.5 3.5q5 0 8.5 -3.5t3.5 -11.5q0 -6 -2 -13.5t-4 -14.5l-202 -576q-3 -8 -4 -15.5t-1 -13.5 q0 -16 10 -16q14 0 34.5 15.5t40.5 37.5t32 39q6 8 14 15.5t12 7.5t4.5 -3.5t0.5 -9.5q0 -20 -13.5 -42t-35.5 -43.5t-47 -38.5t-48 -27t-39 -10q-13 0 -29 14t-16 30z" />
<glyph unicode="&#xfb03;" horiz-adv-x="824" d="M-194 -240q0 15 14.5 28.5t24.5 13.5q8 0 15 -8.5t17 -19.5q9 -10 21.5 -17t30.5 -7q19 0 33 11t27.5 40t29.5 84l134 454q6 18 -14 18l-62 -1q-7 0 -10 3.5t-3 8.5q0 8 6 16.5t13 9.5l70 4q7 1 12 6.5t7 13.5l4 15q21 71 54 120.5t71.5 79.5t76.5 43.5t69 13.5 q35 0 60 -11t38 -29t13 -39l-36 -47q-13 31 -28 49t-34 26.5t-45 8.5q-38 0 -68 -16.5t-53 -52t-41 -93.5l-16.5 -55t-5 -17t-0.5 -5q0 -5 3 -7t7 -2l251 3q7 0 7 -11q0 -4 -3.5 -11t-10 -12.5t-15.5 -5.5l-232 -1q-10 0 -16.5 -3.5t-8.5 -12.5l-130 -456q-10 -40 -33.5 -73 t-53 -57t-58 -37t-49.5 -13q-37 0 -60 12.5t-23 37.5zM-11 -211l36 47q20 -46 44.5 -65t62.5 -19q57 0 96.5 38t65.5 124l153 536q18 71 51 120t72.5 78.5t77 43t63.5 13.5q58 0 89.5 -19.5t31.5 -49.5q0 -25 -12.5 -38t-26.5 -13q-10 0 -18.5 11.5t-16.5 27.5q-9 20 -22 31 t-35 11q-21 0 -46.5 -9t-51 -28.5t-46.5 -50.5t-33 -75l-26 -94q0 -5 3 -7t7 -2q15 0 44.5 0.5t63 1t61.5 1t41 0.5q7 0 7 -11q0 -4 -3.5 -11t-10 -12.5t-15.5 -5.5l-191 -1q-10 0 -16.5 -3.5t-8.5 -12.5q-18 -57 -32 -102.5t-26 -87t-24.5 -87t-27.5 -102.5 q-26 -94 -72 -150.5t-98.5 -81.5t-99.5 -25q-35 0 -60 11t-38 29.5t-13 38.5zM557 20q0 4 0.5 8t2.5 8l137 339l-32 27q17 1 35 2.5t31 8.5q9 4 18 -2t14.5 -15t3.5 -14l-122 -289q-4 -8 -5.5 -15.5t-1.5 -13.5q0 -7 5.5 -9.5t10.5 -2.5q14 0 32 13.5t38.5 33t39.5 38.5 q2 2 4 2t4 -1.5t2 -3.5q0 -16 -19 -40.5t-47.5 -49t-58.5 -41.5t-53 -17q-17 0 -28 11t-11 23z" />
<glyph unicode="&#xfb04;" horiz-adv-x="855" d="M-194 -240q0 15 14.5 28.5t24.5 13.5q8 0 15 -8.5t17 -19.5q9 -10 21.5 -17t30.5 -7q19 0 33 11t27.5 40t29.5 84l134 454q6 18 -14 18l-62 -1q-7 0 -10 3.5t-3 8.5q0 8 6 16.5t13 9.5l70 4q7 1 12 6.5t7 13.5l4 15q19 72 52 121.5t71.5 79t77.5 43t70 13.5q35 0 60 -11 t38 -29t13 -39l-36 -47q-13 31 -28 49t-34 26.5t-45 8.5q-38 0 -68 -16.5t-53 -52t-41 -93.5l-16.5 -55t-5 -17t-0.5 -5q0 -5 3 -7t7 -2l251 3q7 0 7 -11q0 -4 -3.5 -11t-10 -12.5t-15.5 -5.5l-232 -1q-10 0 -16.5 -3.5t-8.5 -12.5l-130 -456q-11 -40 -34.5 -73t-52.5 -57 t-57.5 -37t-49.5 -13q-37 0 -60 12.5t-23 37.5zM-11 -211l36 47q20 -46 44.5 -65t62.5 -19q57 0 97 37.5t65 124.5l154 534q20 71 53 120t71.5 79t77 44t69.5 14q35 0 60 -11t38 -29t13 -39l-36 -47q-19 46 -44 65t-63 19q-57 0 -96.5 -38t-65.5 -124q-12 -40 -18 -59 t-8 -24.5t-2 -8.5q0 -5 3 -7t7 -2l213 3q7 0 7 -11q0 -4 -3.5 -11t-10 -12.5t-15.5 -5.5l-194 -1q-10 0 -16.5 -3.5t-8.5 -12.5l-109 -379q-27 -94 -73 -150.5t-98 -81.5t-99 -25q-35 0 -60 11t-38 29.5t-13 38.5zM580 30q0 6 2 12l190 541q5 14 7.5 27t2.5 26q0 9 -9.5 17 t-23.5 11q-10 2 -16 5.5t-6 7.5q0 3 0.5 5t2 4t3.5 2q19 5 46 9.5t50.5 8t31.5 3.5q5 0 8.5 -3.5t3.5 -11.5q0 -6 -2 -13.5t-4 -14.5l-202 -576q-3 -8 -4 -15.5t-1 -13.5q0 -16 10 -16q14 0 34.5 15.5t40.5 37.5t32 39q6 8 14 15.5t12 7.5t4.5 -3.5t0.5 -9.5 q0 -20 -13.5 -42t-35.5 -43.5t-47 -38.5t-48 -27t-39 -10q-13 0 -29 14t-16 30z" />
<glyph horiz-adv-x="0" />
<glyph horiz-adv-x="333" />
<glyph horiz-adv-x="0" />
<glyph horiz-adv-x="0" />
<glyph unicode="&#xd;" horiz-adv-x="200" />
<glyph unicode=" "  horiz-adv-x="200" />
<glyph unicode="&#x09;" horiz-adv-x="200" />
<glyph unicode="&#xa0;" horiz-adv-x="200" />
<glyph unicode="!" horiz-adv-x="287" d="M36 38q0 29 21 48.5t51 19.5q21 0 35 -16t14 -36q0 -28 -21.5 -48t-50.5 -20q-21 0 -35 16t-14 36zM135.5 213.5q-1.5 8.5 2.5 30.5q9 43 20.5 93.5t23 99t20.5 85.5t13 52q7 22 17.5 39t23 26.5t25.5 9.5q14 0 21.5 -10.5t9 -27.5t-5.5 -37q-4 -15 -18.5 -52 t-34.5 -85.5t-41 -99.5t-38 -93q-7 -16 -14.5 -27.5t-15.5 -11.5q-7 0 -8.5 8.5z" />
<glyph unicode="&#x22;" horiz-adv-x="330" d="M147.5 452q1.5 8 3.5 15q5 13 8.5 25t7.5 23q8 24 14.5 48.5t13.5 55.5q2 11 11 21t17 15q14 9 25 15t22 6t6.5 -18t-11.5 -34q-11 -26 -23 -48t-23.5 -41.5t-22.5 -35.5t-20 -30q-6 -9 -14 -17t-12 -8t-2.5 8zM277.5 452q1.5 8 3.5 15q5 13 8.5 25t7.5 23 q8 24 14.5 48.5t13.5 55.5q2 11 11 21t17 15q14 9 25 15t22 6t6.5 -18t-11.5 -34q-11 -26 -23 -48t-23.5 -41.5t-22.5 -35.5t-20 -30q-6 -9 -14 -17t-12 -8t-2.5 8z" />
<glyph unicode="#" horiz-adv-x="449" d="M-28 -76l1 3l88 177l-60 -3q-5 0 -8 3.5t-2 8.5t5 16.5t11.5 21.5t18.5 10l65 3l66 138l-61 -3q-5 0 -8.5 3.5t-2.5 8.5t5.5 16.5t12 21.5t17.5 10l69 3l83 171q5 11 18.5 14t23.5 3q4 0 4.5 -3.5t0.5 -8.5q0 -1 -1 -2t-1 -3l-82 -169l109 6l85 174q5 11 17.5 14t22.5 3 q4 0 6 -3.5t0 -8.5q-1 -1 -1 -2t-1 -3l-82 -172l56 3q5 0 8 -3t2 -8q0 -5 -6 -16.5t-15.5 -21.5t-20.5 -11l-54 -3l-67 -138l59 3q5 0 8 -3.5t2 -8.5q0 -5 -6.5 -16.5t-16 -21t-20.5 -10.5l-55 -3l-85 -176q-4 -10 -15.5 -12.5t-21.5 -2.5q-4 0 -6 4t-1 8l1 3l84 174 l-113 -6l-89 -179q-5 -10 -17 -12.5t-22 -2.5q-4 0 -6.5 4t-1.5 8zM137 166l113 6l65 138l-111 -6z" />
<glyph unicode="$" horiz-adv-x="483" d="M-15 19q0 6 9.5 27t21 53.5t17.5 71.5q2 11 5.5 15.5t11.5 4.5t10 -9.5t2 -29.5q0 -38 13 -69.5t40.5 -49.5t70.5 -18q45 0 79.5 18.5t54 50t19.5 69.5q0 26 -7 47.5t-25 44.5t-51 53q-46 41 -75.5 82t-29.5 102q0 53 28.5 94t78 64.5t110.5 23.5q17 0 35.5 -3.5 t36.5 -8.5q20 -6 34.5 -11.5t21.5 -5.5q12 0 20 5q4 2 8 3.5t9 1.5q8 0 10.5 -6t2.5 -10q0 -1 -6.5 -12.5t-16 -39t-17.5 -79.5q-2 -15 -7.5 -23.5t-8.5 -8.5q-8 0 -10.5 7.5t-2.5 18.5q0 70 -33.5 106.5t-87.5 36.5q-37 0 -66.5 -19.5t-46.5 -49.5t-17 -60q0 -26 9.5 -49.5 t31 -48t56.5 -56.5q53 -46 77.5 -86t24.5 -82q0 -55 -27 -100t-79.5 -72t-129.5 -27q-26 0 -53.5 4.5t-53.5 14.5q-13 5 -22 8.5t-13 3.5q-5 0 -10.5 -2t-10.5 -4q-7 -4 -12 -7t-9 -3t-12 6.5t-8 12.5zM83 -80l333 792q5 10 14 13.5t18 3.5q5 0 7 -5.5t0 -11.5l-334 -792 q-3 -8 -11.5 -11.5t-16.5 -3.5q-6 0 -9 4.5t-1 10.5z" />
<glyph unicode="%" horiz-adv-x="644" d="M36 -14l606 668q10 11 18.5 14t18.5 3q11 0 14 -6t-2 -11l-606 -668q-8 -10 -17.5 -12.5t-20.5 -2.5q-6 0 -10.5 5t-0.5 10zM81 359q-3 43 11 90q12 39 38.5 77.5t63 63.5t77.5 25q38 0 57.5 -25t22.5 -65t-11 -86q-12 -41 -37 -81.5t-59.5 -67.5t-77.5 -27 q-39 0 -60.5 26.5t-24.5 69.5zM126.5 340.5q-0.5 -24.5 9.5 -40t35 -15.5q31 0 52.5 24t36 59.5t24.5 68.5q8 25 13.5 52t5.5 50t-10 37t-33 14q-29 0 -50.5 -22.5t-36.5 -55t-25 -63.5q-8 -27 -14.5 -55.5t-7 -53zM357 79q-3 43 11 90q12 39 38.5 77.5t63 63.5t77.5 25 q38 0 57.5 -25t22.5 -65t-11 -86q-12 -41 -37 -81.5t-59.5 -67.5t-77.5 -27q-39 0 -60.5 26.5t-24.5 69.5zM402.5 60.5q-0.5 -24.5 9.5 -40t35 -15.5q31 0 52.5 24t36 59.5t24.5 68.5q8 25 13.5 52t5.5 50t-10 37t-33 14q-29 0 -50.5 -22.5t-36.5 -55t-25 -63.5 q-8 -27 -14.5 -55.5t-7 -53z" />
<glyph unicode="&#x26;" horiz-adv-x="822" d="M90 249q0 73 26.5 129.5t72 89t101.5 31.5q50 -1 79.5 -23.5t29.5 -59.5q0 -25 -13 -45t-35.5 -31.5t-51.5 -11.5q-45 0 -79 26t-53.5 72.5t-19.5 107.5q0 52 27 94t71 66.5t95 23.5q44 -1 70 -22.5t26 -59.5q0 -20 -12 -32.5t-32 -12.5q-11 0 -21.5 10t-10.5 20 q0 17 -10.5 27t-27.5 10q-33 0 -61 -17t-45 -47t-17 -69q0 -157 98 -157q27 0 43 14t16 37q0 20 -19 32.5t-50 12.5q-65 0 -103 -49t-38 -126q0 -58 27 -108.5t90.5 -81.5t172.5 -31q95 0 158 36t94 94.5t31 123.5q0 60 -27 98t-97 38q-34 0 -52.5 -19t-18.5 -48 q0 -19 9 -33.5t30 -14.5q11 0 16 5.5t9 12.5q5 8 11 16t20 8q23 0 33.5 -12t9.5 -30q-1 -22 -18 -40t-43 -18q-52 0 -83.5 29t-31.5 77q0 37 21 67.5t56 49t78 18.5l87 1q71 1 106 26.5t35 76.5q0 26 -14.5 42.5t-37.5 16.5q-8 0 -13.5 -5.5t-5.5 -12.5t3.5 -13t11.5 -8 t11.5 -9t3.5 -14q0 -14 -12 -24t-29 -10q-24 0 -39 15t-15 39q0 20 11.5 35.5t32 24.5t45.5 9q40 0 64 -29.5t24 -79.5q0 -45 -22 -78.5t-61.5 -51.5t-94.5 -18q-8 0 -11 -3.5t1 -9.5q20 -34 27.5 -67t7.5 -79q0 -92 -44 -163.5t-121.5 -111.5t-178.5 -40q-95 0 -168 33.5 t-114 93t-41 137.5z" />
<glyph unicode="'" horiz-adv-x="200" d="M147.5 452q1.5 8 3.5 15q5 13 8.5 25t7.5 23q8 24 14.5 48.5t13.5 55.5q2 11 11 21t17 15q14 9 25 15t22 6t6.5 -18t-11.5 -34q-11 -26 -23 -48t-23.5 -41.5t-22.5 -35.5t-20 -30q-6 -9 -14 -17t-12 -8t-2.5 8z" />
<glyph unicode="(" horiz-adv-x="308" d="M30 72q0 120 42.5 231.5t119 210.5t177.5 179q15 12 29 12q10 0 10 -6q0 -4 -3 -9.5t-11 -13.5q-58 -61 -110.5 -130t-93.5 -143.5t-65 -153.5t-24 -160q0 -57 1 -103.5t7.5 -89.5t21.5 -90q3 -9 0.5 -15.5t-9.5 -6.5q-27 0 -42 39q-27 71 -38.5 131t-11.5 118z" />
<glyph unicode=")" horiz-adv-x="309" d="M-71 -207q0 4 3 9.5t11 13.5q58 61 110.5 130t93.5 143.5t65 153.5t24 160q0 58 -1 104t-7 89t-22 90q-3 9 -0.5 15.5t9.5 6.5q27 0 42 -39q27 -70 38.5 -130.5t11.5 -118.5q0 -119 -42.5 -231t-119 -210.5t-177.5 -179.5q-15 -12 -29 -12q-10 0 -10 6z" />
<glyph unicode="*" horiz-adv-x="339" d="M109 494q0 7 6.5 11t12.5 5q5 2 18.5 5.5t30 8.5t28 8l11.5 3q-13 17 -25.5 34.5t-27.5 39.5q-5 7 -5 15q0 7 2 9.5t7 2.5t11 -4.5t8 -6.5q19 -18 34 -32.5t29 -30.5q7 20 16.5 40.5t19.5 44.5q3 6 7 11.5t10 5.5q8 0 9 -6t1 -13q0 -3 -4 -21t-10 -39.5t-10 -35.5 q14 2 35.5 4.5t39.5 3.5t22 1q6 0 12.5 -3.5t6.5 -9.5q0 -7 -6.5 -10t-12.5 -5q-22 -5 -43.5 -11.5t-44.5 -11.5q14 -16 25.5 -32t26.5 -38q2 -3 5 -9.5t3 -10.5q0 -7 -2.5 -9.5t-7.5 -2.5q-4 0 -10.5 4t-8.5 6q-17 20 -33.5 34.5t-30.5 30.5q-7 -20 -15.5 -40.5 t-19.5 -44.5q-3 -6 -7.5 -11.5t-10.5 -5.5q-8 0 -9 8t0 18q1 5 4.5 19.5t8 30.5t7.5 27.5l3 11.5q-21 -4 -46.5 -6t-50.5 -3q-6 0 -12.5 2t-6.5 8z" />
<glyph unicode="+" horiz-adv-x="590" d="M50 234q0 5 2.5 14t7.5 16.5t14 7.5h189q5 0 6 2t1 6v171q0 11 10 18t21.5 10t14.5 3q5 0 9.5 -4t4.5 -9v-191q0 -5 1 -5.5t3 -0.5h203q5 0 10 -4.5t3 -9.5q-4 -13 -10.5 -24.5t-20.5 -11.5h-185q-4 0 -4 -4v-202q0 -10 -10 -15.5t-21.5 -7t-16.5 -1.5q-4 0 -8 4.5 t-4 9.5v211q0 5 -4 5h-202q-5 0 -9.5 4t-4.5 8z" />
<glyph unicode="," horiz-adv-x="215" d="M-50 -123q0 5 7 8t18 9q29 16 49.5 34t31 38t10.5 40q0 17 -10.5 25t-21.5 13q-11 6 -20.5 13.5t-9.5 22.5q0 17 17.5 28.5t37.5 11.5q27 0 46.5 -17.5t19.5 -52.5q0 -37 -15.5 -70t-40 -57t-51.5 -38t-50 -14q-7 0 -12.5 0.5t-5.5 5.5z" />
<glyph unicode="-" horiz-adv-x="268" d="M27 184q0 17 12 31t20 15q46 6 91.5 12.5t91.5 12.5q5 1 6.5 -1t1.5 -7q0 -11 -5 -22.5t-13 -19.5t-18 -10q-44 -6 -88 -12.5t-88 -12.5q-4 -1 -7.5 4t-3.5 10z" />
<glyph unicode="." horiz-adv-x="215" d="M4 36q0 18 9 33t23.5 23.5t32.5 8.5q20 0 32.5 -15t12.5 -35q0 -18 -8.5 -32.5t-23.5 -23.5t-33 -9q-19 0 -32 15.5t-13 34.5z" />
<glyph unicode="/" horiz-adv-x="276" d="M-56 -47l402 695q7 11 17.5 14t23.5 3q5 0 7.5 -6t-0.5 -11l-402 -695q-6 -10 -16 -12.5t-22 -2.5q-5 0 -9 5.5t-1 9.5z" />
<glyph unicode="0" d="M73.5 191q5.5 56 22.5 111q17 57 46 115t67 106t84 77.5t98 29.5q47 0 73.5 -28t35.5 -74.5t3.5 -102t-22.5 -109.5q-17 -56 -46 -114t-67.5 -107t-84.5 -79t-98 -30q-47 0 -73.5 28t-35 74.5t-3 102.5zM141 112q-1 -45 10.5 -72.5t39.5 -27.5t57.5 23.5t57.5 63.5 t52.5 91.5t41.5 107.5q17 55 26 109t8 98.5t-14 71t-42 26.5q-37 0 -74 -39.5t-69.5 -104t-55.5 -139.5q-16 -54 -26.5 -108.5t-11.5 -99.5z" />
<glyph unicode="1" d="M32 6q0 7 6 11t13 5q50 10 88.5 26.5t50.5 54.5l116 374q11 35 -11 47.5t-62 18.5q-5 1 -10 4.5t-5 8.5q0 8 8 12.5t15 5.5q28 3 58.5 13t59.5 23t50 23q3 2 6.5 3t6.5 1q4 0 7 -2.5t1 -6.5q-7 -15 -13 -32.5t-13 -38.5l-145 -471q-7 -24 3.5 -35t33 -16t50.5 -13 q5 -1 9 -5t2 -9q-1 -4 -6 -7.5t-10 -3.5q-26 0 -50.5 1.5t-47.5 2.5t-46 1q-25 0 -51 -1t-51.5 -2.5t-50.5 -1.5q-4 0 -8 2.5t-4 6.5z" />
<glyph unicode="2" d="M6.5 8.5q-4.5 10.5 6.5 19.5l213 177q47 39 90 85t70.5 95t27.5 96q0 44 -22 64t-66 20q-33 0 -70 -21t-68 -64q-4 -5 -9.5 -9.5t-10.5 -4.5q-4 0 -6 9t2 16q7 10 25 32.5t45 47t62 42t75 17.5q61 0 95.5 -34t33.5 -87q0 -43 -19 -82.5t-49 -74t-62 -62.5 q-18 -16 -48.5 -41t-66 -53.5t-68 -55t-55 -44t-27.5 -20.5q-7 -4 -1.5 -7.5t10.5 -4.5q15 -1 37.5 -2t48.5 -1t53.5 1t52.5 2q27 2 40.5 5t24.5 12.5t28 29.5q5 6 13 14t18 9q5 1 8.5 -6.5t0.5 -12.5q-16 -25 -23.5 -35t-10.5 -15t-7.5 -13.5t-14.5 -30.5q-7 -16 -13 -20 t-11 -4q-35 2 -53.5 3.5t-28.5 2t-19 0.5h-26h-58t-48 -0.5t-48.5 -1.5t-59.5 -3q-7 0 -11.5 10.5z" />
<glyph unicode="3" d="M13 -1q0 17 6 29.5t21 12.5q7 0 18 -5.5t20 -12.5q12 -8 27 -15.5t34 -7.5q60 0 105 30t70 79t25 105q0 38 -16.5 64t-53.5 26q-10 0 -28 -2.5t-37 -12.5q-4 -1 -8.5 0t-4.5 8q0 9 7 16t16 12t15 7q25 8 53.5 23t53.5 37.5t41 50t16 58.5t-18 50.5t-47 19.5 q-41 0 -69.5 -16t-57.5 -57q-4 -7 -6.5 -11.5t-10.5 -4.5q-3 0 -11 10t-8 19q0 15 21 35.5t53 39.5t66 31.5t60 12.5q31 0 57.5 -11.5t42.5 -33t16 -50.5q0 -26 -12.5 -50.5t-33.5 -47t-47.5 -41.5t-55.5 -33q-3 -1 -4 -3.5t3 -3.5q29 -5 52 -19t36.5 -38.5t13.5 -61.5 q0 -41 -21 -83t-57.5 -79.5t-83.5 -64.5q-43 -25 -93 -36.5t-95 -11.5q-37 0 -53.5 10.5t-16.5 26.5z" />
<glyph unicode="4" d="M19.5 180q-1.5 5 1.5 8q17 16 24 22.5t12 11t14 13.5l363 379q8 9 19 18.5t18 9.5h18q3 0 2 -2.5t-4 -5.5t-5 -6l-369 -388q-2 -2 -4 -5.5t1 -3.5h161q4 0 8 2.5t5 5.5l57 185q3 11 5.5 15t9.5 7q17 8 33.5 10.5t22.5 2.5q11 0 8 -16t-13 -48l-49 -159q-2 -6 3 -6 q11 -1 19.5 -1h16.5q14 0 27 0.5t29 1.5q5 0 7.5 -2.5t0.5 -6.5q-4 -8 -10 -16.5t-11.5 -14.5t-9.5 -6q-10 0 -22.5 0.5t-23.5 0.5q-8 0 -15.5 -0.5t-13.5 -1.5q-7 -1 -10.5 -3.5t-4.5 -6.5l-26 -89q-10 -32 1 -45t51 -18q5 -1 9 -4.5t4 -9.5q0 -4 -6.5 -7.5t-14.5 -3.5 q-26 0 -42.5 1.5t-31.5 2.5t-37 1q-36 0 -60.5 -2.5t-62.5 -2.5q-3 0 -7.5 2t-4.5 6q0 7 6.5 11.5t13.5 5.5q54 5 75 17.5t28 36.5l28 93q2 8 -0.5 10.5t-9.5 2.5q-38 0 -71.5 -1.5t-70.5 -3t-86 -2.5q-4 0 -5.5 5z" />
<glyph unicode="5" d="M25 9q0 11 4 18.5t11 7.5q14 0 24.5 -9t31.5 -17q9 -4 21.5 -6t29.5 -2q26 0 60 10t65.5 32.5t52 59t20.5 90.5q0 38 -18 64t-52 47.5t-82 45.5q-22 11 -28.5 19.5t-6.5 17.5q0 5 1 8.5t2 5.5q5 15 15.5 35t23.5 41.5t26 42t23 36.5q10 15 19.5 22.5t25.5 11.5 q23 6 47.5 11t50.5 9.5t53.5 8.5t57.5 8q10 0 10 -10q0 -5 -6.5 -17t-17 -25.5t-21.5 -23t-20 -10.5q-19 -1 -45 -3t-52.5 -3.5t-48.5 -3.5t-33 -4q-6 -1 -19 -16.5t-26 -34t-18 -28.5q-7 -13 7 -19q59 -25 107 -51.5t76.5 -62t28.5 -89.5q0 -56 -32 -104t-84 -84 t-112.5 -56t-116.5 -20q-30 0 -42.5 15.5t-12.5 31.5z" />
<glyph unicode="6" d="M46 107q3 71 33.5 140t82 131.5t117 114.5t137.5 89.5t144 56.5q6 1 8.5 0t2.5 -5t-3 -7t-8 -5q-60 -22 -121 -62t-116.5 -92.5t-99 -110t-68.5 -115t-25 -108.5q0 -52 25 -82t72 -30q36 0 67.5 25.5t50.5 63.5t16 76q0 38 -18.5 56.5t-48.5 18.5q-16 0 -33.5 -5.5 t-35.5 -16.5q-10 -6 -9.5 -1t6.5 12q17 19 39.5 35t46.5 26t43 10q42 0 68 -30t27 -68q0 -52 -25 -95.5t-64.5 -75.5t-84 -49.5t-83.5 -17.5q-78 0 -111.5 34.5t-31.5 86.5z" />
<glyph unicode="7" d="M33.5 -24.5q-3.5 7.5 0.5 18.5q1 3 11.5 16t20.5 25l430 506q2 3 3.5 6t-9.5 4h-227q-25 0 -47 -9.5t-37 -30.5q-4 -5 -13.5 -12t-16.5 -7t-6.5 10.5t5.5 19.5q14 24 24.5 46.5t16.5 41.5q3 7 7 9t6 2q6 0 23 -1.5t34 -2.5q14 0 31.5 -0.5t38 -0.5h41.5q46 0 90 0.5 t76.5 2t41.5 2.5q5 0 8 -5.5t1 -8.5q-10 -13 -26 -33t-30 -36l-458 -543q-7 -8 -15 -17.5t-11 -9.5q-10 0 -13.5 7.5z" />
<glyph unicode="8" d="M46 113q0 38 15 70.5t57 63t123 62.5q8 3 5 6t-7 8q-18 26 -33.5 46t-25 41.5t-9.5 51.5q0 26 15.5 55t43 54.5t63.5 42t78 16.5q44 0 73 -16t43.5 -41t14.5 -52q0 -24 -10 -46.5t-38.5 -48.5t-82.5 -62q-7 -4 -15.5 -9.5t-16.5 -10.5q-8 -4 -9 -7.5t4 -9.5 q40 -46 65.5 -82.5t25.5 -88.5q0 -34 -16.5 -64.5t-48 -54.5t-75.5 -37.5t-99 -13.5q-43 0 -74.5 17t-48.5 46t-17 64zM119 108q1 -25 11 -46.5t28 -34t42 -12.5q62 0 103 34.5t40 96.5q0 37 -19 69t-51 70q-4 5 -7 7.5t-8 2.5q-4 0 -13 -6q-53 -36 -80.5 -62t-36.5 -53 t-9 -66zM239 489q0 -31 17 -60.5t49 -67.5q5 -5 9.5 -6.5t11.5 3.5q35 24 58 54.5t35 62.5t12 58q-1 33 -19.5 53t-53.5 20q-30 0 -57 -18t-44.5 -44.5t-17.5 -54.5z" />
<glyph unicode="9" d="M-5 -21q0 5 5 8.5t13 3.5q42 0 89 22.5t94 61t90 87t76 101.5t52.5 105t19.5 97q0 52 -20.5 90t-58.5 38q-33 0 -63 -23t-49 -57.5t-19 -69.5t18 -60.5t46 -25.5q29 0 45.5 8.5t36.5 17.5q7 4 7 -3q0 -1 -1 -5.5t-2 -5.5q-16 -21 -39 -35q-8 -5 -24.5 -14t-35.5 -15.5 t-36 -6.5q-40 0 -69.5 29t-29.5 69q0 39 24 80t62.5 76t83.5 56t87 21q36 0 63 -21.5t42 -57t15 -79.5q0 -51 -23 -107.5t-63 -113t-91 -107t-108.5 -90t-115.5 -62t-110 -22.5q-7 0 -9 3.5t-2 6.5z" />
<glyph unicode=":" horiz-adv-x="216" d="M5 36q0 18 9 33t23.5 23.5t32.5 8.5q20 0 32.5 -15t12.5 -35q0 -18 -8.5 -32.5t-23.5 -23.5t-33 -9q-19 0 -32 15.5t-13 34.5zM90 312q0 18 9 33t23.5 23.5t32.5 8.5q20 0 32.5 -15t12.5 -35q0 -18 -8.5 -32.5t-23.5 -23.5t-33 -9q-19 0 -32 15.5t-13 34.5z" />
<glyph unicode=";" horiz-adv-x="215" d="M-50 -123q0 5 7 8t18 9q29 16 49.5 34t31 38t10.5 40q0 17 -10.5 25t-21.5 13q-11 6 -20.5 13.5t-9.5 22.5q0 17 17.5 28.5t37.5 11.5q27 0 46.5 -17.5t19.5 -52.5q0 -37 -15.5 -70t-40 -57t-51.5 -38t-50 -14q-7 0 -12.5 0.5t-5.5 5.5zM90 312q0 18 9 33t23.5 23.5 t32.5 8.5q20 0 32.5 -15t12.5 -35q0 -18 -8.5 -32.5t-23.5 -23.5t-33 -9q-19 0 -32 15.5t-13 34.5z" />
<glyph unicode="&#x3c;" horiz-adv-x="590" d="M53 222q0 7 9 23t24 23l430 198q8 4 14.5 1.5t6.5 -13.5q0 -13 -8.5 -26t-23.5 -20l-373 -174q-2 -1 -1.5 -2.5t2.5 -2.5l380 -174q14 -7 19 -22t5 -22q0 -8 -6 -12t-11 -3l-426 199q-13 6 -27 14.5t-14 12.5z" />
<glyph unicode="=" horiz-adv-x="590" d="M67 155q0 5 2 14t7.5 16.5t14.5 7.5h453q5 0 9.5 -3t4.5 -8q0 -13 -10 -26t-22 -13h-445q-5 0 -9.5 4t-4.5 8zM67 326q0 5 2 14t7.5 16.5t14.5 7.5h453q5 0 9.5 -3t4.5 -8q0 -10 -10 -24.5t-22 -14.5h-445q-5 0 -9.5 4t-4.5 8z" />
<glyph unicode="&#x3e;" horiz-adv-x="590" d="M53 456q0 4 3.5 8.5t7.5 4.5q1 0 1.5 -0.5t1.5 -0.5l429 -200q13 -6 27 -14t14 -13q0 -7 -9 -23t-24 -23l-426 -197q-10 -4 -17 -1t-7 16q0 9 8 22t23 20l373 174q2 1 1.5 2.5t-2.5 2.5l-380 174q-14 7 -19 24t-5 24z" />
<glyph unicode="?" horiz-adv-x="316" d="M92 33q0 26 18 44t43 18q19 0 31 -14.5t12 -32.5q0 -25 -18 -43.5t-44 -18.5q-18 0 -30 14.5t-12 32.5zM110 268q0 26 9 47t36.5 42t84.5 47q38 18 67.5 48t29.5 74q0 35 -22 53t-60 18q-13 0 -20.5 -3t-13.5 -5q-9 -3 -14.5 -6t-12.5 -3q-11 0 -17.5 7t-6.5 20 q0 20 20.5 37t47.5 17q40 0 69 -22t45 -59.5t16 -83.5q0 -36 -10 -62.5t-27.5 -45t-41.5 -31.5l-88 -45q-30 -16 -40.5 -31.5t-10.5 -39.5q0 -10 2 -19.5t4 -17.5q2 -6 3.5 -11.5t1.5 -10.5q0 -4 -4 -5t-7 -1t-13 15t-18.5 36.5t-8.5 40.5z" />
<glyph unicode="@" horiz-adv-x="761" d="M32 91q0 57 19.5 115.5t57 112.5t90 96.5t119.5 67t145 24.5q65 0 114 -20t83 -53t51 -71.5t17 -74.5q0 -43 -17.5 -88.5t-50.5 -83t-81 -61t-108 -23.5q-22 0 -32 9t-12.5 22.5t-2.5 24.5q0 6 -3 7t-11 -4q-7 -5 -24 -15.5t-39.5 -19.5t-48.5 -9q-53 0 -78 29t-24 70 q1 34 19.5 71t53.5 68.5t85.5 51.5t115.5 20q16 0 31.5 -2.5t30.5 -7.5q11 -3 14.5 -4.5t6.5 -1.5q8 0 16 9.5t15 9.5q2 0 6.5 -1t8 -3t1.5 -4q-13 -18 -23 -35t-16 -29l-76 -161q-8 -17 -8.5 -35t23.5 -18q54 0 94.5 31.5t63 80t22.5 97.5t-26.5 91.5t-79.5 69t-133 26.5 q-60 0 -122.5 -27.5t-115.5 -77t-85 -115t-32 -141.5q0 -74 29.5 -119.5t84.5 -66t130 -20.5q69 0 125.5 19t104.5 55q6 5 12 7.5t10 2.5q7 0 9.5 -3t0.5 -10q-3 -9 -27.5 -27t-64.5 -37.5t-90 -33t-104 -13.5q-94 0 -155 31t-90 83t-29 114zM264 158q0 -32 15.5 -54.5 t48.5 -22.5q18 0 33 6t34 16q11 6 21 16t21 33l55 114q5 11 7.5 19t2.5 15q0 14 -14 20t-49 6q-42 0 -74.5 -16t-54.5 -41t-33.5 -54.5t-12.5 -56.5z" />
<glyph unicode="A" horiz-adv-x="658" d="M-60 8q-1 8 8.5 12.5t25.5 8.5q28 8 51.5 19t43.5 26.5t36 33.5q74 82 135.5 158t118.5 151t117 152q12 15 21 27t15 19t10 7q21 0 28.5 7t19.5 20q14 16 19.5 21.5t10.5 5.5t7 -6t-2 -26l-104 -522q-5 -26 -5 -44q0 -14 4 -24q8 -20 36 -29q16 -4 24 -7.5t8 -10.5 q0 -6 -7 -9t-24 -3q-13 0 -33.5 1.5t-43.5 3t-44 1.5h-36.5t-35 -0.5t-27.5 -0.5q-21 0 -24 12q-1 7 7 12.5t21 7.5q33 6 51.5 13.5t29 23t17.5 43.5l31 119q4 15 -5.5 21t-23.5 6l-112 -2q-16 0 -25.5 -3.5t-17.5 -14.5l-103 -136q-18 -24 -19.5 -37.5t7 -20t19.5 -10.5 t18 -9t7 -13q0 -7 -8 -10t-20 -3q-13 0 -32.5 1t-45.5 1q-31 0 -66.5 -3t-58.5 -3q-12 0 -17 3t-7 10zM308 296q-1 -6 26 -6l107 1q11 0 17 6t10 22l48 219q3 12 2.5 17.5t-5.5 5.5q-4 0 -9 -2t-10 -10l-178 -237q-7 -10 -8 -16z" />
<glyph unicode="B" horiz-adv-x="572" d="M-20 6q0 8 9.5 11.5t26.5 6.5q37 7 61 23t35 52l137 450q6 21 6 35q1 10 -3 16q-8 14 -43 21q-15 3 -21 6.5t-6 10.5t10.5 9.5t22.5 2.5q17 0 28.5 -1t22 -2.5t24.5 -1.5q15 0 34 2.5t37.5 5t30.5 2.5q68 0 108.5 -18t58.5 -47.5t18 -64.5q0 -36 -17 -63.5t-44 -47.5 t-58 -32t-60 -16q-8 -1 -7.5 -4.5t4.5 -5.5q58 -22 91.5 -58t33.5 -106q0 -43 -20 -79t-56.5 -62.5t-85.5 -40.5t-106 -14q-42 0 -70 3.5t-56 3.5q-24 0 -41 -2t-35.5 -4t-45.5 -2q-24 0 -24 11zM186 73q2 -17 13 -28q11 -10 22 -17t28 -7q34 0 67.5 13.5t61.5 38.5 t44.5 58.5t16.5 73.5q0 69 -41.5 105t-123.5 36q-7 0 -13 -5t-8 -14l-64 -219q-4 -14 -4 -27q1 -4 1 -8zM273 386q-4 -15 12 -15q23 0 45.5 3.5t46.5 8.5q50 21 84.5 56t34.5 86q0 41 -32 70.5t-91 29.5q-19 0 -27.5 -3.5t-10.5 -12.5z" />
<glyph unicode="C" horiz-adv-x="631" d="M78 240q0 90 32.5 167t89.5 135t130.5 90.5t154.5 32.5q28 0 55.5 -4.5t55.5 -14.5q19 -6 33 -11t24 -5q5 0 10 2.5l11 5.5q6 2 12 4.5t11 2.5q9 0 9.5 -6t-2.5 -10q-11 -15 -25 -40t-25.5 -52t-16.5 -50q-1 -7 -7 -13.5t-11 -6.5q-9 0 -12.5 8.5t-2.5 17.5q4 18 4 36v11 q-2 24 -19 45q-17 22 -44.5 35.5t-62.5 13.5q-43 0 -88 -20t-85.5 -56.5t-73 -86.5t-51 -110.5t-18.5 -128.5q0 -61 17.5 -102t46 -66t62 -36t65.5 -11q51 0 83 16.5t54 44t42 61.5q5 8 10 13.5t13 5.5q5 0 6 -5t1 -15q0 -7 -9 -30.5t-22 -50.5t-24.5 -46.5t-16.5 -19.5 q-4 0 -9 3.5t-10 7.5q-4 4 -9.5 6.5t-11.5 2.5q-7 0 -17 -3t-24 -8q-15 -5 -36 -9.5t-47 -4.5q-41 0 -85 17.5t-82 51t-61.5 80.5t-23.5 105z" />
<glyph unicode="D" horiz-adv-x="752" d="M-4 6q0 16 36 18q32 1 48.5 9.5t25.5 25t17 40.5l150 461q3 9 3 16q0 12 -8 20q-14 12 -37 17t-45 9q-15 3 -19.5 8t-4.5 12q0 6 9 8.5t21 2.5q40 0 73 -2t64 -2q20 0 34.5 1.5t30 3t38.5 1.5q94 0 164 -31.5t109.5 -93t39.5 -153.5q0 -76 -31 -145t-88 -123t-135.5 -85 t-173.5 -31q-9 0 -41.5 2t-73.5 3.5t-78 1.5q-18 0 -32.5 -1t-30.5 -2.5t-41 -1.5q-12 0 -18 2.5t-6 8.5zM207 71q10 -26 39.5 -37t75.5 -11q75 0 136.5 31t106.5 84.5t69.5 120t24.5 136.5q0 77 -26 127t-74.5 75t-116.5 25q-42 0 -60 -5.5t-23.5 -17t-11.5 -28.5 l-136 -430q-8 -26 -8 -45q0 -14 4 -25z" />
<glyph unicode="E" horiz-adv-x="576" d="M-32 6q0 12 36 18q50 8 71.5 24.5t31.5 50.5l137 450q7 22 7 37q0 14 -6 20q-13 14 -57 19q-15 2 -20.5 6t-5.5 11q0 6 9.5 8.5t21.5 2.5q8 0 28.5 -1t46 -1.5t46.5 -0.5h161q55 0 83.5 2.5t40 5t13.5 2.5q4 0 7.5 -4.5t3.5 -8.5q0 -6 -6 -21.5t-13 -38.5t-11 -52 q-1 -10 -6.5 -14.5t-10.5 -4.5t-8.5 7t-2.5 18q1 10 1 18q0 31 -9 45q-11 18 -51 18h-122q-24 0 -34 -6.5t-15 -23.5l-67 -212q-6 -18 -3 -25t19 -6l124 3q26 1 41.5 11.5t27.5 25.5q7 8 15.5 19.5t17.5 11.5q8 0 8.5 -8.5t-4.5 -19.5q-9 -17 -15.5 -32t-11.5 -29 q-6 -16 -10.5 -33.5t-8.5 -39.5q-1 -7 -5 -14t-9 -7q-8 0 -10.5 11t-2.5 16q0 31 -10.5 43.5t-27.5 12.5l-115 2q-17 0 -29.5 -4.5t-18.5 -26.5l-51 -182q-9 -32 -9 -50q0 -11 4 -17q8 -16 39 -16h155q25 0 44.5 8t35.5 19q15 11 28 26.5t26 36.5l8 12t10 6q5 0 6 -7t1 -13 q0 -9 -7 -28t-16 -38.5t-16 -31.5q-6 -10 -13.5 -15.5t-19.5 -5.5q-41 0 -80.5 0.5t-76.5 1.5t-71 2t-65.5 1.5t-59.5 0.5q-24 0 -42 -1.5t-35.5 -3t-42.5 -1.5q-12 0 -18 2.5t-6 8.5z" />
<glyph unicode="F" horiz-adv-x="509" d="M-10 6q0 8 9.5 11.5t26.5 6.5q37 7 55 22.5t29 52.5l137 450q6 18 6 30.5t-6 20.5q-12 15 -45 22q-15 3 -20 8t-5 12q0 6 9.5 8.5t21.5 2.5q11 0 44.5 -1.5t64.5 -1.5h159q68 0 102.5 6t38.5 6q5 0 6.5 -2.5t1.5 -7.5q0 -4 -1.5 -9t-3.5 -13q-5 -17 -12.5 -43.5 t-10.5 -46.5q-1 -5 -4 -11t-13 -6q-7 0 -9 7.5t-2 15.5q0 18 -0.5 34t-10.5 26q-5 5 -14 8.5t-23 3.5h-144q-19 0 -26.5 -9t-12.5 -21q-1 -3 -10 -29.5t-20.5 -62.5t-22 -70t-16.5 -52q-2 -8 -1 -16.5t8 -8.5l135 3q42 2 71 37q7 8 14.5 14.5t11.5 6.5q5 0 8.5 -4.5 t0.5 -11.5q-17 -38 -26.5 -65.5t-19.5 -65.5q-2 -7 -5 -12t-8 -5q-8 0 -11.5 9t-3.5 14q0 29 -10.5 39.5t-26.5 11.5q-11 1 -35.5 1.5t-47.5 0.5h-32q-17 0 -29.5 -4.5t-18.5 -26.5l-51 -178q-8 -26 -8 -43q0 -4 1 -8q3 -18 18.5 -25t41.5 -13q15 -3 20 -6.5t5 -11.5 q0 -7 -9 -9t-21 -2q-25 0 -41.5 2t-31 3.5t-34.5 1.5q-34 0 -57.5 -3.5t-61.5 -3.5q-12 0 -18 2t-6 9z" />
<glyph unicode="G" horiz-adv-x="687" d="M81 254q0 87 32.5 161.5t91.5 130t138 86.5t171 31q32 0 55.5 -6t41.5 -13q15 -6 27.5 -10.5t24.5 -4.5q5 0 11 3l12 6q5 3 10 5t10 2q9 0 9.5 -6t-2.5 -10q-11 -15 -25 -40t-25.5 -52t-16.5 -50q-2 -10 -7.5 -16.5t-10.5 -6.5q-16 0 -16 19q0 4 1 10q2 14 2 29 q0 9 -1 18q-2 24 -18 45q-13 17 -37.5 33t-63.5 16q-69 0 -128.5 -34.5t-104 -92.5t-69 -130.5t-24.5 -148.5q0 -50 20 -89.5t52.5 -67.5t71 -42.5t76.5 -14.5q46 0 73 25.5t36 60.5l28 109q5 19 0.5 28t-18.5 13q-13 4 -25 6.5t-20 3.5q-10 2 -20.5 5t-10.5 10t9.5 11 t22.5 4q23 0 41 -1.5t35.5 -3t40.5 -1.5q25 0 42.5 3t42.5 3q21 0 21 -14q0 -5 -8 -11t-24 -9q-22 -4 -35 -13.5t-22 -29.5q-9 -19 -17.5 -44.5t-13.5 -47t-5 -29.5q0 -9 2.5 -16t8.5 -16q-6 -14 -26.5 -27.5t-49 -24t-57.5 -16.5t-51 -6q-64 0 -120 16.5t-98.5 49.5 t-66 83.5t-23.5 118.5z" />
<glyph unicode="H" horiz-adv-x="751" d="M-20 6q0 7 8.5 10.5t25.5 8.5q32 9 47.5 17t22.5 30l149 479q9 28 9 42q0 3 -1 7q-3 14 -36 22q-15 3 -19.5 8t-4.5 12q0 6 9 8t21 3q25 0 39 -1t26 -1.5t30 -0.5h31.5t27.5 1.5t40 1.5q24 0 24 -11q0 -7 -10 -12t-27 -8q-24 -4 -41 -13.5t-27.5 -23.5t-16.5 -34 l-61 -197q-2 -9 10 -9h335q6 0 10 12l61 195q4 14 4 25t-4 20q-8 18 -40 25q-15 3 -19.5 8t-4.5 12q0 6 9 8t21 3q25 0 41 -1t30.5 -1.5t35.5 -0.5h26t21.5 1.5t37.5 1.5q12 0 18 -2.5t6 -8.5q0 -14 -37 -20q-37 -7 -49 -24t-21 -46l-145 -471q-4 -12 -4 -22q0 -9 4 -16 q6 -14 34 -19q15 -3 20 -7t5 -11q0 -6 -9 -8.5t-21 -2.5q-25 0 -38.5 1.5t-25.5 2.5t-31 1t-32.5 -1t-28.5 -2.5t-40 -1.5q-24 0 -24 11q0 7 9.5 11t26.5 7q32 5 54 23t32 50l62 195q2 5 3.5 10t-3.5 5h-345q-5 0 -8 -11l-59 -192q-6 -20 -6 -35q-1 -15 7 -23q14 -16 46 -22 q15 -3 20 -7t5 -11q0 -6 -9 -8.5t-21 -2.5q-25 0 -41 1.5t-31 2.5t-36 1q-20 0 -34 -1t-29.5 -2.5t-40.5 -1.5q-12 0 -17.5 2.5t-5.5 8.5z" />
<glyph unicode="I" horiz-adv-x="362" d="M-20 6q0 12 36 18q37 7 61.5 23t34.5 51l138 452q6 19 6 32q0 11 -4 18q-10 15 -43 22q-15 3 -19.5 8t-4.5 12q0 6 9 8t21 3q25 0 41 -1t31 -1.5t36 -0.5h33.5t28.5 1.5t40 1.5q24 0 24 -11q0 -7 -10 -12t-27 -8q-24 -4 -41.5 -12t-28.5 -22t-18 -38l-138 -452 q-4 -15 -4 -26q0 -7 1 -12q4 -15 18 -23t36 -13q15 -3 20 -7t5 -11q0 -6 -9 -8.5t-21 -2.5q-25 0 -41 1.5t-30.5 2.5t-36.5 1q-34 0 -58 -2.5t-62 -2.5q-12 0 -18 2.5t-6 8.5z" />
<glyph unicode="J" horiz-adv-x="293" d="M-184 -147q0 21 5.5 33t18.5 12q8 0 20 -11t28 -22q12 -9 27 -18t31 -9q20 0 37 12.5t34.5 46.5t36.5 98l169 556q6 20 6 33q0 10 -3 16q-9 15 -42 22q-15 3 -20 8t-5 12q0 6 9.5 8.5t21.5 2.5q25 0 40.5 -1t30.5 -1.5t36 -0.5q17 0 27.5 0.5t23.5 1.5t38 1q23 0 23 -11 q0 -7 -9.5 -12t-26.5 -8q-24 -4 -38 -12t-21.5 -22t-15.5 -37l-125 -409q-24 -79 -42.5 -126.5t-34 -75t-29.5 -43.5t-28 -31q-28 -29 -60.5 -47.5t-73.5 -18.5q-45 0 -67 18.5t-22 34.5z" />
<glyph unicode="K" horiz-adv-x="699" d="M-17 6q0 12 36 18q37 7 56 23.5t30 53.5l138 450q6 19 6 32q-1 11 -5 17q-10 14 -42 22q-15 3 -20 8t-5 12q0 6 9.5 8.5t21.5 2.5q25 0 40.5 -0.5t29 -1t33.5 -0.5q18 0 28.5 0.5t24 1t38.5 0.5q24 0 24 -11q0 -7 -10 -12t-27 -8q-24 -4 -37 -10.5t-20 -20t-15 -40.5 l-56 -191q-2 -7 1 -10t10 -3q15 0 31 10.5t36 27.5l211 182q13 11 22 20.5t9 17.5q0 3 -3.5 7t-15.5 8q-11 4 -17.5 8.5t-6.5 11.5q0 6 12 8.5t24 2.5h50q40 0 82.5 2t69.5 2q17 0 17 -11q0 -7 -10 -12t-27 -8q-37 -7 -78.5 -22t-82.5 -44q-43 -31 -80 -61.5t-75 -64.5 t-84 -75q-4 -4 -4 -8.5t3 -9.5q59 -106 103 -170t79 -99q23 -22 44.5 -30.5t46.5 -15.5q16 -4 20.5 -7.5t4.5 -10.5q0 -6 -9 -8.5t-21 -2.5q-27 0 -46 1.5t-43.5 2.5t-70.5 1h-18.5t-17.5 -0.5t-31 -0.5q-12 0 -17.5 2.5t-5.5 8.5q0 7 8 10.5t22 6.5q20 5 27.5 9t5.5 12 t-12 24l-140 234q-5 9 -17 13t-16 4t-6 -7.5t-4 -13.5l-54 -192q-7 -23 -7 -39q0 -13 5 -22q10 -18 43 -25q15 -3 20 -7t5 -11q0 -6 -9 -8.5t-21 -2.5q-25 0 -39 2t-26.5 3.5t-31.5 1.5q-34 0 -57.5 -3.5t-61.5 -3.5q-12 0 -18 2.5t-6 8.5z" />
<glyph unicode="L" horiz-adv-x="583" d="M-20 6q0 12 36 18q37 7 67 23.5t40 51.5l141 461q7 21 7 33q1 9 -3 13q-8 10 -41 16q-15 3 -20 8t-5 12q0 6 9 8t21 2q25 0 40.5 -0.5t29.5 -2t34 -1.5q23 0 41 1.5t37 2.5t44 0q23 0 23 -10q0 -8 -11 -11.5t-28 -5.5q-26 -2 -46.5 -8.5t-34.5 -18t-20 -31.5l-135 -454 q-6 -22 -6 -39q0 -12 3 -22q8 -22 45 -22h80q55 0 88.5 11.5t52.5 30.5t32 38t29 42q5 6 7.5 8t8.5 2q5 0 6.5 -3t1.5 -9q0 -7 -5.5 -25t-13.5 -40.5t-16.5 -42.5t-15.5 -31q-4 -6 -10 -11t-13 -5q-57 0 -105.5 1t-91.5 2t-81 2t-73 1q-37 0 -62 -3t-63 -3q-12 0 -18 2.5 t-6 8.5z" />
<glyph unicode="M" horiz-adv-x="991" d="M-50 4q0 7 9 11.5t26 7.5q29 5 50 16.5t40.5 36t42.5 68.5l199 388q13 25 13 44t-18.5 31.5t-59.5 17.5q-22 3 -30.5 6.5t-8.5 10.5q0 8 11.5 12t30.5 4q17 0 47 -1t62 -2.5t53 -1.5q13 0 19.5 -6.5t8.5 -20.5q1 -10 1 -25v-16l8 -422q1 -22 9.5 -19t20.5 16 q62 70 120.5 138.5t117 137.5t117.5 139q11 21 17 34.5t14 26.5q8 14 21 14h38q8 0 25 2t35 4t27 2q12 0 22.5 -4t10.5 -11q0 -8 -8.5 -13.5t-32.5 -8.5q-30 -4 -46.5 -10t-25.5 -22.5t-20 -52.5q-27 -92 -49 -189.5t-40 -192.5q-7 -37 -7 -62q0 -20 4 -33q10 -28 44 -33 q15 -2 20.5 -6t5.5 -11q0 -4 -9 -8t-21 -4q-25 0 -43.5 2.5t-36.5 5.5t-41 3t-37.5 -3t-30 -5.5t-40.5 -2.5q-12 0 -17.5 3t-5.5 9t9.5 10.5t25.5 8.5q32 8 48.5 25t27.5 51q25 76 44 140.5t35.5 127t33.5 130.5q2 5 -2.5 6t-9.5 -4l-295 -342l-117 -152q-10 -12 -16 -18 t-9 -6q-4 0 -6.5 7t-2.5 18q3 91 3 182q-1 35 -1 69q-2 126 -6 250q-1 22 -9.5 21t-19.5 -24q-46 -91 -88.5 -181.5t-81.5 -181.5q-20 -47 -25 -72q-2 -11 -2 -19q0 -10 4 -16q6 -10 20 -13q15 -2 22.5 -6t7.5 -11q0 -6 -11 -9t-23 -3q-25 0 -40.5 1t-30 1.5t-37.5 0.5 q-17 0 -26.5 -1.5t-22 -3t-37.5 -1.5q-24 0 -24 10z" />
<glyph unicode="N" horiz-adv-x="771" d="M-8 6q0 7 6 10.5t23 7.5q47 11 66 29t26 42l139 431q11 33 11 54q1 18 -13 30t-53 15q-17 2 -28 6.5t-11 12.5q0 10 10 12t15 2q27 0 50 -1t42.5 -2.5t36.5 -0.5q8 0 15 -5t11 -13l229 -482q2 -4 8.5 -11.5t11.5 -7.5t13 20q4 11 14 41t23 71.5t26.5 86.5t25.5 85.5 t20 68.5t10 36q2 10 2 19q0 21 -13 33q-19 17 -67 24q-27 4 -27 19q0 6 10.5 9t22.5 3q27 0 52.5 -2t54.5 -2q20 0 35 1.5t33.5 3t46.5 2.5q23 0 23 -12q0 -7 -10 -12.5t-27 -7.5q-25 -2 -39.5 -7.5t-23.5 -19.5t-20 -40q-2 -6 -13 -37.5t-27 -77.5t-34 -98t-34 -100 t-27.5 -83t-14.5 -46q-4 -16 -2.5 -25.5t6.5 -21.5q6 -14 15.5 -20.5t17.5 -12.5t13.5 -11.5t5.5 -15.5q0 -4 -2.5 -5t-5.5 -1q-18 0 -32.5 -1t-25 -2.5t-19.5 -1.5q-16 0 -25 5t-17 21q-18 38 -36.5 79t-37 84t-37.5 86t-38.5 85.5t-38.5 83t-39 76.5q-6 11 -12.5 17.5 t-11.5 6.5t-12 -8.5t-12 -25.5q-10 -37 -24.5 -85t-30 -102.5t-31.5 -111t-29 -110.5q-2 -9 -2 -17q1 -17 11 -29q16 -18 53 -27q15 -3 22 -6.5t7 -10.5q0 -6 -9 -8.5t-21 -2.5q-25 0 -40.5 1.5t-28.5 2.5t-30 1q-20 0 -35 -1t-31 -2.5t-41 -1.5q-12 0 -18 2.5t-6 8.5z" />
<glyph unicode="O" horiz-adv-x="694" d="M78 243q0 72 25.5 146t75.5 136.5t122.5 100.5t166.5 38q78 0 128 -35.5t73.5 -94t23.5 -127.5q0 -72 -25.5 -146t-75.5 -136.5t-122.5 -100.5t-166.5 -38q-78 0 -127.5 35.5t-73.5 94t-24 127.5zM163 205q0 -47 14.5 -90t46 -70.5t82.5 -27.5q54 0 100.5 25.5t84 69 t63.5 99t40 116t14 118.5q0 47 -14.5 91t-46 72t-82.5 28q-52 0 -98 -26t-83 -70t-64.5 -99.5t-42 -116.5t-14.5 -119z" />
<glyph unicode="P" horiz-adv-x="566" d="M1 6q0 7 9.5 11t26.5 7q37 7 59 23t33 53l134 437q7 23 7 40q0 15 -6 25q-12 21 -62 25q-15 2 -20 5t-5 10q0 6 9.5 8.5t21.5 2.5h21t35 -0.5t33 -0.5q11 0 32 1t43.5 2t35.5 1q63 0 111 -22t74.5 -63t26.5 -99q0 -48 -22.5 -88t-61 -69t-87.5 -45t-102 -16 q-10 0 -26 2.5t-16 10.5q0 6 7 9t16 4q14 2 28 4.5t27 5.5q43 12 77 36.5t54.5 63t20.5 90.5q0 42 -17.5 76t-51.5 54t-84 20q-8 0 -13 -4.5t-8.5 -13.5t-8.5 -24l-146 -477q-7 -22 -7 -37q0 -12 5 -22q11 -20 50 -28q15 -3 20 -7t5 -11q0 -6 -9 -8.5t-21 -2.5q-25 0 -41 2 t-29 3.5t-31 1.5q-36 0 -60.5 -3.5t-62.5 -3.5q-12 0 -18 2.5t-6 8.5z" />
<glyph unicode="Q" horiz-adv-x="694" d="M47 -152q0 11 20.5 24t52.5 27t68.5 27.5t69.5 25.5t55 22q91 41 158.5 108.5t105 159t37.5 203.5q0 47 -16.5 90.5t-51 71.5t-90.5 28q-51 0 -95.5 -25.5t-80.5 -69.5t-62 -100t-40 -116.5t-14 -118.5q0 -47 19.5 -92.5t65.5 -75.5t125 -30h12t12 1l-35 -18q-4 0 -18 -2 t-31 -2q-81 0 -133 35.5t-77 94t-25 127.5q0 72 25 146t74.5 136.5t122 100.5t168.5 38q78 0 129 -35.5t76 -94t25 -127.5q0 -67 -24.5 -137t-73.5 -132t-123 -109q-43 -28 -80 -49.5t-80.5 -40.5t-108.5 -39l-21 7q13 4 25.5 6t25.5 2q44 0 89.5 -17t83.5 -40 q47 -28 91 -51.5t81 -23.5q32 0 57.5 14.5t42.5 37.5q8 10 13.5 10.5t8 -4.5t-1.5 -12q-8 -17 -23.5 -34.5t-37 -32t-47 -23.5t-52.5 -9q-53 0 -101 23.5t-93 48.5q-43 25 -88 44t-95 19q-17 0 -33 -2t-28 -7q-15 -6 -26.5 -11.5t-20.5 -5.5q-8 0 -10 1t-2 8z" />
<glyph unicode="R" horiz-adv-x="687" d="M3 6q0 12 36 18q37 7 59 23t33 53l134 438q11 33 11 50q0 18 -18 24q-16 6 -54 10q-15 2 -21.5 6t-6.5 11q0 8 11 11t23 3h25t39.5 -0.5t24.5 -0.5q19 0 39.5 0.5t39.5 1.5t32 1q51 0 96 -15t73 -47.5t28 -85.5q0 -54 -25.5 -93t-65 -63.5t-82.5 -38.5q-14 -5 -9 -17 q5 -13 17 -40t26.5 -58.5t27 -58t19.5 -40.5q20 -39 38 -52.5t47 -18.5q13 -2 23.5 -4.5t10.5 -9.5q0 -11 -15.5 -14t-35.5 -3q-27 0 -50.5 2.5t-41 10.5t-26.5 23q-16 29 -35.5 68t-37 79t-30.5 70q-12 29 -23 39t-38 10q-22 0 -29.5 -3.5t-10.5 -14.5l-53 -169 q-7 -22 -7 -39q0 -11 3 -19q7 -22 40 -29q15 -3 20 -7t5 -11q0 -6 -9 -8.5t-21 -2.5q-25 0 -38 2t-23 3.5t-28 1.5q-36 0 -60.5 -3.5t-62.5 -3.5q-12 0 -18 2.5t-6 8.5zM292 356q-2 -9 -2 -15q0 -9 6 -15q10 -8 42 -8q21 0 52 9t62 30.5t51.5 58.5t20.5 92q0 51 -34.5 86.5 t-87.5 35.5q-14 0 -23.5 -5.5t-17 -21.5t-16.5 -48z" />
<glyph unicode="S" horiz-adv-x="467" d="M-14 19q0 6 9 27t20.5 53.5t16.5 71.5q3 20 16 20q8 0 10 -9.5t2 -29.5q0 -38 12.5 -69.5t39 -49.5t67.5 -18q64 0 108.5 36.5t44.5 103.5q0 26 -7.5 48t-25.5 45.5t-50 53.5q-43 39 -73.5 81t-30.5 99q0 53 27.5 94t75 64.5t106.5 23.5q16 0 34 -3.5t35 -8.5 q20 -6 33.5 -11.5t20.5 -5.5q11 0 19 5q4 2 8 3.5t9 1.5q8 0 10 -6t2 -10q0 -1 -6.5 -12.5t-15 -39t-16.5 -79.5q-2 -15 -7.5 -23.5t-8.5 -8.5q-7 0 -9.5 7.5t-2.5 18.5q0 70 -32 106.5t-85 36.5q-35 0 -64.5 -19t-46.5 -48.5t-17 -61.5q0 -26 9 -50.5t29.5 -50t54.5 -57.5 q51 -46 76.5 -84t25.5 -80q0 -55 -26 -100t-76.5 -72t-124.5 -27q-25 0 -51 4.5t-52 14.5q-13 5 -21.5 8.5t-11.5 3.5q-5 0 -10.5 -2t-10.5 -4q-6 -4 -11 -7t-9 -3t-11.5 6.5t-7.5 12.5z" />
<glyph unicode="T" horiz-adv-x="622" d="M118 517q0 2 2 10t8 21q10 20 22.5 46t19.5 52q2 7 7.5 13.5t9.5 6.5t9 -3.5t9 -8.5q3 -3 9 -6t21 -4.5t46 -1.5h357q31 0 46.5 2t22.5 5t10 6q5 5 9 8t8 3q10 0 10 -11q0 -7 -3.5 -15t-6.5 -13q-5 -10 -16 -42.5t-19 -73.5q-1 -8 -4 -11t-7 -3q-7 0 -10.5 6.5t-3.5 16.5 q0 46 -14.5 70t-52.5 24h-100q-13 0 -21.5 -6t-16 -24.5t-18.5 -56.5l-121 -425q-4 -15 -4 -27q0 -15 8 -27q14 -18 46 -26q15 -3 20 -6t5 -10q0 -6 -9 -8.5t-21 -2.5q-25 0 -41 1.5t-30.5 2.5t-35.5 1q-23 0 -41 -1t-36.5 -2.5t-43.5 -1.5q-12 0 -18 2.5t-6 8.5q0 7 10 10 t27 6q37 7 61.5 25.5t34.5 54.5l122 428q12 45 12 63q0 21 -15 21h-83q-49 0 -75.5 -19.5t-44.5 -41.5q-9 -10 -16.5 -21.5t-14 -19.5t-12.5 -8t-8.5 2.5t-2.5 10.5z" />
<glyph unicode="U" horiz-adv-x="700" d="M108 131q-2 12 -1 25q0 42 16 95l90 296q6 20 6 34q1 11 -3 19q-8 16 -23 20q-31 9 -31 22q0 6 13 8.5t25 2.5q21 0 42 -1.5t47 -1.5q22 0 41 1t34 1q24 0 23 -11q-1 -7 -10.5 -11t-26.5 -9q-16 -4 -35 -24.5t-31 -61.5l-88 -297q-13 -45 -13 -79q-1 -23 5 -42 q14 -47 52.5 -69t87.5 -22q73 0 122.5 34.5t81.5 90t50 118.5q11 38 23.5 77.5t23.5 73.5t17 54q20 60 22 89v6q0 24 -12 35q-12 12 -36 18q-9 2 -17.5 6.5t-8.5 11.5q0 6 9.5 8.5t21.5 2.5h32.5t37.5 -0.5t32 -0.5q15 0 28.5 0.5t25.5 1.5t22 1q12 0 18.5 -2.5t5.5 -8.5 q-1 -12 -38 -20q-16 -4 -28 -11.5t-25 -30.5t-32 -74q-21 -55 -42.5 -119t-46.5 -133q-28 -77 -67 -138t-98 -95.5t-149 -34.5q-48 0 -89.5 15.5t-69.5 47.5t-34 82z" />
<glyph unicode="V" horiz-adv-x="683" d="M168 643q0 7 9 10t21 3q20 0 47.5 -3t58.5 -3q18 0 36 0.5t34 0.5h27q12 0 18 -2.5t6 -8.5q0 -7 -10.5 -12t-24.5 -7q-29 -4 -45.5 -17t-22.5 -51l-67 -410q-3 -17 -1.5 -24t5.5 -7t10 9t19 25l280 346q36 44 46 72q7 18 7 29q0 7 -2 12q-6 14 -20 16q-16 2 -20 7.5 t-4 12.5q0 6 9 8.5t21 2.5q13 0 39.5 -1t51.5 -1q31 0 49.5 3t41.5 3q12 0 17.5 -3.5t5.5 -9.5q0 -7 -10 -12.5t-27 -10.5q-26 -7 -57 -24t-60 -53l-371 -448q-16 -19 -30 -38t-26.5 -35t-21.5 -26t-15 -10q-13 0 -22 16q-5 8 -5 24q0 15 4 37q29 168 48 286t26 201v14 q-1 22 -5 36q-6 18 -46 23q-15 2 -19.5 7.5t-4.5 12.5z" />
<glyph unicode="W" horiz-adv-x="1067" d="M168 643q0 8 11 10.5t26 2.5q20 0 47.5 -3t65.5 -3q18 0 35.5 0.5t32.5 0.5h26q12 0 19.5 -3t7.5 -9q0 -7 -13 -12t-27 -7q-24 -2 -36.5 -9t-18.5 -23.5t-11 -48.5q-14 -93 -29 -185t-30 -187q-2 -13 -2 -21q0 -13 5 -13q8 0 36 32l271 320q28 32 38 51.5t10 33.5 q0 24 -15 36t-53 17q-15 2 -22.5 7.5t-7.5 13.5q0 7 12 9.5t24 2.5q15 0 38.5 -1.5t48.5 -3t44 -1.5t36 1.5t32.5 3t31.5 1.5q23 0 23 -13q0 -7 -10 -12t-27 -8q-47 -7 -62.5 -22t-20.5 -50l-56 -384q-2 -13 -2 -21q0 -13 6 -13q8 0 34 33l259 324q37 45 47 72q6 15 5 25 q0 9 -4 16q-9 14 -33 18q-16 3 -20.5 7t-4.5 11t9.5 10t21.5 3q9 0 29.5 -0.5t44 -1t40.5 -0.5q31 0 49.5 3t41.5 3q12 0 17.5 -3.5t5.5 -9.5q0 -7 -10 -13.5t-27 -9.5q-31 -6 -59 -23t-58 -54l-370 -449q-17 -21 -37.5 -46.5t-37 -43.5t-23.5 -18q-14 0 -18 12q-3 9 -4 23 v10q2 20 6.5 41.5t7.5 39.5q10 60 21 125l22 130t21 125l-330 -395q-13 -16 -27 -35t-26.5 -36.5t-22 -28.5t-14.5 -11q-12 0 -18 14.5t-6 35.5t4 42q11 56 22 117.5t21.5 122.5t18.5 114t12 91q3 28 3 46q-1 9 -1 15q-2 19 -17 26.5t-48 12.5q-15 2 -23 7t-8 13z" />
<glyph unicode="X" horiz-adv-x="633" d="M-61 6q0 7 10 13.5t28 8.5q24 3 47 12t50 29t60 55l152 160q14 15 22 29q4 7 4 16.5t-4 21.5l-52 178q-11 40 -25.5 58.5t-31 25t-35.5 9.5q-14 2 -23 8t-9 13q0 6 13 9t25 3q23 0 57.5 -2.5t68.5 -2.5q28 0 48.5 1t33.5 1q12 0 18 -2.5t6 -8.5q0 -7 -9.5 -12.5 t-27.5 -7.5q-38 -3 -44 -21q-2 -5 -2 -13q0 -20 11 -59l35 -131q4 -14 10.5 -14.5t16.5 11.5l107 126q32 38 41 58t2.5 29t-23.5 13q-9 2 -16.5 7.5t-7.5 12.5q0 6 9 8.5t21 2.5q17 0 36.5 -0.5t40.5 -0.5q27 0 58 3t50 3q12 0 18 -2.5t6 -8.5q0 -7 -10 -11t-27 -9 q-19 -5 -46.5 -21t-57 -39.5t-55.5 -51.5l-132 -143q-13 -15 -16.5 -22.5t-1.5 -16.5l60 -220q8 -28 18 -43t30 -23.5t57 -18.5q15 -4 20 -8.5t5 -11.5q0 -6 -9 -8.5t-21 -2.5q-13 0 -38 1.5t-53 3t-50 1.5q-28 0 -49 -0.5t-38 -0.5q-12 0 -18 2.5t-6 8.5q0 7 14 12t24 8 q35 9 44 28q4 10 4 22.5t-4 29.5l-44 159q-3 11 -8 12t-11 -7l-146 -175q-16 -19 -20 -33t2.5 -23t22.5 -14q15 -4 19.5 -7.5t4.5 -10.5q0 -6 -9 -9.5t-21 -3.5q-13 0 -37 1t-49 1q-31 0 -63.5 -3t-55.5 -3q-12 0 -18 2.5t-6 8.5z" />
<glyph unicode="Y" horiz-adv-x="575" d="M99 6q0 7 9.5 11t26.5 7q37 7 62.5 27.5t36.5 56.5l51 160q6 18 6 32q0 17 -7 42l-56 206q-9 34 -23.5 52t-37.5 20q-14 2 -21 8.5t-7 13.5q0 6 11.5 8.5t23.5 2.5q21 0 48 -1.5t60 -1.5q22 0 41 1t34 1q12 0 17.5 -2.5t5.5 -8.5q0 -7 -9.5 -12t-27.5 -8q-28 -4 -35 -15 q-3 -5 -3 -14q0 -12 5 -32l42 -159q5 -19 9.5 -28.5t9.5 -9.5t14 9t22 23q33 37 57.5 68.5t58.5 73.5q32 39 32 57q0 19 -31 26q-10 2 -17 7.5t-7 12.5q0 6 9 8.5t21 2.5q21 0 38.5 -0.5t39.5 -0.5q29 0 55.5 1.5t42.5 1.5q12 0 18.5 -2.5t6.5 -8.5q0 -7 -10 -10.5t-24 -8.5 q-19 -6 -43.5 -21.5t-46.5 -33.5t-37 -34q-25 -26 -56.5 -61t-61 -68t-48.5 -53q-22 -24 -32 -45.5t-19 -50.5l-45 -148q-4 -15 -4 -28q0 -16 6 -28q13 -21 46 -28q15 -3 20 -7t5 -11q0 -6 -9 -8.5t-21 -2.5q-25 0 -41 1.5t-31 2.5t-36 1q-23 0 -41 -1t-36 -2.5t-43 -1.5 q-12 0 -18 2.5t-6 8.5z" />
<glyph unicode="Z" horiz-adv-x="635" d="M-19 4l1 7q2 5 15.5 21.5t32.5 36.5t34 35q69 70 126.5 130.5t112 118.5t112.5 118.5t127 129.5q4 4 6 9.5t-15 6.5q-11 1 -28 1h-18q-30 0 -65.5 -2t-69 -4t-58.5 -4q-22 -2 -58.5 -23.5t-63.5 -66.5q-7 -11 -13.5 -18t-13.5 -7q-6 0 -9 6t-3 13q0 3 2 10t6 15 q9 20 22 47t20 43q5 13 12 20t18 6q12 0 35.5 -2.5t48.5 -3.5q36 -1 81.5 -1h76.5q39 0 72 1t65 1t66 1q6 0 11 -9.5t2 -12.5l-77 -77q-70 -70 -127.5 -127t-110 -111t-107.5 -112.5t-119 -132.5q-10 -12 -10 -19q0 -9 16 -10q20 -2 44 -4t55 -2q21 0 53.5 1t65.5 3t55 5 q51 7 95 32.5t75 76.5q4 6 9 12.5t12 6.5q8 0 8.5 -6t0.5 -13q0 -8 -9.5 -26.5t-23 -41t-25.5 -42t-18 -28.5q-4 -6 -10.5 -11.5t-20.5 -5.5q-36 0 -81 0.5t-91.5 1.5t-89 1.5t-73.5 0.5q-16 0 -49.5 -0.5t-70 -1t-63.5 -0.5q-4 0 -3 7z" />
<glyph unicode="[" horiz-adv-x="361" d="M-2 -188.5q0 6.5 4 18.5l248 810q4 12 7 26.5t10.5 25t22.5 10.5l166 -1q6 0 10 -3t4 -8q0 -10 -11 -13t-19 -3q-22 0 -40 -0.5t-41 -0.5q-10 0 -18.5 -9t-12.5 -20q-12 -37 -32 -98t-44 -136t-49 -154.5t-48 -155t-42 -138.5t-30 -104q-4 -16 0 -20.5t19 -4.5 q14 0 23 -0.5t21 -1.5t33 -3q8 -1 14.5 -3t6.5 -10q0 -7 -10 -11t-18 -4h-151q-11 0 -17 2.5t-6 9z" />
<glyph unicode="\" horiz-adv-x="410" d="M170 655q-1 8 5 12.5t13 3.5q11 -1 19.5 -5t9.5 -15l93 -705q1 -8 -6 -11.5t-15 -2.5q-10 1 -18 5t-10 13z" />
<glyph unicode="]" horiz-adv-x="360" d="M-78 -188q0 10 11 13t19 3q22 0 40.5 0.5t40.5 0.5q11 0 19 9t12 20q13 38 32.5 98.5t43.5 135.5t49 154.5t48 155t42 138.5t30 104q5 17 0.5 21t-19.5 4q-13 0 -22.5 0.5t-21 2t-33.5 2.5q-8 1 -14.5 3.5t-6.5 9.5q0 8 10.5 11.5t17.5 3.5h151q12 0 17.5 -2.5t6 -8.5 t-4.5 -19l-248 -810q-3 -11 -6.5 -26t-11 -25.5t-22.5 -10.5l-166 1q-6 0 -10 3t-4 8z" />
<glyph unicode="^" horiz-adv-x="501" d="M78 295q0 6 3 10l197 298h3l198 -298q4 -6 2.5 -13.5t-8.5 -7.5q-11 0 -23.5 5.5t-17.5 12.5l-148 212q-4 5 -5.5 5t-4.5 -5l-146 -211q-6 -9 -19 -14t-22 -5q-4 0 -6.5 3.5t-2.5 7.5z" />
<glyph unicode="_" horiz-adv-x="464" d="M-115 -170q2 5 7 14t12 16.5t15 7.5h431q5 0 7.5 -4.5t-0.5 -9.5q-8 -13 -17 -24.5t-22 -11.5h-424q-5 0 -7.5 4t-1.5 8z" />
<glyph unicode="`" horiz-adv-x="200" d="M139 628q0 8 7.5 16t17 14t14.5 6q8 0 14 -7.5t11 -17.5l75 -144q4 -7 3 -13.5t-9 -6.5q-6 0 -12 4.5t-11 10.5l-92 108q-9 11 -13.5 18.5t-4.5 11.5z" />
<glyph unicode="a" horiz-adv-x="491" d="M-6 30q0 36 24 83.5t67 100t99 101.5q54 47 88 70.5t50 23.5t28 -14q14 -18 12.5 -16.5t-0.5 1.5q2 0 3.5 1.5t2.5 4.5q14 24 17 29t0 1q6 10 12 10q9 0 18 -3t14.5 -8t5.5 -10t-7 -25l-112 -297q-4 -11 -4 -19q0 -15 17 -15q18 0 43.5 17.5t44.5 42.5q2 2 4.5 3.5 t4.5 1.5q4 0 5.5 -2.5t1.5 -8.5q0 -7 -14 -27.5t-29 -35.5q-28 -26 -56.5 -40t-52.5 -14q-10 0 -20 6t-16.5 15t-6.5 18q0 11 6 23q-4 -9 -0.5 0t12 28t18.5 40t17 37q5 11 4.5 16.5t-6.5 -1.5q-61 -68 -104.5 -108t-76.5 -57t-63 -17q-12 0 -24 6.5t-19.5 16.5t-7.5 21z M72 83q0 -15 8 -24.5t21 -9.5q22 0 65.5 36.5t98.5 101.5q38 44 60 81t22 55q0 8 -13 19q-6 5 -13 8t-12 3q-18 0 -49.5 -18t-57.5 -43q-33 -32 -63 -72t-48.5 -77t-18.5 -60z" />
<glyph unicode="b" horiz-adv-x="449" d="M51 74q0 25 6 56.5t17 64.5l126 381q5 14 7.5 27.5t2.5 26.5q0 5 -5.5 9t-19.5 8q-31 8 -31 15q0 5 3.5 8t12.5 6q11 4 28.5 9.5t35.5 10.5t32.5 8t18.5 3q16 0 16 -10q0 -9 -1.5 -15.5t-5.5 -17.5q-8 -20 -22 -59.5t-30.5 -88t-33.5 -98t-31.5 -92.5t-22.5 -69 q-4 -10 0.5 -12t11.5 7q59 78 112 120t90 42q32 0 53 -21t21 -53q0 -46 -18.5 -94.5t-50 -94t-71.5 -81.5t-82.5 -57t-83.5 -21q-39 0 -62 22.5t-23 59.5zM110 91q0 -27 15.5 -47t36.5 -20q13 0 34 14t45.5 38.5t47.5 55.5q24 32 44 70.5t31.5 74t11.5 59.5q0 17 -8.5 28.5 t-20.5 11.5q-31 0 -71 -35t-93 -107q-33 -46 -53 -85t-20 -58z" />
<glyph unicode="c" horiz-adv-x="313" d="M15 90q1 36 12 79.5t32 86.5t52.5 79t72.5 57.5t92 21.5q27 0 41 -9.5t14 -22.5q0 -16 -9.5 -32.5t-20.5 -16.5q-8 0 -13.5 7t-10.5 17q-6 11 -15 20.5t-26 9.5q-24 0 -50 -29t-48.5 -74t-36.5 -95t-14 -91q0 -33 13 -45t35 -12q32 0 51 12.5t38 30.5q7 7 10.5 10t9.5 3 q8 0 8 -13q0 -8 -12.5 -24t-34 -33.5t-49 -29.5t-57.5 -12q-18 0 -37.5 13.5t-33 37t-13.5 54.5z" />
<glyph unicode="d" horiz-adv-x="516" d="M5 58q0 38 16.5 85t45 95t64.5 89q39 44 79 68.5t72 24.5q13 0 21 -3.5t36 -21.5q21 -13 23.5 -14.5t0.5 -1.5q3 0 5 7l67 225q2 6 2.5 9.5t1 5t0.5 3v2.5q0 11 -6 17.5t-22 12.5q-22 8 -26 9.5t-4 4.5q0 7 8 11t26 7q15 2 30.5 4.5t28.5 4t22 2.5t12 1q12 0 12 -14 q0 -5 -1 -10.5t-3 -12.5l-162 -561q-2 -8 -3.5 -15.5t-1.5 -15.5q0 -22 14 -22q13 0 31 9.5t36 25.5t31 34q2 3 4 4t4 1q8 0 6 -8q0 -11 -11 -28t-29 -35.5t-38.5 -34.5t-39.5 -26t-32 -10q-11 0 -21 6.5t-16.5 17t-6.5 21.5q0 5 4 26q2 11 6 27.5t7.5 32t5 22.5t-0.5 -2 q2 8 -0.5 11.5t-5.5 -1.5q-69 -87 -121 -124t-106 -37q-29 0 -47 20t-18 52zM73 71q0 -22 7.5 -30t26.5 -8q27 0 59 19.5t63.5 52t58 71.5t42.5 78t16 72q0 29 -13 45.5t-37 16.5q-23 0 -52 -22t-59 -58t-55.5 -78.5t-41 -84.5t-15.5 -74z" />
<glyph unicode="e" horiz-adv-x="341" d="M14 89q0 50 20.5 106.5t56.5 106t83.5 81t100.5 31.5q35 0 54.5 -14.5t19.5 -40.5q0 -31 -19.5 -54t-52.5 -39.5t-73.5 -27.5t-82.5 -19q-6 -1 -9.5 -2.5t-5.5 -7.5q-7 -22 -14 -48t-7 -49q0 -35 13.5 -54t39.5 -19q36 0 61 18t41 36q10 11 18 11q10 0 10 -10v-3.5 t-2 -4.5q-20 -33 -45 -55.5t-53.5 -34t-61.5 -11.5q-21 0 -42.5 16t-35.5 40.5t-14 47.5zM121 248q0 -6 7 -6q11 0 37.5 6.5t55.5 21t49.5 36t20.5 51.5q0 13 -7 22.5t-20 9.5q-21 0 -45.5 -17.5t-46.5 -42t-36.5 -47.5t-14.5 -34z" />
<glyph unicode="f" horiz-adv-x="321" d="M-194 -240q0 15 14.5 28.5t24.5 13.5q8 0 15 -8.5t17 -19.5q9 -10 21.5 -17t30.5 -7q19 0 33 11t27.5 40t29.5 84l134 454q6 18 -14 18l-62 -1q-7 0 -10 3.5t-3 8.5q0 8 6 16.5t13 9.5l70 4q14 2 19 20l8 32q24 95 64.5 151t85 80.5t79.5 24.5q44 0 69 -19.5t25 -50.5 q0 -25 -13.5 -38t-27.5 -13q-7 0 -13 11.5t-14 27.5q-9 20 -23 30.5t-36 10.5q-28 0 -47.5 -13t-35.5 -48t-36 -101q-6 -19 -10.5 -36.5t-10.5 -37.5q-2 -7 -3.5 -11t-1.5 -9t3 -7t7 -2q30 0 57.5 1.5t52.5 1.5q7 0 7 -11q0 -4 -3.5 -11t-10 -12.5t-15.5 -5.5l-91 -1 q-10 0 -16.5 -3.5t-8.5 -12.5q-35 -113 -68 -228t-62 -228q-10 -40 -33.5 -73t-53 -57t-58 -37t-49.5 -13q-37 0 -60 12.5t-23 37.5z" />
<glyph unicode="g" horiz-adv-x="415" d="M-96 -180q0 23 31 43.5t77 38.5t91 33q8 3 2 9q-22 19 -35 32.5t-13 29.5q0 14 14.5 29.5t35.5 31.5q5 5 6.5 8t1.5 4q0 3 -8 6q-20 10 -31.5 23t-16 30.5t-4.5 39.5q0 34 15 74.5t41 77.5t61 60.5t75 23.5q21 0 30.5 -4.5t15.5 -7.5q7 -4 14 -7.5t14 -3.5q11 0 29 3.5 t37 6.5t32 3q6 0 14 -5.5t8 -17.5q0 -19 -6 -27t-12 -8q-9 0 -25 3t-30.5 6t-22.5 3q-5 0 -9.5 -3t-2.5 -11t3 -17t1 -19q0 -39 -15.5 -79.5t-41.5 -75t-58.5 -55.5t-65.5 -21q-7 0 -12.5 -3.5t-9.5 -8.5q-11 -14 -11 -29q0 -18 9.5 -30t34.5 -29q17 -11 40.5 -26.5 t46.5 -30t37 -25.5q22 -16 30.5 -29.5t8.5 -28.5q0 -26 -20.5 -49t-53.5 -40.5t-70.5 -27.5t-72.5 -10q-58 0 -105.5 13.5t-75.5 38t-28 58.5zM-27 -182q0 -22 25.5 -39.5t64.5 -28t80 -10.5q40 0 65 10t37 25.5t12 33.5q0 15 -9 31.5t-32 29.5q-8 6 -27.5 19t-30.5 18 q-18 10 -28 10q-6 0 -12.5 -1t-12.5 -3q-60 -19 -96 -41.5t-36 -53.5zM112 149q0 -19 12.5 -33.5t28.5 -14.5q18 0 36.5 18t35.5 47t30.5 61.5t21.5 62.5t8 49q0 15 -10 31t-25 16q-19 0 -38 -16t-36.5 -42.5t-31.5 -58t-22.5 -63t-9.5 -57.5z" />
<glyph unicode="h" horiz-adv-x="488" d="M39 8q0 15 3.5 30t9.5 37l141 483q5 17 10 37.5t5 30.5t-12.5 15t-24.5 9q-7 2 -12.5 4.5t-5.5 6.5t3 7.5t14 7.5q8 3 22.5 8t31 10.5t30 9t18.5 3.5t11 -1t6 -9t-1.5 -14t-3.5 -13l-136 -470q-2 -7 0.5 -7t5.5 4q44 65 91 115.5t89 79.5t72 29q33 0 50.5 -22t17.5 -51 q0 -51 -18.5 -108t-48.5 -109t-65 -89q-6 -6 -18 -15.5t-28 -18.5t-32.5 -15.5t-30.5 -6.5q-7 0 -16.5 6t-16 15t-6.5 16q0 5 4 12t10 12t12 5q9 0 15.5 -3.5t11.5 -8.5q6 -5 12 -9t14 -4q17 0 36 20t36.5 53t31.5 72.5t22.5 79.5t8.5 74q0 23 -9.5 35.5t-28.5 12.5 q-22 0 -49.5 -21.5t-57 -56.5t-57.5 -75t-51 -78t-37 -65l-37.5 -72t-24.5 -24q-5 0 -9 4t-6 10t-2 12z" />
<glyph unicode="i" horiz-adv-x="294" d="M27 20q0 4 0.5 8t2.5 8q41 83 69 156.5t50 128.5q4 12 -5 12q-5 0 -19.5 -5.5t-30.5 -14.5t-28 -18q-5 -4 -10 -2t-5 7t7.5 14.5t21 21.5t32.5 25.5t41.5 27t47.5 24.5q9 4 18 -2t14.5 -15t3.5 -14l-122 -289q-4 -8 -5.5 -15.5t-1.5 -13.5q0 -7 5.5 -9.5t10.5 -2.5 q14 0 32 13.5t38.5 33t39.5 38.5q2 2 4 2t4 -1.5t2 -3.5q0 -16 -19 -40.5t-47.5 -49t-58.5 -41.5t-53 -17q-17 0 -28 11t-11 23zM233 552q0 24 16 42.5t40 18.5q16 0 25 -13.5t9 -29.5q0 -22 -16 -39.5t-39 -17.5q-15 0 -25 12t-10 27z" />
<glyph unicode="j" horiz-adv-x="259" d="M-200 -247q0 9 6 18t15 15.5t18 6.5t16.5 -6t14.5 -14q8 -8 19 -15t28 -7q27 0 44.5 27.5t31.5 70.5l143 439q5 17 3 25t-11 8q-8 0 -25 -7.5t-40 -18.5q-3 -1 -8.5 0.5t-5.5 5.5t2 7t7 8q22 20 40 33.5t35 23.5t35 19.5t40 21.5q12 4 23.5 -7t7.5 -21 q-10 -27 -19.5 -54.5t-19.5 -56.5l-133 -403q-9 -28 -31 -56.5t-50 -52.5t-56.5 -38.5t-51.5 -14.5q-35 0 -56.5 14.5t-21.5 28.5zM213 552q0 24 16 42.5t40 18.5q16 0 25 -13.5t9 -29.5q0 -22 -16 -39.5t-39 -17.5q-15 0 -25 12t-10 27z" />
<glyph unicode="k" horiz-adv-x="455" d="M16 7q0 5 2 16t6 26l167 518q6 19 8 32t2 25t-22 20q-10 4 -18 7.5t-8 6.5q0 4 1.5 7t4.5 4q11 6 27.5 12t34 12t31.5 9.5t20 3.5q5 0 10.5 -1t5.5 -9t-0.5 -12t-2.5 -11l-135 -411q-4 -11 0.5 -10t8.5 6q34 48 72.5 83t77.5 54.5t72 19.5q20 0 39.5 -11t19.5 -34 q0 -26 -22 -55t-54.5 -55t-67 -45.5t-60.5 -26.5q-9 -2 -5 -11l46 -109q5 -10 13.5 -19.5t19.5 -9.5q19 0 38 18t32 40q5 9 8.5 11t7.5 2q2 0 4 -4t2 -8q0 -16 -13 -36t-32 -39t-37.5 -31.5t-30.5 -12.5q-24 0 -38 12.5t-25 36.5l-38 106q-6 17 -17.5 30.5t-28.5 13.5 q-7 0 -14.5 -15.5t-12.5 -26.5q-3 -7 -9.5 -23.5t-14.5 -36.5t-14 -36.5t-9 -23.5q-6 -16 -10 -23.5t-16 -7.5q-7 0 -16.5 6.5t-9.5 15.5zM172 220q0 -6 3 -11.5t9 -5.5q31 0 63.5 15t60.5 37t45 45.5t17 39.5q0 15 -9 23.5t-27 8.5q-21 0 -48.5 -19t-53.5 -46.5t-43 -51.5 t-17 -35z" />
<glyph unicode="l" horiz-adv-x="286" d="M11 30q0 6 2 12l190 541q5 14 7.5 27t2.5 26q0 9 -9.5 17t-23.5 11q-10 2 -16 5.5t-6 7.5q0 3 0.5 5t2 4t3.5 2q19 5 46 9.5t50.5 8t31.5 3.5q5 0 8.5 -3.5t3.5 -11.5q0 -6 -2 -13.5t-4 -14.5l-202 -576q-3 -8 -4 -15.5t-1 -13.5q0 -16 10 -16q14 0 34.5 15.5t40.5 37.5 t32 39q6 8 14 15.5t12 7.5t4.5 -3.5t0.5 -9.5q0 -20 -13.5 -42t-35.5 -43.5t-47 -38.5t-48 -27t-39 -10q-13 0 -29 14t-16 30z" />
<glyph unicode="m" horiz-adv-x="789" d="M57 13q0 5 6.5 24t16.5 47l92 241q5 13 0 22t-17 9q-15 0 -31.5 -7t-40.5 -39q-4 -4 -8.5 -3.5t-6.5 7.5q0 6 2 15.5t6.5 19.5t8.5 15q17 21 41 35t58 15q14 0 28 -4q14 -5 20 -17q3 -5 2 -13q0 -9 -4 -20l-57 -148q-3 -7 1.5 -8t7.5 4q43 66 82.5 112t76 70t68.5 24 q19 0 35 -11q14 -11 20 -33q2 -7 2 -15q0 -17 -7 -38l-36 -105q-3 -7 1.5 -8t7.5 4q42 69 82.5 114.5t78.5 68.5t70 23q19 0 34 -12t19 -36l2 -12q0 -20 -11 -46l-86 -222q-6 -15 -6 -24q0 -12 11 -12q12 0 29 11t34.5 26t30.5 27.5t17 16.5q1 1 1.5 1h1.5q3 0 5.5 -2.5 t2.5 -6.5q0 -8 -3.5 -16.5t-14.5 -19.5q-33 -37 -74 -69t-88 -32q-8 0 -16.5 6.5t-13 17.5t-0.5 22l116 299q4 10 4 17q0 8 -4 13q-8 10 -20 11h-2q-16 0 -41 -16q-27 -18 -60 -59q-15 -19 -41.5 -57t-54 -81.5t-47.5 -80.5q-17 -32 -32 -53t-27 -31.5t-20 -10.5 q-5 0 -9 4.5t-6.5 10.5t-2.5 12q0 5 6.5 25.5t16.5 48.5l93 250q4 10 4 18q0 10 -6 14q-11 8 -18 9h-3q-15 -1 -40 -17q-27 -18 -60 -59q-12 -14 -30 -40t-38.5 -57.5t-40 -64t-34.5 -59.5q-26 -48 -40 -71.5t-26 -23.5q-5 0 -9 5t-6.5 12t-2.5 13z" />
<glyph unicode="n" horiz-adv-x="527" d="M36.5 14q-1.5 8 1.5 14l116 284q10 23 10 34q0 10 -8 10q-10 0 -21 -2.5t-24 -12.5t-29 -31q-4 -4 -8.5 -3.5t-6.5 7.5q0 6 3.5 15.5t8.5 19t9 15.5q15 23 40.5 36t59.5 14q11 0 20 -5.5t13.5 -15.5t-0.5 -22l-66 -170q-3 -7 1.5 -8t7.5 4q41 70 83.5 118.5t81.5 73.5 t69 25q21 0 36 -14q16 -16 20 -40q1 -6 1 -12q0 -20 -10 -44l-92 -218q-6 -15 -6 -24q0 -12 11 -12q12 0 29.5 9t35.5 21.5t31.5 23t17.5 14.5q1 1 1.5 1h1.5q3 0 5.5 -2.5t2.5 -6.5q0 -8 -4 -14q-26 -31 -55.5 -56t-61 -39.5t-63.5 -14.5q-9 0 -18 6.5t-13.5 16.5t0.5 21 q29 67 58.5 133.5t55.5 133.5q12 31 12 48q0 5 -1 9q-5 16 -19 18q-11 1 -26 -7.5t-34 -26t-41 -44.5q-12 -14 -32 -43.5t-45 -68t-51.5 -82t-50.5 -85.5q-9 -16 -16 -23.5t-15 -7.5q-6 0 -11.5 4.5t-9.5 11t-5.5 14.5z" />
<glyph unicode="o" horiz-adv-x="380" d="M17 99q0 47 18.5 101.5t51.5 103t76.5 79.5t93.5 31t77.5 -34t27.5 -84q0 -45 -18 -98.5t-51.5 -101.5t-80 -79t-104.5 -31q-24 0 -45 16t-33.5 42t-12.5 55zM81 78q0 -33 11.5 -47.5t31.5 -14.5q24 0 48.5 21t47 55t40 75t28 82t10.5 75q0 26 -8.5 43t-34.5 17 q-23 0 -47.5 -19t-47 -51t-40.5 -71.5t-28.5 -82t-10.5 -82.5z" />
<glyph unicode="p" horiz-adv-x="439" d="M-123 -277q0 8 10.5 13.5t19.5 6.5q21 4 33 11t19 26l193 539q5 14 6 21t-3 9.5t-14 0.5q-24 -4 -41.5 -8.5t-38.5 -14.5q-8 -4 -14.5 -1.5t-6.5 8.5q0 8 4.5 13t10.5 8q16 8 46 22t70 24q7 2 11.5 5.5t6.5 10.5q14 47 26 68t34 21q8 0 14 -5t4 -14l-17 -58 q-3 -10 -1 -14.5t6 -3.5q13 2 23.5 3t20.5 1q50 0 78.5 -16.5t40 -45t11.5 -63.5q0 -48 -22 -100.5t-59.5 -99t-84 -75.5t-96.5 -29q-9 0 -20 6t-21 12q-9 6 -14.5 3.5t-12.5 -21.5l-66 -195q-3 -8 -3 -14q0 -11 8 -17q11 -11 36 -13q10 -1 20 -4t10 -11q0 -6 -9 -8.5 t-20 -2.5q-15 0 -31 0.5t-29.5 0.5t-22.5 -1q-25 -3 -48.5 -5t-50.5 -2q-5 0 -10.5 2t-5.5 7zM142.5 72.5q-0.5 -15.5 3.5 -26.5q5 -13 14.5 -19.5t25.5 -6.5q23 0 52 25.5t55.5 65.5t44 85t17.5 85q0 56 -20 76t-56 21h-18t-20 -2l-92 -270q-6 -18 -6.5 -33.5z" />
<glyph unicode="q" horiz-adv-x="473" d="M1 47q0 42 20 92t53.5 100t73.5 92q39 41 86 65t84 24q23 0 36.5 -8t20.5 -18q8 -8 12 -15t9 -7q11 0 19 16l9 19q5 12 12.5 16.5t14.5 4.5q6 0 8 -9.5t-5 -28.5l-195 -589q-3 -11 -3 -19t3 -14q7 -12 26 -14q10 -1 20 -4t10 -11q0 -6 -9 -8.5t-20 -2.5q-33 0 -68.5 -2.5 t-64.5 -5.5t-43 -6q-5 -1 -12.5 1t-7.5 8q0 8 10.5 13.5t19.5 6.5q21 3 38.5 15t24.5 31q20 54 40 107t40.5 106.5t40.5 107.5q5 11 0.5 17.5t-16.5 -7.5q-37 -41 -73 -71.5t-72 -46.5t-72 -16q-32 0 -51 17.5t-19 43.5zM71 61q0 -20 5.5 -29.5t19.5 -9.5q20 0 47 15.5 t55.5 40t53.5 54t41 56.5q22 38 38.5 78t16.5 71q0 13 -4.5 24.5t-13 18.5t-21.5 7q-19 0 -48.5 -22.5t-62.5 -59t-62 -80t-47 -86.5t-18 -78z" />
<glyph unicode="r" horiz-adv-x="379" d="M35 7q0 12 6.5 30.5t16.5 46.5l92 240q5 13 4.5 24t-10.5 11q-14 0 -27.5 -3.5t-20.5 -7.5q-6 -4 -11.5 -1.5t-5.5 9.5q0 8 7.5 18t20.5 19q12 9 28.5 15t34.5 6q28 0 36 -14q4 -8 3 -19q1 -9 -1 -19q-6 -24 -18 -53l-45 -113q-4 -7 2.5 -9t9.5 3q40 69 80.5 120.5 t75.5 80t58 28.5q26 0 36.5 -15t10.5 -35q0 -18 -6.5 -37t-18 -31.5t-25.5 -12.5q-8 0 -12 9.5t-4 25.5q0 15 -4 23.5t-15 8.5q-10 0 -26.5 -13t-41.5 -45q-11 -15 -29 -41t-38.5 -57.5t-40.5 -64t-35 -59.5q-27 -48 -38.5 -70t-23.5 -22q-5 0 -11 3.5t-10 9t-4 11.5z" />
<glyph unicode="s" horiz-adv-x="276" d="M-28 30q0 23 10.5 34.5t17.5 11.5t14.5 -5.5t16.5 -13.5q11 -8 24.5 -15.5t35.5 -7.5q27 0 43 19.5t17 41.5q0 22 -7.5 47.5t-21.5 50.5q-13 24 -21.5 45.5t-8.5 36.5q0 29 15.5 54.5t38 44.5t44.5 29.5t35 10.5t26 -7.5t21.5 -17t8.5 -16.5q0 -6 -6 -14.5t-14 -15.5 t-14 -7q-5 0 -10 5l-11 11t-14.5 11t-22.5 5q-16 0 -28 -13.5t-12 -35.5q0 -8 5.5 -25t13 -35t14.5 -32q11 -20 20.5 -50.5t9.5 -53.5q0 -30 -17.5 -55t-45.5 -43.5t-60.5 -28.5t-62.5 -10q-22 0 -38 12.5t-16 31.5z" />
<glyph unicode="t" horiz-adv-x="292" d="M23 23q0 17 4.5 29t9.5 27l95 267q2 7 -1.5 9.5t-8.5 2.5l-40 2q-13 1 -15.5 5.5t-2.5 8.5q0 2 5 7.5t12.5 11t16.5 5.5h36q11 0 15 3.5t9 14.5l24 49q4 8 15 18.5t22.5 18.5t16.5 8q8 0 10 -11t-2 -21l-26 -67q-2 -7 1.5 -9t11.5 -2q20 0 41 -3t34 -5q16 -3 19.5 -6.5 t3.5 -8.5q0 -2 -4 -6.5t-15 -5.5q-22 -1 -42 -2.5t-42 -2.5q-16 -1 -22.5 -5t-8.5 -10l-89 -246q-4 -12 -4 -21t5.5 -14t16.5 -5q14 0 30 10t31 23t25 23q11 11 19 10t8 -7q0 -7 -5 -15.5t-13 -17.5q-16 -17 -33.5 -32t-36 -27.5t-35 -21t-29.5 -13.5t-21 -5t-18 6.5 t-16.5 15t-6.5 15.5z" />
<glyph unicode="u" horiz-adv-x="509" d="M24 39l105 253q7 17 9 29t-6 12q-5 0 -16.5 -8t-26 -20t-29.5 -25q-2 -2 -7.5 -1t-5.5 4q0 4 2 11.5t10 18.5q25 34 55.5 57t58 35.5t41.5 12.5q5 0 11.5 -5.5t10.5 -13t0 -14.5q-33 -68 -63 -138t-60 -138q-9 -20 -11 -37t8 -17t30 17t45.5 44t53.5 58q38 43 73.5 89 t61.5 83t34 52q5 10 12 13t13 3t12 -6t9.5 -14t0.5 -14l-128 -294q-8 -19 -7 -29t10 -10q13 0 34 14t43 32.5t37 33.5q1 1 3 1q3 0 6 -2.5t3 -6.5q0 -2 -1 -4l-2.5 -5t-4 -7t-6 -8.5t-8.5 -10.5q-19 -24 -44 -46.5t-53.5 -37t-60.5 -14.5q-14 0 -24 17q-7 11 -6 20q0 5 2 10 q14 30 30 64t28.5 63t17.5 43q5 12 -1 13t-11 -5q-52 -57 -92 -99.5t-69.5 -70t-50 -41.5t-33.5 -14q-11 0 -22.5 9.5t-17.5 22.5t-3 21z" />
<glyph unicode="v" horiz-adv-x="410" d="M47 283q0 6 2.5 13t9.5 17q18 25 36.5 44.5t35.5 33t31.5 20.5t25.5 7q8 0 15 -6t10.5 -14.5t0.5 -18.5l-90 -260q-6 -20 -6 -35q0 -11 3 -20q8 -21 33 -21q36 0 70.5 20.5t61.5 55t43 76.5t16 85q0 17 -6.5 34t-17.5 30q-7 8 -9.5 16t-2.5 17t9 18.5t22.5 16t27.5 6.5 q11 0 20 -17t9 -52q0 -44 -9.5 -87t-30 -84.5t-55.5 -81.5q-47 -55 -94.5 -82.5t-88.5 -27.5q-23 0 -40 20t-23 50q-2 10 -1 20q0 20 7 39l65 173q8 20 9 32.5t-11 12.5q-7 0 -24.5 -15t-33.5 -32q-5 -6 -8 -7t-5 -1q-7 0 -7 5z" />
<glyph unicode="w" horiz-adv-x="623" d="M50 293q0 4 1.5 9.5t10.5 16.5q19 23 39.5 41t40 31t36 20t27.5 7q6 0 11.5 -4.5t8.5 -12.5t-1 -20l-91 -261q-7 -20 -7 -36q0 -12 3 -20q8 -22 33 -21q19 0 42.5 17.5t45.5 43t37 48.5t17 34q2 10 6.5 30.5t9.5 44.5t9.5 44.5t6.5 29.5q3 14 9 25t14 16q12 8 24.5 14.5 t32.5 6.5q7 0 8.5 -13.5t-1 -31t-7.5 -30.5q-13 -35 -23 -62t-18 -46q-7 -17 -13 -38.5t-8 -32.5q-4 -25 -4 -44q0 -17 3 -30q6 -28 31 -28q28 0 58 23t55.5 60t41.5 80t16 84q0 12 -4 22t-9 19q-7 11 -13.5 20t-6.5 16q0 11 11.5 23.5t26.5 22t25 9.5q11 0 20 -18t9 -53 q0 -44 -12.5 -88.5t-37.5 -89.5t-64 -91q-40 -47 -79 -70.5t-74 -23.5q-25 0 -39 22q-16 22 -18 55q-1 9 0 17q0 24 5 49l9 4q-24 -38 -58.5 -71.5t-67 -54.5t-51.5 -21q-25 0 -43 18q-18 17 -20 52v9q0 32 16 76l60 163q5 14 3 21t-10 7q-5 0 -23.5 -9.5t-34.5 -27.5 q-4 -5 -9 -7t-7 -2q-9 0 -9 7z" />
<glyph unicode="x" horiz-adv-x="438" d="M-17 24q0 12 7.5 26.5t18.5 25.5t19 11t11.5 -5.5t4.5 -12.5q3 -12 8 -17.5t11 -5.5q7 -1 14 2.5t13 9.5q20 21 35.5 38.5t31.5 36.5t37 43q4 4 4.5 9t-1.5 9l-38 140q-3 11 -6 14t-9 3q-7 0 -22 -12.5t-34 -39.5q-2 -3 -6 -9.5t-11 -6.5q-4 0 -5.5 5t-1.5 12 q0 15 10.5 34t26.5 37.5t35 30.5t35 12t25.5 -12.5t16.5 -38.5l25 -106q3 -16 14 -2l70 100q15 21 39 40t51 19q20 0 35 -15.5t16 -27.5q1 -7 -6 -20.5t-16.5 -24t-18.5 -10.5q-6 0 -10.5 5t-7.5 12q-5 14 -10 18.5t-12 4.5q-12 0 -26 -10.5t-31 -31.5q-14 -16 -30.5 -36.5 t-35.5 -49.5q-4 -6 -5 -14t3 -21l34 -123q4 -13 10 -18.5t11 -5.5q14 0 32.5 21.5t33.5 58.5q6 14 13 14q4 0 6.5 -3.5t2.5 -18.5q0 -14 -8 -36t-22 -44t-33 -37t-41 -15q-28 0 -41 17t-22 50q-5 21 -11 45.5t-11 45.5q-3 12 -6.5 13t-9.5 -7q-24 -30 -48 -62t-49 -61 q-21 -25 -38.5 -33t-35.5 -8q-15 0 -28 9.5t-13 28.5z" />
<glyph unicode="y" horiz-adv-x="405" d="M-99 -248q0 14 6 25t15 18t18 7q10 0 17 -5.5t14 -11.5t14 -10.5t16 -4.5q35 0 73.5 44.5t71.5 111.5q23 47 30.5 103.5t7.5 124.5q0 74 -10.5 118t-24 63.5t-23.5 19.5t-21.5 -11.5t-21 -26.5t-13.5 -27q-1 -5 -7 -17t-12 -12q-4 0 -6.5 8.5t-2.5 19.5q0 23 9.5 45 t25 40t33.5 29t35 11q24 0 40.5 -17t26.5 -49q14 -43 25 -106q8 -44 8 -105q0 -28 -2 -59q-1 -18 3.5 -17t11.5 14q33 63 59.5 146t26.5 183q0 5 7.5 12t11.5 7t12 -5.5t14.5 -15.5t6.5 -22q0 -62 -31 -146t-87 -178t-130 -186q-35 -43 -71 -79.5t-69.5 -58.5t-61.5 -22 q-15 0 -30 10.5t-15 31.5z" />
<glyph unicode="z" horiz-adv-x="407" d="M1 6q-1 11 4.5 25.5t19.5 27.5l288 279l23 8q-10 -14 -18 -20.5t-21 -6.5q-15 0 -30.5 6.5t-32.5 14.5q-19 10 -40 18t-45 8q-18 0 -33 -14.5t-15 -29.5q0 -7 2 -17t8 -19q6 -10 0 -18q-7 -7 -21.5 -14.5t-19.5 -7.5t-13 9t-8 25q0 27 13 46.5t37 41.5q12 11 30 21.5 t36 17.5t29 7q17 0 33.5 -5t32.5 -11q18 -7 34 -13t29 -6q15 0 24.5 5t20.5 16q5 5 14 11.5t16 6.5q3 0 6 -3.5t3 -8.5q0 -7 -9 -21.5t-23 -28.5l-285 -281l-15 7q12 11 20.5 13.5t20.5 2.5q23 0 42 -13t38 -29q17 -14 33.5 -26t33.5 -12q23 0 33 14.5t13 37t3 44.5 q0 18 3 23.5t12 5.5q11 0 22 -13.5t11 -37.5q0 -21 -15 -43t-37 -41t-43.5 -30.5t-35.5 -11.5q-25 0 -46 16t-40 34q-15 14 -27.5 25t-22.5 11q-30 0 -46.5 -17.5t-16.5 -40.5q0 -10 -5.5 -12t-9.5 -2q-3 0 -8 8t-6 18z" />
<glyph unicode="{" horiz-adv-x="352" d="M42 -81.5q-9 25.5 2 60.5t22.5 63.5t23 56t20.5 58.5q14 44 -3 72.5t-50 43.5q-3 2 -5.5 3.5t-1.5 5.5q2 5 5 5t7 1q28 10 53 26t43.5 38.5t27.5 51.5q14 47 20 86.5t22 91.5q11 35 35.5 60.5t57 41.5t68 23.5t68.5 7.5q6 0 10 -4t2 -11q-2 -8 -11 -10t-17 -2 q-45 0 -82 -23t-54 -78q-10 -34 -16 -62.5t-11 -55t-14 -55.5q-15 -49 -56 -83.5t-99 -47.5q-4 -2 0 -4q45 -11 67 -46t7 -86q-9 -29 -20 -55.5t-22.5 -55t-22.5 -62.5q-16 -54 7 -77.5t67 -23.5q8 0 15 -2t5 -10q-2 -7 -8.5 -11t-12.5 -4q-33 0 -64 7.5t-53.5 23.5 t-31.5 41.5z" />
<glyph unicode="|" horiz-adv-x="260" d="M101 -275v951q0 8 6 14t14.5 9.5t16 5.5t9.5 2q5 0 9.5 -4t4.5 -9v-959q0 -8 -6 -12.5t-14.5 -7t-16.5 -3.5t-11 -1q-4 0 -8 4.5t-4 9.5z" />
<glyph unicode="}" horiz-adv-x="352" d="M-67 -138q2 8 11.5 10t16.5 2q45 0 82.5 23t53.5 78q11 34 16.5 62.5t10.5 55t14 55.5q15 50 56 84t99 47q4 2 0 4q-45 11 -67 46t-7 86q9 29 20 55.5t23 55t22 62.5q17 54 -6.5 77.5t-67.5 23.5q-7 0 -14.5 2t-5.5 10q2 7 8.5 11t12.5 4q33 0 64 -7.5t53.5 -23.5 t31.5 -41.5t-2 -60.5q-10 -35 -22 -63.5t-23 -56t-21 -58.5q-13 -43 3.5 -72t49.5 -44q3 -1 6 -2.5t1 -6.5q-1 -4 -4.5 -4t-7.5 -2q-28 -10 -53 -26t-43.5 -38.5t-27.5 -51.5q-14 -46 -20 -85.5t-22 -92.5q-11 -35 -35.5 -60.5t-57 -41.5t-68 -23.5t-68.5 -7.5q-6 0 -10 4 t-2 11z" />
<glyph unicode="~" horiz-adv-x="500" d="M87 276q8 15 21.5 33t31.5 34.5t36.5 27t35.5 10.5q20 0 40.5 -8.5t42.5 -19.5q18 -8 37.5 -14t41.5 -6q21 0 37.5 8t29.5 18q12 9 20.5 16t15.5 7q4 0 8 -8t2 -12q-5 -10 -18.5 -27t-31 -34t-37.5 -29t-38 -12q-17 0 -37 7.5t-41 15.5q-22 9 -45 17t-44 8 q-11 0 -30 -8.5t-37 -20.5t-26 -21q-4 -4 -10.5 5t-4.5 13z" />
<glyph unicode="&#xa1;" horiz-adv-x="287" d="M1 -130.5q-1 17.5 5 36.5q5 15 19 52t34 85.5t41 99.5t38 93q7 17 15 28t15 11q8 0 9.5 -8.5t-3.5 -30.5q-9 -43 -20.5 -93.5t-23 -99t-20.5 -85.5t-13 -52q-6 -22 -17 -39t-23.5 -26.5t-25.5 -9.5t-21 10.5t-9 28zM155 426q0 29 21.5 48.5t50.5 19.5q21 0 35 -16t14 -36 q0 -28 -21 -48t-51 -20q-21 0 -35 16t-14 36z" />
<glyph unicode="&#xa2;" horiz-adv-x="395" d="M22 128q0 47 20.5 96.5t57.5 92t89 69t115 26.5l20 50q3 8 12.5 12.5t17.5 4.5q6 0 7.5 -5.5t-0.5 -11.5l-20 -49q23 -1 45.5 -9.5t37 -22t10.5 -28.5q-1 -7 -10 -15t-20 -13.5t-18 -5.5t-12 3t-6 7q-4 19 -13.5 32t-27.5 18l-137 -333q4 -1 7.5 -1h7.5q32 0 66 7.5 t62 35.5q5 5 11 5t9 -5t-2 -11q-42 -46 -86.5 -67.5t-99.5 -23.5l-21 -51q-3 -7 -11.5 -11t-15.5 -4t-10.5 4t-0.5 11l23 53q-52 17 -79.5 54t-27.5 86zM98 153q0 -34 13.5 -61t43.5 -39l137 331q-39 0 -73.5 -20t-62 -53t-43 -74.5t-15.5 -83.5z" />
<glyph unicode="&#xa3;" horiz-adv-x="499" d="M-65 17q0 17 18.5 35t47.5 29.5t62 10.5q30 31 50.5 73.5t37 92.5t33.5 100q34 99 80 158.5t99 86t107 26.5q38 0 60.5 -14t31.5 -34.5t4 -41t-21.5 -34.5t-43.5 -14q-5 0 -7.5 2t-2.5 6t7 17.5t7 36.5q0 20 -13 33.5t-37 13.5q-36 0 -61 -21t-44 -57.5t-37 -83.5 t-40 -99q-18 -40 -40 -82t-52 -81t-71 -74q-3 -1 -3.5 -5t4.5 -4q40 -1 65.5 -12t45.5 -24q23 -13 46 -24t59 -11q32 0 57 20t25 49q0 13 -2 20t-2 17q0 13 7.5 19.5t15.5 6.5q14 0 21 -8t7 -23q0 -28 -13 -56.5t-38.5 -52t-62 -37.5t-83.5 -14q-42 0 -71 16.5t-52 35.5 q-19 16 -37 28t-39 12q-24 -15 -40.5 -32t-30.5 -33q-6 -7 -19 -5t-24 11t-11 21zM75 305q0 7 7 16t17 10l296 20q5 0 10 -4.5t3 -9.5q-5 -10 -12.5 -17t-18.5 -7l-288 -20q-5 0 -9.5 4t-4.5 8z" />
<glyph unicode="&#xa4;" horiz-adv-x="488" d="M7 99q2 6 6 9l68 51l30 -40l-69 -52q-2 -1 -4.5 -1h-4.5q-8 0 -18 11.5t-8 21.5zM67 219q0 41 17 83.5t50 78t80.5 57t108.5 21.5q49 0 80 -20.5t46.5 -53t15.5 -69.5q0 -41 -17 -83.5t-50 -78t-80.5 -57t-108.5 -21.5q-48 0 -79.5 20.5t-47 53t-15.5 69.5zM116 445 q0 10 13 19t22 7q5 -1 8 -4l45 -63l-39 -31l-47 65q-2 2 -2 7zM119 232q0 -41 25.5 -73.5t79.5 -32.5q45 0 80 16t59.5 42t37 57.5t12.5 61.5q0 41 -25.5 73.5t-79.5 32.5q-45 0 -80 -16t-59.5 -42t-37 -57.5t-12.5 -61.5zM327 135l39 31l47 -65q2 -1 2 -3v-4q0 -10 -13 -19 t-22 -7q-5 1 -8 4zM420 420l69 52q2 2 4.5 1.5t4.5 -0.5q8 0 18 -11t8 -22q-1 -6 -6 -9l-68 -51z" />
<glyph unicode="&#xa5;" horiz-adv-x="560" d="M95 6q2 7 10.5 11t25.5 7q37 7 62 27.5t36 56.5l28 89h-117q-5 0 -7.5 4t-1.5 8q2 7 11 15t18 8h108l7 24q2 7 3.5 13t2.5 11h-116q-5 0 -7.5 4t-1.5 8q2 7 11 15t18 8h99q-1 5 -1.5 8.5t-2.5 6.5l-60 227q-7 29 -18.5 43t-38.5 20q-13 3 -19.5 9t-4.5 13q2 6 10 8.5 t20 2.5q21 0 52.5 -1.5t63.5 -1.5q22 0 37 1t30 1q12 0 19 -2.5t5 -8.5q-2 -7 -11 -11t-26 -9q-12 -4 -26.5 -17.5t-7.5 -43.5l42 -165q5 -19 8 -29t8 -10t14 10t26 29q14 16 34 39.5t41.5 50t38.5 49.5q28 38 29.5 57.5t-24.5 28.5q-9 3 -18 8t-7 12q2 6 10.5 8.5t20.5 2.5 q21 0 38 -0.5t37 -0.5q26 0 50 1.5t40 1.5q12 0 19 -2.5t5 -8.5q-2 -7 -11 -11.5t-26 -8.5q-17 -3 -40 -20.5t-45 -38.5t-37 -37q-50 -55 -93 -104.5t-66 -75.5q-8 -9 -15.5 -17t-11.5 -14h114q5 0 8.5 -4.5t-0.5 -9.5q-7 -10 -16 -15.5t-20 -5.5h-101l-15 -48h118 q5 0 8 -4.5t-1 -9.5q-7 -10 -15.5 -15.5t-19.5 -5.5h-100l-28 -89q-10 -34 2 -55.5t45 -28.5q15 -3 21 -7t4 -11q-1 -6 -9.5 -8.5t-20.5 -2.5q-25 0 -40.5 1.5t-30 2.5t-36.5 1q-23 0 -41 -1t-36.5 -2.5t-43.5 -1.5q-12 0 -18 2.5t-5 8.5z" />
<glyph unicode="&#xa6;" horiz-adv-x="260" d="M101 156q0 4 6 8t14.5 7.5t16 5.5t9.5 2q5 0 9.5 -7t4.5 -15v-423q0 -8 -6 -12.5t-14.5 -7t-16.5 -3.5t-11 -1q-4 0 -8 4.5t-4 9.5v432zM101 299v375q0 8 6 14t14.5 9.5t16 5.5t9.5 2q5 0 9.5 -4t4.5 -9v-395q0 -4 -6 -7.5t-14.5 -6.5t-16.5 -5t-11 -2q-4 0 -8 8t-4 15z " />
<glyph unicode="&#xa7;" horiz-adv-x="380" d="M-16 -124q0 13 9.5 27t21 24.5t18.5 10.5q5 -1 12 -8t16 -14q8 -6 19 -8t22 -2q22 0 39 17.5t27.5 42t10.5 44.5q1 33 -19.5 69t-40.5 70q-19 31 -30.5 61t-11.5 59q0 43 17.5 86.5t46.5 84.5t63 73q16 29 43 58.5t59.5 49t65.5 19.5q17 0 32 -4.5t24.5 -12t9.5 -16.5 q0 -5 -9.5 -17.5t-21.5 -23t-20 -10.5q-5 0 -11 7.5t-14 15.5q-7 7 -14.5 12t-17.5 5q-20 0 -38.5 -12t-29.5 -31.5t-11 -40.5q0 -27 15 -60.5t39 -66.5q25 -33 35.5 -64.5t10.5 -63.5q0 -76 -33 -142.5t-83 -125.5q-28 -33 -62 -64.5t-69.5 -52t-70.5 -20.5q-21 0 -35 7 t-14 17zM139 323q-1 -31 9 -59t29 -60q13 -21 28.5 -48t27.5 -54.5t12 -50.5q0 -4 4 -3.5t5 3.5q11 20 19 36.5t14 36.5q16 52 8 93.5t-36 87.5q-13 22 -28.5 48.5t-27 54t-12.5 50.5q0 4 -3.5 3.5t-5.5 -3.5q-19 -34 -31 -67t-12 -68z" />
<glyph unicode="&#xa8;" horiz-adv-x="300" d="M131 552q0 16 7.5 30t20 22.5t28.5 8.5t25 -13.5t9 -29.5q0 -22 -16 -39.5t-39 -17.5q-15 0 -25 12t-10 27zM302 552q0 16 7.5 30t20 22.5t28.5 8.5t25 -13.5t9 -29.5q0 -22 -16 -39.5t-39 -17.5q-15 0 -25 12t-10 27z" />
<glyph unicode="&#xa9;" horiz-adv-x="665" d="M69 327q0 63 23.5 117.5t65.5 96.5t96.5 65.5t117.5 23.5t117.5 -23.5t96.5 -65.5t65.5 -96.5t23.5 -117.5t-23.5 -117.5t-65.5 -96.5t-97 -65.5t-118 -23.5t-117.5 23.5t-96 65.5t-65 96.5t-23.5 117.5zM109 327q0 -55 20 -103.5t56 -86t83.5 -58.5t102.5 -21t103 21 t84 58.5t56.5 86t20.5 103.5q0 54 -20.5 102t-56.5 84t-84 56.5t-102 20.5t-102 -20.5t-84 -56.5t-56.5 -84t-20.5 -102zM214 328q0 50 27.5 87t71.5 58t93 21q18 0 40.5 -4t39.5 -9q8 -2 11 -3.5t5 -9.5q3 -12 3 -30.5t-1 -28.5q0 -3 -3 -7.5t-7 -3.5q-4 0 -7 4.5t-5 10.5 q-4 11 -10.5 19.5t-17.5 15.5q-11 8 -25.5 12t-31.5 4q-51 0 -82 -39t-31 -94q0 -36 13.5 -70t39.5 -55.5t65 -21.5q28 0 51 8.5t35 32.5q4 8 9 11.5t8 3.5q5 0 5 -13q0 -7 -4.5 -20.5t-10.5 -22.5t-6 -10.5t-11 -6.5q-16 -7 -41.5 -10t-51.5 -3q-47 0 -86 25t-62 65t-23 84 z" />
<glyph unicode="&#xaa;" horiz-adv-x="293" d="M35 172q0 7 10 15.5t18 8.5h180q5 0 6 -3.5t1 -10.5q0 -8 -12 -14.5t-22 -6.5h-172q-4 0 -6.5 3.5t-2.5 7.5zM75 318q0 26 13 40t38 22l88 28q14 5 17.5 8.5t7.5 15.5l7 23q5 20 -3.5 30.5t-22.5 10.5q-12 0 -25.5 -5t-18.5 -12q-4 -5 -5.5 -14.5t-3.5 -15.5 q-1 -4 -6 -7.5t-11 -6t-13.5 -4t-15.5 -1.5q-5 0 -7 5t-1 9q4 12 14.5 24t26.5 20q15 8 32.5 16.5t35.5 14t35 5.5q21 0 34 -16t6 -37l-41 -124q-6 -18 -4 -28.5t13 -10.5q7 0 9.5 2t5.5 4q6 4 9 4q4 0 6 -5t2 -10q0 -1 -4 -5t-10 -9q-9 -7 -22 -14t-24 -7q-18 0 -24.5 7 t-7 15.5t-0.5 11.5h-4q-13 -10 -31 -22t-47 -12q-19 0 -33.5 17t-14.5 33zM124 331q0 -11 10 -19.5t18 -8.5q13 0 23.5 4.5t20.5 10.5q5 3 7.5 7.5t6.5 15.5l14 42q3 8 -2 10.5t-10 0.5q-43 -13 -65.5 -27t-22.5 -36z" />
<glyph unicode="&#xab;" horiz-adv-x="620" d="M59 196q0 5 4 8.5t7 4.5q46 24 100.5 52.5t106 57.5t87.5 52q5 4 11.5 7t16.5 3q5 0 3 -8.5t-10 -15.5q-33 -29 -72.5 -59t-75.5 -56t-62 -42q-7 -4 -5.5 -7.5t5.5 -8.5q17 -18 39 -42t43.5 -50t34.5 -50q4 -7 3 -15t-6 -8q-8 0 -18 7.5t-13 10.5q-16 16 -41 36.5 t-52.5 41.5t-52.5 38.5t-42 27.5q-4 2 -7.5 5.5t-3.5 9.5zM270 196q0 5 4 8.5t7 4.5q46 24 100.5 52.5t106 57.5t87.5 52q5 4 11.5 7t16.5 3q5 0 3 -8.5t-10 -15.5q-33 -29 -72.5 -59t-75.5 -56t-62 -42q-7 -4 -5.5 -7.5t5.5 -8.5q17 -18 39 -42t43.5 -50t34.5 -50 q4 -7 3 -15t-6 -8q-8 0 -18 7.5t-13 10.5q-16 16 -41 36.5t-52.5 41.5t-52.5 38.5t-42 27.5q-4 2 -7.5 5.5t-3.5 9.5z" />
<glyph unicode="&#xac;" horiz-adv-x="600" d="M50 334q0 5 1.5 16.5t7 21.5t15.5 10h463q5 0 9 -4.5t4 -9.5v-301q0 -10 -10 -15.5t-21.5 -7t-16.5 -1.5q-4 0 -8 4.5t-4 9.5v247q0 18 -14 18h-412q-5 0 -9.5 4t-4.5 8z" />
<glyph unicode="&#xad;" horiz-adv-x="268" d="M27 184q0 17 12 31t20 15q46 6 91.5 12.5t91.5 12.5q5 1 6.5 -1t1.5 -7q0 -11 -5 -22.5t-13 -19.5t-18 -10q-44 -6 -88 -12.5t-88 -12.5q-4 -1 -7.5 4t-3.5 10z" />
<glyph unicode="&#xae;" horiz-adv-x="665" d="M69 327q0 63 23.5 117.5t65.5 96.5t96.5 65.5t117.5 23.5t117.5 -23.5t96.5 -65.5t65.5 -96.5t23.5 -117.5t-23.5 -117.5t-65.5 -96.5t-97 -65.5t-118 -23.5t-117.5 23.5t-96 65.5t-65 96.5t-23.5 117.5zM109 327q0 -55 20 -103.5t56 -86t83.5 -58.5t102.5 -21t103 21 t84 58.5t56.5 86t20.5 103.5q0 54 -20.5 102t-56.5 84t-84 56.5t-102 20.5t-102 -20.5t-84 -56.5t-56.5 -84t-20.5 -102zM226 183q0 6 6 10t13 6q12 4 18.5 10t6.5 22v195q0 21 -1.5 28.5t-6.5 9l-15 4.5q-19 5 -19 16q0 14 20 12q13 -1 26 -3t26 -2q23 0 46 2t46 3 q39 2 71.5 -18.5t32.5 -60.5q0 -31 -19.5 -51.5t-42.5 -28.5q-7 -2 -4.5 -7t4.5 -10q10 -26 29 -53t39.5 -45t34.5 -18q3 0 9.5 1t6.5 -5q0 -13 -15 -20t-29 -7q-19 0 -38.5 14t-37 35t-30.5 43.5t-19 38.5q-2 6 -10.5 11t-27.5 5q-6 0 -11 -3t-5 -8l1 -78q0 -16 11 -22 t23 -10q7 -2 13 -6t6 -10q0 -4 -5.5 -7.5t-10.5 -3.5q-24 0 -34 2t-31 2q-14 0 -21.5 -1t-15.5 -2t-24 -1q-4 0 -10 3.5t-6 7.5zM330 367q0 -14 8.5 -17t18.5 -3q29 0 52 18.5t23 47.5q0 24 -19 39t-45 15q-22 0 -30 -8t-8 -22v-70z" />
<glyph unicode="&#xaf;" horiz-adv-x="300" d="M140 553q0 6 4 14t10.5 14.5t14.5 6.5h207q9 0 9 -10q0 -8 -6.5 -16t-14.5 -13t-15 -5h-200q-4 0 -6.5 2.5t-2.5 6.5z" />
<glyph unicode="&#xb0;" horiz-adv-x="290" d="M126 526q0 32 17 59t44.5 43.5t58.5 16.5q32 0 59 -16t44 -42.5t17 -58.5t-17 -61t-44 -47t-59 -18q-31 0 -58.5 17.5t-44.5 46t-17 60.5zM169 523q0 -31 23 -55t54 -24q32 0 54.5 24t22.5 55q0 33 -22.5 56t-54.5 23q-31 0 -54 -23t-23 -56z" />
<glyph unicode="&#xb1;" horiz-adv-x="590" d="M50 50q0 5 2.5 14t7.5 16.5t14 7.5h453q5 0 10 -4.5t3 -9.5q-4 -13 -10.5 -24.5t-20.5 -11.5h-445q-5 0 -9.5 4t-4.5 8zM50 363q0 7 5.5 22.5t18.5 15.5h189q5 0 6 2t1 6v171q0 10 8 16.5t16.5 10.5t11.5 4q5 0 9.5 -4t4.5 -9v-191q0 -5 1 -5.5t3 -0.5h203q5 0 10 -4.5 t3 -9.5q-4 -13 -10.5 -24.5t-20.5 -11.5h-185q-4 0 -4 -4v-202q0 -13 -15.5 -18.5t-22.5 -5.5q-4 0 -8 4.5t-4 9.5v211q0 5 -4 5h-202q-5 0 -9.5 4t-4.5 8z" />
<glyph unicode="&#xb2;" horiz-adv-x="278" d="M95 441q0 7 8 13l113 94q43 35 68.5 75.5t25.5 60.5q0 21 -13 32t-34 11q-19 0 -39 -10.5t-38 -31.5q-3 -3 -5 -4.5t-4 -1.5q-3 0 -4 3t0 8q6 17 24.5 37t46.5 35t60 15q28 0 47 -18t19 -48q0 -36 -19.5 -59t-41.5 -47q-12 -12 -31 -29t-39.5 -34t-36 -29t-18.5 -15 t1.5 -4.5t8.5 -1.5h64q21 0 44 14t40 36q2 4 7 6t9 2q2 0 2 -3.5t-2 -5.5q-11 -18 -20.5 -33t-17 -28.5t-15.5 -29.5q-4 -8 -7 -10.5t-5 -2.5q-31 2 -55.5 3t-44.5 1q-14 0 -28.5 -0.5t-31 -1t-35.5 -1.5q-3 0 -3 3z" />
<glyph unicode="&#xb3;" horiz-adv-x="284" d="M127 458q0 9 10 23t17 14q6 0 13.5 -6.5t17.5 -12.5q7 -3 15.5 -5.5t18.5 -2.5q23 0 40 12.5t27 31.5t10 38q0 20 -11.5 32.5t-34.5 12.5q-7 0 -21.5 -3.5t-16.5 -3.5q-4 0 -8 4t0 7q12 8 23 11.5t21.5 6.5t17.5 7q25 14 45 32t20 41q0 17 -10 25t-25 8q-20 0 -37.5 -7 t-40.5 -24q-3 -2 -5 -4t-5 -2q-4 0 -5.5 4.5t0.5 7.5q19 24 40.5 40t43.5 24.5t42 7.5q26 -1 42.5 -15.5t16.5 -43.5t-24 -51t-56 -35q-3 -1 -4 -3t2 -2q23 0 35 -17.5t12 -40.5q0 -27 -17 -51.5t-44 -43t-57 -29.5t-55 -11q-18 0 -35.5 4.5t-17.5 19.5z" />
<glyph unicode="&#xb4;" horiz-adv-x="200" d="M140 481.5q-1 6.5 3 13.5l75 144q5 10 11.5 17.5t13.5 7.5q5 0 14.5 -6t17 -14t7.5 -16q0 -4 -4.5 -11.5t-13.5 -18.5l-92 -108q-4 -6 -10.5 -10.5t-12.5 -4.5q-8 0 -9 6.5z" />
<glyph unicode="&#xb5;" horiz-adv-x="502" d="M-34 -234q0 33 9.5 73t23 82t24.5 79q5 13 17 40.5t19 51.5q3 10 11 37.5t18 64.5t21 75.5t20.5 71t15.5 49.5q4 11 9.5 17.5t15.5 6.5q17 0 31.5 -5.5t23.5 -13t9 -13.5q0 -15 -8.5 -35.5t-24.5 -48.5t-37 -64.5t-45 -83.5q-6 -13 -7 -25t-1 -20q0 -23 15.5 -38 t36.5 -15q13 0 30 11t41.5 38.5t60.5 74.5q20 56 40.5 108t50.5 118q4 8 9.5 10t11.5 2q13 0 26.5 -8t22 -18.5t5.5 -17.5q-5 -14 -20.5 -44t-36 -66.5t-41 -69.5t-35.5 -53q-9 -28 3.5 -51.5t46.5 -23.5q19 0 38.5 13.5t34.5 26.5t19 13t7 -2.5t1 -6.5q-14 -36 -36.5 -63 t-47.5 -42t-48 -15q-20 0 -32 9.5t-17 26.5t-4 38q1 13 5.5 27.5t9.5 27.5h-2q-4 -6 -19.5 -26.5t-36 -44t-42.5 -41t-41 -17.5q-29 0 -43.5 24t-24.5 50q-1 4 -3 8t-4 6.5t-6 2.5q-5 0 -11.5 -11t-11.5 -27q-5 -14 -12 -44t-12 -61t-5 -50q0 -30 8.5 -48t16.5 -29 q8 -10 14.5 -15.5t6.5 -10.5q0 -8 -9 -19t-21.5 -22t-24.5 -18t-19 -7q-10 0 -19.5 6.5t-15 18t-5.5 26.5z" />
<glyph unicode="&#xb6;" horiz-adv-x="589" d="M4 -177q0 37 16 66t43.5 46t62.5 17q32 0 50 -15t18 -38q0 -25 -15 -40.5t-44 -15.5q-10 0 -20 5t-18 12q-8 6 -15.5 11.5t-14.5 5.5q-10 0 -16 -13.5t-6 -25.5q0 -44 29.5 -64t65.5 -20q51 0 93.5 31t61.5 95l67 220q2 8 0.5 13.5t-8.5 5.5q-78 0 -135 24t-87.5 69.5 t-30.5 109.5q0 96 37.5 159t104 98.5t153 50.5t184.5 15h32t35 -0.5t28 -2.5q7 -1 9.5 -6t1.5 -12t-4 -14t-11 -7q-2 0 -15 0.5t-29.5 1.5t-29.5 1.5t-15 0.5q-7 0 -13 -4t-9 -14l-209 -687q-22 -73 -54 -114.5t-71 -58.5t-84 -17q-60 0 -99 30t-39 81zM307 224 q0 -36 13 -52t38 -16q4 0 7.5 3t5.5 10l131 415v1v1q0 4 -5 5.5t-10 1.5q-17 0 -34 -5t-34.5 -24t-36.5 -60t-41 -112q-34 -112 -34 -168z" />
<glyph unicode="&#xb7;" horiz-adv-x="201" d="M48 200q0 18 9 33t23.5 23.5t32.5 8.5q20 0 32.5 -15t12.5 -35q0 -18 -8.5 -32.5t-23.5 -23.5t-33 -9q-19 0 -32 15.5t-13 34.5z" />
<glyph unicode="&#xb8;" horiz-adv-x="200" d="M-122 -225q0 27 20 27q9 0 18 -5.5t16 -13.5q11 -9 22.5 -17.5t27.5 -8.5q11 0 18.5 8.5t7.5 19.5q0 17 -10 28.5t-21 23.5q-10 11 -19 24t-9 31q0 17 17 40t42.5 46t52.5 39h30q-46 -37 -61 -64t-15 -41q0 -10 9.5 -21.5t20.5 -22.5t20 -22.5t9 -25.5q0 -16 -14 -33.5 t-34 -33t-39.5 -25t-31.5 -9.5q-23 0 -40.5 7.5t-27 20t-9.5 28.5z" />
<glyph unicode="&#xb9;" horiz-adv-x="244" d="M113 449q1 6 4.5 11t10.5 6q20 2 39.5 8.5t28.5 37.5l52 171q6 20 -5.5 28.5t-37.5 18.5q-7 3 -7 10q0 13 12 15q37 6 67 13.5t40 11.5q2 1 4 1.5t3 0.5q9 0 4 -14q-4 -10 -11.5 -28t-15.5 -42l-57 -186q-8 -29 -0.5 -35t36.5 -11q5 -1 7 -5.5t0 -9.5q-1 -5 -5 -9.5 t-10 -4.5q-21 0 -34.5 1.5l-22.5 2.5t-18 1q-14 0 -31 -2.5t-47 -2.5q-4 0 -5.5 4t-0.5 8z" />
<glyph unicode="&#xba;" horiz-adv-x="307" d="M41 173q0 7 9.5 15t17.5 8h194q5 0 7 -3t2 -10t-12.5 -14.5t-22.5 -7.5h-187q-4 0 -6 4t-2 8zM88 365q0 36 19 72.5t56.5 61.5t90.5 25q41 0 63.5 -22.5t22.5 -60.5q0 -43 -18.5 -83t-55.5 -65t-91 -25q-41 0 -64 23.5t-23 73.5zM136 358q0 -18 6 -34t17.5 -26t27.5 -10 q21 0 40 14.5t33 37t22.5 47t8.5 43.5q0 21 -4.5 37t-14.5 25.5t-26 9.5q-21 0 -40.5 -14t-35.5 -36.5t-25 -47.5t-9 -46z" />
<glyph unicode="&#xbb;" horiz-adv-x="700" d="M55 27.5q2 8.5 9 15.5q34 29 73 59t75.5 56t61.5 42q7 5 6 8.5t-6 7.5q-17 18 -39 42t-43 50.5t-35 49.5q-4 7 -3 15t6 8q8 0 18 -7.5t13 -10.5q17 -16 41.5 -36.5t52 -41.5t52.5 -38.5t42 -27.5q5 -2 8 -5.5t3 -9.5q0 -5 -4 -8t-7 -5q-46 -23 -100.5 -52t-106 -57.5 t-87.5 -52.5q-5 -4 -11.5 -7t-16.5 -3q-4 0 -2 8.5zM266 27.5q2 8.5 9 15.5q34 29 73 59t75.5 56t61.5 42q7 5 6 8.5t-6 7.5q-17 18 -39 42t-43 50.5t-35 49.5q-4 7 -3 15t6 8q8 0 18 -7.5t13 -10.5q17 -16 41.5 -36.5t52 -41.5t52.5 -38.5t42 -27.5q5 -2 8 -5.5t3 -9.5 q0 -5 -4 -8t-7 -5q-46 -23 -100.5 -52t-106 -57.5t-87.5 -52.5q-5 -4 -11.5 -7t-16.5 -3q-4 0 -2 8.5z" />
<glyph unicode="&#xbc;" horiz-adv-x="627" d="M50 -14l606 668q10 11 18.5 14t18.5 3q11 0 14 -6t-2 -11l-606 -668q-8 -10 -17.5 -12.5t-20.5 -2.5q-6 0 -10.5 5t-0.5 10zM63 289q1 6 4.5 11t10.5 6q20 2 39.5 8.5t28.5 37.5l52 171q6 20 -5.5 28.5t-37.5 18.5q-7 3 -7 10q0 13 12 15q37 6 67 13.5t40 11.5q2 1 4 1.5 t3 0.5q9 0 4 -14q-4 -10 -11.5 -28t-15.5 -42l-57 -186q-8 -29 -0.5 -35t36.5 -11q5 -1 7 -5.5t0 -9.5q-1 -5 -5 -9.5t-10 -4.5q-21 0 -34.5 1.5l-22.5 2.5t-18 1q-14 0 -31 -2.5t-47 -2.5q-4 0 -5.5 4t-0.5 8zM325.5 96.5q-0.5 3.5 0.5 4.5q43 42 86 83t86 81 q12 11 32 28.5t42 36.5q5 4 9.5 8t7.5 4t4 -3t0 -5l-58 -198q-2 -4 2 -4h35t19 1q4 0 4 -4q0 -7 -9.5 -18.5t-11.5 -11.5q-4 0 -17.5 0.5t-22.5 0.5q-11 0 -13 -9l-22 -72q-2 -6 -9 -10.5t-15.5 -8.5t-15 -6t-8.5 -2q-9 0 -6 8l24 83q4 14 -7 14q-34 0 -61.5 -1.5 t-71.5 -2.5q-3 0 -3.5 3.5zM389 133h89q7 0 9 5l36 118q1 2 -1 2.5t-4 -1.5q-25 -22 -47 -42.5t-42 -39t-39 -37.5q-5 -5 -1 -5z" />
<glyph unicode="&#xbd;" horiz-adv-x="659" d="M47 -14l606 668q10 11 18.5 14t18.5 3q11 0 14 -6t-2 -11l-606 -668q-8 -10 -17.5 -12.5t-20.5 -2.5q-6 0 -10.5 5t-0.5 10zM63 289q1 6 4.5 11t10.5 6q20 2 39.5 8.5t28.5 37.5l52 171q6 20 -5.5 28.5t-37.5 18.5q-7 3 -7 10q0 13 12 15q37 6 67 13.5t40 11.5q2 1 4 1.5 t3 0.5q9 0 4 -14q-4 -10 -11.5 -28t-15.5 -42l-57 -186q-8 -29 -0.5 -35t36.5 -11q5 -1 7 -5.5t0 -9.5q-1 -5 -5 -9.5t-10 -4.5q-21 0 -34.5 1.5l-22.5 2.5t-18 1q-14 0 -31 -2.5t-47 -2.5q-4 0 -5.5 4t-0.5 8zM336 -13q0 7 8 13l113 94q43 35 68.5 75.5t25.5 60.5 q0 21 -13 32t-34 11q-19 0 -39 -10.5t-38 -31.5q-3 -3 -5 -4.5t-4 -1.5q-3 0 -4 3t0 8q6 17 24.5 37t46.5 35t60 15q28 0 47 -18t19 -48q0 -36 -19.5 -59t-41.5 -47q-12 -12 -31 -29t-39.5 -34t-36 -29t-18.5 -15t1.5 -4.5t8.5 -1.5h64q21 0 44 14t40 36q2 4 7 6t9 2 q2 0 2 -3.5t-2 -5.5q-11 -18 -20.5 -33t-17 -28.5t-15.5 -29.5q-4 -8 -7 -10.5t-5 -2.5q-31 2 -55.5 3t-44.5 1q-14 0 -28.5 -0.5t-31 -1t-35.5 -1.5q-3 0 -3 3z" />
<glyph unicode="&#xbe;" horiz-adv-x="642" d="M70 -14l606 668q10 11 18.5 14t18.5 3q11 0 14 -6t-2 -11l-606 -668q-8 -10 -17.5 -12.5t-20.5 -2.5q-6 0 -10.5 5t-0.5 10zM77 298q0 9 10 23t17 14q6 0 13.5 -6.5t17.5 -12.5q7 -3 15.5 -5.5t18.5 -2.5q23 0 40 12.5t27 31.5t10 38q0 20 -11.5 32.5t-34.5 12.5 q-7 0 -21.5 -3.5t-16.5 -3.5q-4 0 -8 4t0 7q12 8 23 11.5t21.5 6.5t17.5 7q25 14 45 32t20 41q0 17 -10 25t-25 8q-20 0 -37.5 -7t-40.5 -24q-3 -2 -5 -4t-5 -2q-4 0 -5.5 4.5t0.5 7.5q19 24 40.5 40t43.5 24.5t42 7.5q26 -1 42.5 -15.5t16.5 -43.5t-24 -51t-56 -35 q-3 -1 -4 -3t2 -2q23 0 35 -17.5t12 -40.5q0 -27 -17 -51.5t-44 -43t-57 -29.5t-55 -11q-18 0 -35.5 4.5t-17.5 19.5zM340.5 96.5q-0.5 3.5 0.5 4.5q43 42 86 83t86 81q12 11 32 28.5t42 36.5q5 4 9.5 8t7.5 4t4 -3t0 -5l-58 -198q-2 -4 2 -4h35t19 1q4 0 4 -4 q0 -7 -9.5 -18.5t-11.5 -11.5q-4 0 -17.5 0.5t-22.5 0.5q-11 0 -13 -9l-22 -72q-2 -6 -9 -10.5t-15.5 -8.5t-15 -6t-8.5 -2q-9 0 -6 8l24 83q4 14 -7 14q-34 0 -61.5 -1.5t-71.5 -2.5q-3 0 -3.5 3.5zM404 133h89q7 0 9 5l36 118q1 2 -1 2.5t-4 -1.5q-25 -22 -47 -42.5 t-42 -39t-39 -37.5q-5 -5 -1 -5z" />
<glyph unicode="&#xbf;" horiz-adv-x="316" d="M-26 -13q0 36 10 62.5t27.5 45.5t41.5 31l88 45q30 16 40.5 31.5t10.5 39.5q0 11 -2 20t-4 17q-2 6 -3.5 11.5t-1.5 10.5q0 4 4 5t7 1t13 -15t18.5 -36.5t8.5 -40.5q0 -26 -8.5 -47t-36.5 -42t-85 -47q-37 -18 -67 -48t-30 -74q0 -34 22.5 -52.5t59.5 -18.5q13 0 20.5 3 t13.5 5q9 3 14.5 6t12.5 3q11 0 17.5 -6.5t6.5 -20.5q0 -20 -20.5 -37t-47.5 -17q-40 0 -69 22t-45 59.5t-16 83.5zM146 435q0 26 18.5 44t43.5 18q18 0 30 -14.5t12 -32.5q0 -26 -17.5 -44t-43.5 -18q-19 0 -31 14.5t-12 32.5z" />
<glyph unicode="&#xc0;" horiz-adv-x="658" d="M-60 8q-1 8 8.5 12.5t25.5 8.5q28 8 51.5 19t43.5 26.5t36 33.5q74 82 135.5 158t118.5 151t117 152q12 15 21 27t15 19t10 7q21 0 28.5 7t19.5 20q14 16 19.5 21.5t10.5 5.5t7 -6t-2 -26l-104 -522q-10 -48 -1.5 -68.5t36.5 -28.5q16 -4 24 -7.5t8 -10.5q0 -6 -7 -9 t-24 -3q-13 0 -33.5 1.5t-43.5 3t-44 1.5h-36.5t-35 -0.5t-27.5 -0.5q-21 0 -24 12q-1 7 7 12.5t21 7.5q33 6 51.5 13.5t29 23t17.5 43.5l31 119q4 15 -5.5 21t-23.5 6l-112 -2q-16 0 -25.5 -3.5t-17.5 -14.5l-103 -136q-18 -24 -19.5 -37.5t7 -20t19.5 -10.5t18 -9t7 -13 q0 -7 -8 -10t-20 -3q-13 0 -32.5 1t-45.5 1q-31 0 -66.5 -3t-58.5 -3q-12 0 -17 3t-7 10zM308 296q-1 -6 26 -6l107 1q11 0 17 6t10 22l48 219q3 12 2.5 17.5t-5.5 5.5q-4 0 -9 -2t-10 -10l-178 -237q-7 -10 -8 -16zM472 827q0 7 11.5 12t25.5 8t21 3q18 0 27 -13 q20 -29 39.5 -59t37.5 -60q5 -8 5 -15q0 -6 -6 -6q-2 0 -6.5 2t-11.5 7q-29 23 -65 49.5t-65 52.5q-13 12 -13 19z" />
<glyph unicode="&#xc1;" horiz-adv-x="658" d="M-60 8q-1 8 8.5 12.5t25.5 8.5q28 8 51.5 19t43.5 26.5t36 33.5q74 82 135.5 158t118.5 151t117 152q12 15 21 27t15 19t10 7q21 0 28.5 7t19.5 20q14 16 19.5 21.5t10.5 5.5t7 -6t-2 -26l-104 -522q-10 -48 -1.5 -68.5t36.5 -28.5q16 -4 24 -7.5t8 -10.5q0 -6 -7 -9 t-24 -3q-13 0 -33.5 1.5t-43.5 3t-44 1.5h-36.5t-35 -0.5t-27.5 -0.5q-21 0 -24 12q-1 7 7 12.5t21 7.5q33 6 51.5 13.5t29 23t17.5 43.5l31 119q4 15 -5.5 21t-23.5 6l-112 -2q-16 0 -25.5 -3.5t-17.5 -14.5l-103 -136q-18 -24 -19.5 -37.5t7 -20t19.5 -10.5t18 -9t7 -13 q0 -7 -8 -10t-20 -3q-13 0 -32.5 1t-45.5 1q-31 0 -66.5 -3t-58.5 -3q-12 0 -17 3t-7 10zM308 296q-1 -6 26 -6l107 1q11 0 17 6t10 22l48 219q3 12 2.5 17.5t-5.5 5.5q-4 0 -9 -2t-10 -10l-178 -237q-7 -10 -8 -16zM561 703q0 7 5 15q18 30 37.5 60t39.5 59q9 13 27 13 q7 0 21 -3t25.5 -8t11.5 -12t-13 -19q-29 -26 -65 -52.5t-65 -49.5q-7 -5 -11.5 -7t-6.5 -2q-6 0 -6 6z" />
<glyph unicode="&#xc2;" horiz-adv-x="658" d="M-60 8q-1 8 8.5 12.5t25.5 8.5q28 8 51.5 19t43.5 26.5t36 33.5q74 82 135.5 158t118.5 151t117 152q12 15 21 27t15 19t10 7q21 0 28.5 7t19.5 20q14 16 19.5 21.5t10.5 5.5t7 -6t-2 -26l-104 -522q-10 -48 -1.5 -68.5t36.5 -28.5q16 -4 24 -7.5t8 -10.5q0 -6 -7 -9 t-24 -3q-13 0 -33.5 1.5t-43.5 3t-44 1.5h-36.5t-35 -0.5t-27.5 -0.5q-21 0 -24 12q-1 7 7 12.5t21 7.5q33 6 51.5 13.5t29 23t17.5 43.5l31 119q4 15 -5.5 21t-23.5 6l-112 -2q-16 0 -25.5 -3.5t-17.5 -14.5l-103 -136q-18 -24 -19.5 -37.5t7 -20t19.5 -10.5t18 -9t7 -13 q0 -7 -8 -10t-20 -3q-13 0 -32.5 1t-45.5 1q-31 0 -66.5 -3t-58.5 -3q-12 0 -17 3t-7 10zM308 296q-1 -6 26 -6l107 1q11 0 17 6t10 22l48 219q3 12 2.5 17.5t-5.5 5.5q-4 0 -9 -2t-10 -10l-178 -237q-7 -10 -8 -16zM459 706q0 6 7 12l124 82q19 12 28.5 17t16.5 5 q10 0 20 -7t17 -15l72 -82q3 -4 4.5 -6.5t1.5 -5.5q0 -11 -14 -11q-6 0 -25.5 10t-40 23.5t-32.5 21.5q-12 9 -26 1q-9 -5 -29.5 -14t-44 -18.5t-41.5 -16t-23 -6.5q-15 0 -15 10z" />
<glyph unicode="&#xc3;" horiz-adv-x="658" d="M-60 8q-1 8 8.5 12.5t25.5 8.5q28 8 51.5 19t43.5 26.5t36 33.5q74 82 135.5 158t118.5 151t117 152q12 15 21 27t15 19t10 7q21 0 28.5 7t19.5 20q14 16 19.5 21.5t10.5 5.5t7 -6t-2 -26l-104 -522q-10 -48 -1.5 -68.5t36.5 -28.5q16 -4 24 -7.5t8 -10.5q0 -6 -7 -9 t-24 -3q-13 0 -33.5 1.5t-43.5 3t-44 1.5h-36.5t-35 -0.5t-27.5 -0.5q-21 0 -24 12q-1 7 7 12.5t21 7.5q33 6 51.5 13.5t29 23t17.5 43.5l31 119q4 15 -5.5 21t-23.5 6l-112 -2q-16 0 -25.5 -3.5t-17.5 -14.5l-103 -136q-18 -24 -19.5 -37.5t7 -20t19.5 -10.5t18 -9t7 -13 q0 -7 -8 -10t-20 -3q-13 0 -32.5 1t-45.5 1q-31 0 -66.5 -3t-58.5 -3q-12 0 -17 3t-7 10zM308 296q-1 -6 26 -6l107 1q11 0 17 6t10 22l48 219q3 12 2.5 17.5t-5.5 5.5q-4 0 -9 -2t-10 -10l-178 -237q-7 -10 -8 -16zM468 708q0 4 9 17t22.5 28.5t27.5 27t23 11.5 q17 0 35.5 -0.5t32.5 -2.5q17 -1 34 -2.5t30 -1.5q11 0 21.5 6t17.5 13t12 13.5t8 6.5q8 0 13.5 -4.5t5.5 -12.5q0 -3 -4.5 -8t-9.5 -10q-12 -12 -24.5 -28t-22.5 -28q-6 -7 -16 -10.5t-13 -3.5q-6 0 -22.5 1t-37.5 3t-40 3t-31 1q-7 0 -17 -3.5t-16 -8.5q-9 -7 -14.5 -15 t-7.5 -8q-5 0 -10.5 5.5t-5.5 10.5z" />
<glyph unicode="&#xc4;" horiz-adv-x="658" d="M-60 8q-1 8 8.5 12.5t25.5 8.5q28 8 51.5 19t43.5 26.5t36 33.5q74 82 135.5 158t118.5 151t117 152q12 15 21 27t15 19t10 7q21 0 28.5 7t19.5 20q14 16 19.5 21.5t10.5 5.5t7 -6t-2 -26l-104 -522q-10 -48 -1.5 -68.5t36.5 -28.5q16 -4 24 -7.5t8 -10.5q0 -6 -7 -9 t-24 -3q-13 0 -33.5 1.5t-43.5 3t-44 1.5h-36.5t-35 -0.5t-27.5 -0.5q-21 0 -24 12q-1 7 7 12.5t21 7.5q33 6 51.5 13.5t29 23t17.5 43.5l31 119q4 15 -5.5 21t-23.5 6l-112 -2q-16 0 -25.5 -3.5t-17.5 -14.5l-103 -136q-18 -24 -19.5 -37.5t7 -20t19.5 -10.5t18 -9t7 -13 q0 -7 -8 -10t-20 -3q-13 0 -32.5 1t-45.5 1q-31 0 -66.5 -3t-58.5 -3q-12 0 -17 3t-7 10zM308 296q-1 -6 26 -6l107 1q11 0 17 6t10 22l48 219q3 12 2.5 17.5t-5.5 5.5q-4 0 -9 -2t-10 -10l-178 -237q-7 -10 -8 -16zM466 739q0 25 16.5 43t41.5 18q16 0 26 -13t10 -30 q0 -22 -17 -39.5t-40 -17.5q-16 0 -26.5 12t-10.5 27zM667 739q0 25 16.5 43t41.5 18q16 0 26 -13t10 -30q0 -15 -8 -28t-21 -21t-28 -8q-16 0 -26.5 12t-10.5 27z" />
<glyph unicode="&#xc5;" horiz-adv-x="658" d="M-60 8q-1 8 8.5 12.5t25.5 8.5q28 8 51.5 19t43.5 26.5t36 33.5q74 82 135.5 158t118.5 151t117 152q12 15 21 27t15 19t10 7q21 0 28.5 7t19.5 20q14 16 19.5 21.5t10.5 5.5t7 -6t-2 -26l-104 -522q-10 -48 -1.5 -68.5t36.5 -28.5q16 -4 24 -7.5t8 -10.5q0 -6 -7 -9 t-24 -3q-13 0 -33.5 1.5t-43.5 3t-44 1.5h-36.5t-35 -0.5t-27.5 -0.5q-21 0 -24 12q-1 7 7 12.5t21 7.5q33 6 51.5 13.5t29 23t17.5 43.5l31 119q4 15 -5.5 21t-23.5 6l-112 -2q-16 0 -25.5 -3.5t-17.5 -14.5l-103 -136q-18 -24 -19.5 -37.5t7 -20t19.5 -10.5t18 -9t7 -13 q0 -7 -8 -10t-20 -3q-13 0 -32.5 1t-45.5 1q-31 0 -66.5 -3t-58.5 -3q-12 0 -17 3t-7 10zM308 296q-1 -6 26 -6l107 1q11 0 17 6t10 22l48 219q3 12 2.5 17.5t-5.5 5.5q-4 0 -9 -2t-10 -10l-178 -237q-7 -10 -8 -16zM541 754q0 39 29.5 64.5t68.5 25.5q17 0 33 -7t26.5 -20 t10.5 -31q0 -39 -29.5 -62.5t-68.5 -23.5q-25 0 -47.5 14.5t-22.5 39.5zM583 758q0 -15 11 -25.5t26 -10.5q23 0 35 17.5t12 43.5q0 16 -10.5 27t-24.5 11q-23 0 -36 -18t-13 -45z" />
<glyph unicode="&#xc6;" horiz-adv-x="800" d="M-62 6q2 7 11.5 12t26.5 10q26 8 61 35t65 63l393 467q6 7 3 12.5t-17 7.5l-76 13q-13 3 -13 11q0 5 6.5 9.5t14.5 4.5q20 0 47 -1t58.5 -1.5t62.5 -0.5q35 0 75.5 1t78.5 1q43 0 69 3t42 5.5t28 2.5q5 0 10 -2.5t4 -10.5q-2 -25 -9 -57t-13 -53q-3 -11 -8 -14.5 t-10 -3.5t-6 2.5t-1 7.5q0 17 -1.5 35.5t-6.5 27.5q-7 14 -21.5 19.5t-31.5 5.5h-122q-11 0 -18.5 -8.5t-12.5 -17.5q-14 -29 -30 -72.5t-29 -86t-21 -69.5q-6 -22 -4.5 -31.5t9.5 -9.5h55.5t39.5 3q15 2 25.5 7t17.5 12q8 8 13 17t9 19q4 8 10.5 12.5t12.5 4.5q4 0 7 -4.5 t0 -11.5q-17 -38 -24 -73.5t-17 -73.5q-2 -7 -5.5 -12t-8.5 -5q-9 0 -11.5 9t-2.5 14q0 23 -10.5 35t-21.5 12q-28 1 -49 1.5t-47 0.5q-10 0 -18 -8t-15 -31q-11 -36 -19 -65.5t-20 -72.5q-9 -31 -2.5 -54.5t37.5 -23.5h97q29 0 49.5 7t36.5 20q14 12 25.5 27.5t22.5 34.5 q4 6 9 10.5t10 4.5q6 0 8 -5.5t0 -10.5q-8 -24 -16 -43.5t-16 -35.5t-17 -32q-3 -6 -7.5 -11.5t-11.5 -5.5q-39 0 -79 1t-79 2t-74.5 2t-66.5 1q-21 0 -36 -1.5t-31.5 -3t-41.5 -1.5q-12 0 -18 2.5t-5 8.5q4 12 36 18q37 7 59.5 23t32.5 52q12 41 25 90.5t23 81.5 q2 8 0.5 13t-15.5 5h-124q-10 0 -18.5 -6.5t-16.5 -16.5q-18 -23 -36.5 -46.5t-39 -50t-45.5 -57.5q-22 -27 -20 -43t16.5 -25t30.5 -14q15 -4 20.5 -8.5t3.5 -11.5q-1 -6 -9.5 -8.5t-20.5 -2.5q-13 0 -37.5 1t-50.5 1q-31 0 -63.5 -3t-55.5 -3q-12 0 -18.5 2.5t-5.5 8.5z M324.5 324.5q0.5 -2.5 12.5 -2.5h106q11 0 13 2t6 13l77 249q2 5 1.5 7.5t-2.5 2.5q-4 0 -11 -9l-196 -250q-7 -10 -6.5 -12.5z" />
<glyph unicode="&#xc7;" horiz-adv-x="631" d="M78 240q0 90 32.5 167t89.5 135t130.5 90.5t154.5 32.5q28 0 55.5 -4.5t55.5 -14.5q19 -6 33 -11t24 -5q5 0 10 2.5l11 5.5q6 2 12 4.5t11 2.5q9 0 9.5 -6t-2.5 -10q-11 -15 -25 -40t-25.5 -52t-16.5 -50q-1 -7 -7 -13.5t-11 -6.5q-9 0 -12.5 8.5t-2.5 17.5 q5 23 3.5 46.5t-18.5 45.5t-44.5 35.5t-62.5 13.5q-43 0 -88 -20t-85.5 -56.5t-73 -86.5t-51 -110.5t-18.5 -128.5q0 -61 17.5 -102t46 -66t62 -36t65.5 -11q51 0 83 16.5t54 44t42 61.5q5 8 10 13.5t13 5.5q5 0 6 -5t1 -15q0 -7 -9 -30.5t-22 -50.5t-24.5 -46.5 t-16.5 -19.5q-4 0 -9 3.5t-10 7.5q-4 4 -9.5 6.5t-11.5 2.5q-7 0 -17 -3t-24 -8q-15 -5 -36 -9.5t-47 -4.5q-41 0 -85 17.5t-82 51t-61.5 80.5t-23.5 105zM175 -225q0 27 20 27q9 0 18 -5.5t16 -13.5q11 -9 22.5 -17.5t27.5 -8.5q11 0 18.5 8.5t7.5 19.5q0 17 -10 28.5 t-21 23.5q-10 11 -19 24t-9 31q0 17 17 40t42.5 46t52.5 39h30q-46 -37 -61 -64t-15 -41q0 -10 9.5 -21.5t20.5 -22.5t20 -22.5t9 -25.5q0 -16 -14 -33.5t-34 -33t-39.5 -25t-31.5 -9.5q-23 0 -40.5 7.5t-27 20t-9.5 28.5z" />
<glyph unicode="&#xc8;" horiz-adv-x="576" d="M-32 6q0 12 36 18q50 8 71.5 24.5t31.5 50.5l137 450q14 43 1 56.5t-57 19.5q-15 2 -20.5 6t-5.5 11q0 6 9.5 8.5t21.5 2.5q8 0 28.5 -1t46 -1.5t46.5 -0.5h161q55 0 83.5 2.5t40 5t13.5 2.5q4 0 7.5 -4.5t3.5 -8.5q0 -6 -6 -21.5t-13 -38.5t-11 -52q-1 -10 -6.5 -14.5 t-10.5 -4.5t-8.5 7t-2.5 18q3 46 -8 63.5t-51 17.5h-122q-24 0 -34 -6.5t-15 -23.5l-67 -212q-6 -18 -3 -25t19 -6l124 3q26 1 41.5 11.5t27.5 25.5q7 8 15.5 19.5t17.5 11.5q8 0 8.5 -8.5t-4.5 -19.5q-9 -17 -15.5 -32t-11.5 -29q-6 -16 -10.5 -33.5t-9.5 -39.5 q-1 -7 -4.5 -14t-8.5 -7q-8 0 -10.5 11t-2.5 16q0 31 -10.5 43.5t-27.5 12.5l-115 2q-17 0 -29.5 -4.5t-18.5 -26.5l-51 -182q-14 -51 -5.5 -67t39.5 -16h155q25 0 44.5 8t35.5 19q15 11 28 26.5t26 36.5l8 12t10 6q5 0 6 -7t1 -13q0 -9 -7 -28t-16 -38.5t-16 -31.5 q-6 -10 -13.5 -15.5t-19.5 -5.5q-41 0 -80.5 0.5t-76.5 1.5t-71 2t-65.5 1.5t-59.5 0.5q-24 0 -42 -1.5t-35.5 -3t-42.5 -1.5q-12 0 -18 2.5t-6 8.5zM300 827q0 7 11.5 12t25.5 8t21 3q18 0 27 -13q20 -29 39.5 -59t37.5 -60q5 -8 5 -15q0 -6 -6 -6q-2 0 -6.5 2t-11.5 7 q-29 23 -65 49.5t-65 52.5q-13 12 -13 19z" />
<glyph unicode="&#xc9;" horiz-adv-x="576" d="M-32 6q0 12 36 18q50 8 71.5 24.5t31.5 50.5l137 450q14 43 1 56.5t-57 19.5q-15 2 -20.5 6t-5.5 11q0 6 9.5 8.5t21.5 2.5q8 0 28.5 -1t46 -1.5t46.5 -0.5h161q55 0 83.5 2.5t40 5t13.5 2.5q4 0 7.5 -4.5t3.5 -8.5q0 -6 -6 -21.5t-13 -38.5t-11 -52q-1 -10 -6.5 -14.5 t-10.5 -4.5t-8.5 7t-2.5 18q3 46 -8 63.5t-51 17.5h-122q-24 0 -34 -6.5t-15 -23.5l-67 -212q-6 -18 -3 -25t19 -6l124 3q26 1 41.5 11.5t27.5 25.5q7 8 15.5 19.5t17.5 11.5q8 0 8.5 -8.5t-4.5 -19.5q-9 -17 -15.5 -32t-11.5 -29q-6 -16 -10.5 -33.5t-9.5 -39.5 q-1 -7 -4.5 -14t-8.5 -7q-8 0 -10.5 11t-2.5 16q0 31 -10.5 43.5t-27.5 12.5l-115 2q-17 0 -29.5 -4.5t-18.5 -26.5l-51 -182q-14 -51 -5.5 -67t39.5 -16h155q25 0 44.5 8t35.5 19q15 11 28 26.5t26 36.5l8 12t10 6q5 0 6 -7t1 -13q0 -9 -7 -28t-16 -38.5t-16 -31.5 q-6 -10 -13.5 -15.5t-19.5 -5.5q-41 0 -80.5 0.5t-76.5 1.5t-71 2t-65.5 1.5t-59.5 0.5q-24 0 -42 -1.5t-35.5 -3t-42.5 -1.5q-12 0 -18 2.5t-6 8.5zM389 703q0 7 5 15q18 30 37.5 60t39.5 59q9 13 27 13q7 0 21 -3t25.5 -8t11.5 -12t-13 -19q-29 -26 -65 -52.5t-65 -49.5 q-7 -5 -11.5 -7t-6.5 -2q-6 0 -6 6z" />
<glyph unicode="&#xca;" horiz-adv-x="576" d="M-32 6q0 12 36 18q50 8 71.5 24.5t31.5 50.5l137 450q14 43 1 56.5t-57 19.5q-15 2 -20.5 6t-5.5 11q0 6 9.5 8.5t21.5 2.5q8 0 28.5 -1t46 -1.5t46.5 -0.5h161q55 0 83.5 2.5t40 5t13.5 2.5q4 0 7.5 -4.5t3.5 -8.5q0 -6 -6 -21.5t-13 -38.5t-11 -52q-1 -10 -6.5 -14.5 t-10.5 -4.5t-8.5 7t-2.5 18q3 46 -8 63.5t-51 17.5h-122q-24 0 -34 -6.5t-15 -23.5l-67 -212q-6 -18 -3 -25t19 -6l124 3q26 1 41.5 11.5t27.5 25.5q7 8 15.5 19.5t17.5 11.5q8 0 8.5 -8.5t-4.5 -19.5q-9 -17 -15.5 -32t-11.5 -29q-6 -16 -10.5 -33.5t-9.5 -39.5 q-1 -7 -4.5 -14t-8.5 -7q-8 0 -10.5 11t-2.5 16q0 31 -10.5 43.5t-27.5 12.5l-115 2q-17 0 -29.5 -4.5t-18.5 -26.5l-51 -182q-14 -51 -5.5 -67t39.5 -16h155q25 0 44.5 8t35.5 19q15 11 28 26.5t26 36.5l8 12t10 6q5 0 6 -7t1 -13q0 -9 -7 -28t-16 -38.5t-16 -31.5 q-6 -10 -13.5 -15.5t-19.5 -5.5q-41 0 -80.5 0.5t-76.5 1.5t-71 2t-65.5 1.5t-59.5 0.5q-24 0 -42 -1.5t-35.5 -3t-42.5 -1.5q-12 0 -18 2.5t-6 8.5zM287 706q0 6 7 12l124 82q19 12 28.5 17t16.5 5q10 0 20 -7t17 -15l72 -82q3 -4 4.5 -6.5t1.5 -5.5q0 -11 -14 -11 q-6 0 -25.5 10t-40 23.5t-32.5 21.5q-12 9 -26 1q-9 -5 -29.5 -14t-44 -18.5t-41.5 -16t-23 -6.5q-15 0 -15 10z" />
<glyph unicode="&#xcb;" horiz-adv-x="576" d="M-32 6q0 12 36 18q50 8 71.5 24.5t31.5 50.5l137 450q14 43 1 56.5t-57 19.5q-15 2 -20.5 6t-5.5 11q0 6 9.5 8.5t21.5 2.5q8 0 28.5 -1t46 -1.5t46.5 -0.5h161q55 0 83.5 2.5t40 5t13.5 2.5q4 0 7.5 -4.5t3.5 -8.5q0 -6 -6 -21.5t-13 -38.5t-11 -52q-1 -10 -6.5 -14.5 t-10.5 -4.5t-8.5 7t-2.5 18q3 46 -8 63.5t-51 17.5h-122q-24 0 -34 -6.5t-15 -23.5l-67 -212q-6 -18 -3 -25t19 -6l124 3q26 1 41.5 11.5t27.5 25.5q7 8 15.5 19.5t17.5 11.5q8 0 8.5 -8.5t-4.5 -19.5q-9 -17 -15.5 -32t-11.5 -29q-6 -16 -10.5 -33.5t-9.5 -39.5 q-1 -7 -4.5 -14t-8.5 -7q-8 0 -10.5 11t-2.5 16q0 31 -10.5 43.5t-27.5 12.5l-115 2q-17 0 -29.5 -4.5t-18.5 -26.5l-51 -182q-14 -51 -5.5 -67t39.5 -16h155q25 0 44.5 8t35.5 19q15 11 28 26.5t26 36.5l8 12t10 6q5 0 6 -7t1 -13q0 -9 -7 -28t-16 -38.5t-16 -31.5 q-6 -10 -13.5 -15.5t-19.5 -5.5q-41 0 -80.5 0.5t-76.5 1.5t-71 2t-65.5 1.5t-59.5 0.5q-24 0 -42 -1.5t-35.5 -3t-42.5 -1.5q-12 0 -18 2.5t-6 8.5zM294 739q0 25 16.5 43t41.5 18q16 0 26 -13t10 -30q0 -22 -17 -39.5t-40 -17.5q-16 0 -26.5 12t-10.5 27zM495 739 q0 25 16.5 43t41.5 18q16 0 26 -13t10 -30q0 -15 -8 -28t-21 -21t-28 -8q-16 0 -26.5 12t-10.5 27z" />
<glyph unicode="&#xcc;" horiz-adv-x="362" d="M-20 6q0 12 36 18q37 7 61.5 23t34.5 51l138 452q11 35 1.5 50t-42.5 22q-15 3 -19.5 8t-4.5 12q0 6 9 8.5t21 2.5q25 0 41 -1t31 -1.5t36 -0.5q20 0 33.5 0.5t28.5 1.5t40 1q24 0 24 -11q0 -7 -10 -12t-27 -8q-24 -4 -41.5 -12t-28.5 -22t-18 -38l-138 -452 q-7 -23 -3 -38t18 -23t36 -13q15 -3 20 -7t5 -11q0 -6 -9 -8.5t-21 -2.5q-25 0 -41 1.5t-30.5 2.5t-36.5 1q-34 0 -58 -2.5t-62 -2.5q-12 0 -18 2.5t-6 8.5zM205 827q0 7 11.5 12t25.5 8t21 3q18 0 27 -13q20 -29 39.5 -59t37.5 -60q5 -8 5 -15q0 -6 -6 -6q-2 0 -6.5 2 t-11.5 7q-29 23 -65 49.5t-65 52.5q-13 12 -13 19z" />
<glyph unicode="&#xcd;" horiz-adv-x="362" d="M-20 6q0 12 36 18q37 7 61.5 23t34.5 51l138 452q11 35 1.5 50t-42.5 22q-15 3 -19.5 8t-4.5 12q0 6 9 8.5t21 2.5q25 0 41 -1t31 -1.5t36 -0.5q20 0 33.5 0.5t28.5 1.5t40 1q24 0 24 -11q0 -7 -10 -12t-27 -8q-24 -4 -41.5 -12t-28.5 -22t-18 -38l-138 -452 q-7 -23 -3 -38t18 -23t36 -13q15 -3 20 -7t5 -11q0 -6 -9 -8.5t-21 -2.5q-25 0 -41 1.5t-30.5 2.5t-36.5 1q-34 0 -58 -2.5t-62 -2.5q-12 0 -18 2.5t-6 8.5zM294 703q0 7 5 15q18 30 37.5 60t39.5 59q9 13 27 13q7 0 21 -3t25.5 -8t11.5 -12t-13 -19q-29 -26 -65 -52.5 t-65 -49.5q-7 -5 -11.5 -7t-6.5 -2q-6 0 -6 6z" />
<glyph unicode="&#xce;" horiz-adv-x="362" d="M-20 6q0 12 36 18q37 7 61.5 23t34.5 51l138 452q11 35 1.5 50t-42.5 22q-15 3 -19.5 8t-4.5 12q0 6 9 8.5t21 2.5q25 0 41 -1t31 -1.5t36 -0.5q20 0 33.5 0.5t28.5 1.5t40 1q24 0 24 -11q0 -7 -10 -12t-27 -8q-24 -4 -41.5 -12t-28.5 -22t-18 -38l-138 -452 q-7 -23 -3 -38t18 -23t36 -13q15 -3 20 -7t5 -11q0 -6 -9 -8.5t-21 -2.5q-25 0 -41 1.5t-30.5 2.5t-36.5 1q-34 0 -58 -2.5t-62 -2.5q-12 0 -18 2.5t-6 8.5zM192 706q0 6 7 12l124 82q19 12 28.5 17t16.5 5q10 0 20 -7t17 -15l72 -82q3 -4 4.5 -6.5t1.5 -5.5q0 -11 -14 -11 q-6 0 -25.5 10t-40 23.5t-32.5 21.5q-12 9 -26 1q-9 -5 -29.5 -14t-44 -18.5t-41.5 -16t-23 -6.5q-15 0 -15 10z" />
<glyph unicode="&#xcf;" horiz-adv-x="362" d="M-20 6q0 12 36 18q37 7 61.5 23t34.5 51l138 452q11 35 1.5 50t-42.5 22q-15 3 -19.5 8t-4.5 12q0 6 9 8.5t21 2.5q25 0 41 -1t31 -1.5t36 -0.5q20 0 33.5 0.5t28.5 1.5t40 1q24 0 24 -11q0 -7 -10 -12t-27 -8q-24 -4 -41.5 -12t-28.5 -22t-18 -38l-138 -452 q-7 -23 -3 -38t18 -23t36 -13q15 -3 20 -7t5 -11q0 -6 -9 -8.5t-21 -2.5q-25 0 -41 1.5t-30.5 2.5t-36.5 1q-34 0 -58 -2.5t-62 -2.5q-12 0 -18 2.5t-6 8.5zM199 739q0 25 16.5 43t41.5 18q16 0 26 -13t10 -30q0 -22 -17 -39.5t-40 -17.5q-16 0 -26.5 12t-10.5 27zM400 739 q0 25 16.5 43t41.5 18q16 0 26 -13t10 -30q0 -15 -8 -28t-21 -21t-28 -8q-16 0 -26.5 12t-10.5 27z" />
<glyph unicode="&#xd0;" horiz-adv-x="752" d="M-4 6q0 16 36 18q32 1 48.5 9.5t25.5 25t17 40.5l150 461q8 24 -5.5 35.5t-36.5 17t-45 9.5q-15 3 -19.5 8t-4.5 12q0 6 9 8.5t21 2.5q40 0 73 -2t64 -2q20 0 34.5 1.5t30 3t38.5 1.5q94 0 164 -31.5t109.5 -93t39.5 -153.5q0 -76 -31 -145t-88 -123t-135.5 -85 t-173.5 -31q-9 0 -41.5 2t-73.5 3.5t-78 1.5q-18 0 -32.5 -1t-30.5 -2.5t-41 -1.5q-12 0 -18 2.5t-6 8.5zM95 335q2 7 11 12.5t17 5.5h336q5 0 8 -4.5t-1 -9.5q-7 -10 -15.5 -16t-19.5 -6h-328q-6 0 -7.5 7t-0.5 11zM207 71q10 -26 39.5 -37t75.5 -11q75 0 136.5 31 t106.5 84.5t69.5 120t24.5 136.5q0 77 -26 127t-74.5 75t-116.5 25q-42 0 -60 -5.5t-23.5 -17t-11.5 -28.5l-136 -430q-14 -44 -4 -70z" />
<glyph unicode="&#xd1;" horiz-adv-x="771" d="M-8 6q0 7 6 10.5t23 7.5q47 11 66 29t26 42l139 431q10 30 11 51t-13.5 33.5t-52.5 14.5q-17 2 -28 6.5t-11 12.5q0 10 10 12t15 2q27 0 50 -1t42.5 -2.5t36.5 -1.5q8 0 15 -4.5t11 -12.5l229 -482q2 -4 8.5 -11.5t11.5 -7.5t13 20q4 11 14 41t23 71.5t26.5 86.5 t25.5 85.5t20 68.5t10 36q8 35 -11 52t-67 24q-27 4 -27 19q0 6 10.5 9t22.5 3q27 0 52.5 -2t54.5 -2q20 0 35 1.5t33.5 3t46.5 1.5q23 0 23 -11q0 -7 -10 -12.5t-27 -7.5q-25 -2 -39.5 -7.5t-23.5 -19.5t-20 -40q-2 -6 -13 -37.5t-27 -77.5t-34 -98t-34 -100t-27.5 -83 t-14.5 -46q-4 -16 -2.5 -25.5t6.5 -21.5q6 -14 15.5 -20.5t17.5 -12.5t13.5 -11.5t5.5 -15.5q0 -4 -2.5 -5t-5.5 -1q-18 0 -32.5 -1t-25 -2.5t-19.5 -1.5q-16 0 -25 5t-17 21q-18 38 -36.5 79t-37 84t-37.5 86t-38.5 85.5t-38.5 83t-39 76.5q-6 11 -12.5 17.5t-11.5 6.5 t-12 -8.5t-12 -25.5q-10 -37 -24.5 -85t-30 -102.5t-31.5 -111t-29 -110.5q-7 -28 8.5 -46.5t53.5 -26.5q15 -3 22 -6.5t7 -10.5q0 -6 -9 -8.5t-21 -2.5q-25 0 -40.5 1.5t-28.5 2.5t-30 1q-20 0 -35 -1t-31 -2.5t-41 -1.5q-12 0 -18 2.5t-6 8.5zM404 708q0 4 9 17t22.5 28.5 t27.5 27t23 11.5q17 0 35.5 -0.5t32.5 -2.5q17 -1 34 -2.5t30 -1.5q11 0 21.5 6t17.5 13t12 13.5t8 6.5q8 0 13.5 -4.5t5.5 -12.5q0 -3 -4.5 -8t-9.5 -10q-12 -12 -24.5 -28t-22.5 -28q-6 -7 -16 -10.5t-13 -3.5q-6 0 -22.5 1t-37.5 3t-40 3t-31 1q-7 0 -17 -3.5t-16 -8.5 q-9 -7 -14.5 -15t-7.5 -8q-5 0 -10.5 5.5t-5.5 10.5z" />
<glyph unicode="&#xd2;" horiz-adv-x="694" d="M78 243q0 72 25.5 146t75.5 136.5t122.5 100.5t166.5 38q78 0 128 -35.5t73.5 -94t23.5 -127.5q0 -72 -25.5 -146t-75.5 -136.5t-122.5 -100.5t-166.5 -38q-78 0 -127.5 35.5t-73.5 94t-24 127.5zM163 205q0 -47 14.5 -90t46 -70.5t82.5 -27.5q54 0 100.5 25.5t84 69 t63.5 99t40 116t14 118.5q0 47 -14.5 91t-46 72t-82.5 28q-52 0 -98 -26t-83 -70t-64.5 -99.5t-42 -116.5t-14.5 -119zM363 827q0 7 11.5 12t25.5 8t21 3q18 0 27 -13q20 -29 39.5 -59t37.5 -60q5 -8 5 -15q0 -6 -6 -6q-2 0 -6.5 2t-11.5 7q-29 23 -65 49.5t-65 52.5 q-13 12 -13 19z" />
<glyph unicode="&#xd3;" horiz-adv-x="694" d="M78 243q0 72 25.5 146t75.5 136.5t122.5 100.5t166.5 38q78 0 128 -35.5t73.5 -94t23.5 -127.5q0 -72 -25.5 -146t-75.5 -136.5t-122.5 -100.5t-166.5 -38q-78 0 -127.5 35.5t-73.5 94t-24 127.5zM163 205q0 -47 14.5 -90t46 -70.5t82.5 -27.5q54 0 100.5 25.5t84 69 t63.5 99t40 116t14 118.5q0 47 -14.5 91t-46 72t-82.5 28q-52 0 -98 -26t-83 -70t-64.5 -99.5t-42 -116.5t-14.5 -119zM452 703q0 7 5 15q18 30 37.5 60t39.5 59q9 13 27 13q7 0 21 -3t25.5 -8t11.5 -12t-13 -19q-29 -26 -65 -52.5t-65 -49.5q-7 -5 -11.5 -7t-6.5 -2 q-6 0 -6 6z" />
<glyph unicode="&#xd4;" horiz-adv-x="694" d="M78 243q0 72 25.5 146t75.5 136.5t122.5 100.5t166.5 38q78 0 128 -35.5t73.5 -94t23.5 -127.5q0 -72 -25.5 -146t-75.5 -136.5t-122.5 -100.5t-166.5 -38q-78 0 -127.5 35.5t-73.5 94t-24 127.5zM163 205q0 -47 14.5 -90t46 -70.5t82.5 -27.5q54 0 100.5 25.5t84 69 t63.5 99t40 116t14 118.5q0 47 -14.5 91t-46 72t-82.5 28q-52 0 -98 -26t-83 -70t-64.5 -99.5t-42 -116.5t-14.5 -119zM350 706q0 6 7 12l124 82q19 12 28.5 17t16.5 5q10 0 20 -7t17 -15l72 -82q3 -4 4.5 -6.5t1.5 -5.5q0 -11 -14 -11q-6 0 -25.5 10t-40 23.5t-32.5 21.5 q-12 9 -26 1q-9 -5 -29.5 -14t-44 -18.5t-41.5 -16t-23 -6.5q-15 0 -15 10z" />
<glyph unicode="&#xd5;" horiz-adv-x="694" d="M78 243q0 72 25.5 146t75.5 136.5t122.5 100.5t166.5 38q78 0 128 -35.5t73.5 -94t23.5 -127.5q0 -72 -25.5 -146t-75.5 -136.5t-122.5 -100.5t-166.5 -38q-78 0 -127.5 35.5t-73.5 94t-24 127.5zM163 205q0 -47 14.5 -90t46 -70.5t82.5 -27.5q54 0 100.5 25.5t84 69 t63.5 99t40 116t14 118.5q0 47 -14.5 91t-46 72t-82.5 28q-52 0 -98 -26t-83 -70t-64.5 -99.5t-42 -116.5t-14.5 -119zM359 708q0 4 9 17t22.5 28.5t27.5 27t23 11.5q17 0 35.5 -0.5t32.5 -2.5q17 -1 34 -2.5t30 -1.5q11 0 21.5 6t17.5 13t12 13.5t8 6.5q8 0 13.5 -4.5 t5.5 -12.5q0 -3 -4.5 -8t-9.5 -10q-12 -12 -24.5 -28t-22.5 -28q-6 -7 -16 -10.5t-13 -3.5q-6 0 -22.5 1t-37.5 3t-40 3t-31 1q-7 0 -17 -3.5t-16 -8.5q-9 -7 -14.5 -15t-7.5 -8q-5 0 -10.5 5.5t-5.5 10.5z" />
<glyph unicode="&#xd6;" horiz-adv-x="694" d="M78 243q0 72 25.5 146t75.5 136.5t122.5 100.5t166.5 38q78 0 128 -35.5t73.5 -94t23.5 -127.5q0 -72 -25.5 -146t-75.5 -136.5t-122.5 -100.5t-166.5 -38q-78 0 -127.5 35.5t-73.5 94t-24 127.5zM163 205q0 -47 14.5 -90t46 -70.5t82.5 -27.5q54 0 100.5 25.5t84 69 t63.5 99t40 116t14 118.5q0 47 -14.5 91t-46 72t-82.5 28q-52 0 -98 -26t-83 -70t-64.5 -99.5t-42 -116.5t-14.5 -119zM357 739q0 25 16.5 43t41.5 18q16 0 26 -13t10 -30q0 -22 -17 -39.5t-40 -17.5q-16 0 -26.5 12t-10.5 27zM558 739q0 25 16.5 43t41.5 18q16 0 26 -13 t10 -30q0 -15 -8 -28t-21 -21t-28 -8q-16 0 -26.5 12t-10.5 27z" />
<glyph unicode="&#xd7;" horiz-adv-x="600" d="M113 102q0 7 5 12l134 134q3 3 2.5 5t-3.5 5l-121 121q-5 5 -5 14q0 12 7 25t9 16q4 4 9.5 4t9.5 -4l135 -135q4 -4 5 -3l2 2l144 143q5 5 10 5q6 0 9 -5q5 -10 11 -20.5t6 -19.5q0 -8 -7 -15l-131 -131q-2 -2 0 -5l143 -143q5 -5 5 -12q0 -13 -11 -27.5t-19 -14.5 q-6 0 -10 4l-149 150q-3 4 -7 0l-143 -143q-4 -4 -9.5 -4t-8.5 3q-4 4 -13 16t-9 23z" />
<glyph unicode="&#xd8;" horiz-adv-x="713" d="M78 243q0 72 25.5 146t75.5 136.5t122.5 100.5t166.5 38q78 0 128 -35.5t73.5 -94t23.5 -127.5q0 -72 -25.5 -146t-75.5 -136.5t-122.5 -100.5t-166.5 -38q-78 0 -127.5 35.5t-73.5 94t-24 127.5zM79 4q0 13 16 29l44 41l30 28l443 475l19 16l53 57q5 5 12 10.5t14 5.5 q8 0 14 -4.5t6 -12.5q0 -16 -19 -37l-51 -55l-26 -23l-438 -471l-29 -27l-34 -29q-6 -5 -14 -13t-13 -8q-7 0 -17 5.5t-10 12.5zM163 205q0 -47 14.5 -90t46 -70.5t82.5 -27.5q54 0 100.5 25.5t84 69t63.5 99t40 116t14 118.5q0 47 -14.5 91t-46 72t-82.5 28q-52 0 -98 -26 t-83 -70t-64.5 -99.5t-42 -116.5t-14.5 -119z" />
<glyph unicode="&#xd9;" horiz-adv-x="700" d="M108.5 131q-6.5 50 14.5 120l90 296q11 36 2.5 52.5t-22.5 20.5q-31 9 -31 22q0 6 13 8.5t25 2.5q21 0 42 -1.5t47 -1.5q22 0 41 1t34 1q24 0 23 -11q-1 -7 -10.5 -11t-26.5 -9q-16 -4 -35 -24.5t-31 -61.5l-88 -297q-22 -74 -7.5 -121t52.5 -69t87 -22q73 0 122.5 34.5 t81.5 90t50 118.5q11 38 23.5 77.5t23.5 73.5t17 54q20 60 21.5 89t-11 41t-36.5 18q-9 2 -17.5 6.5t-8.5 11.5q0 6 9.5 8.5t21.5 2.5h32.5t37.5 -0.5t32 -0.5q15 0 28.5 0.5t25.5 1.5t22 1q12 0 18.5 -2.5t5.5 -8.5q-1 -12 -38 -20q-16 -4 -28 -11.5t-25 -30.5t-32 -74 q-21 -55 -42.5 -119t-46.5 -133q-28 -77 -67 -138t-98 -95.5t-149 -34.5q-48 0 -89.5 15.5t-69 47.5t-34 82zM378 827q0 7 11.5 12t25.5 8t21 3q18 0 27 -13q20 -29 39.5 -59t37.5 -60q5 -8 5 -15q0 -6 -6 -6q-2 0 -6.5 2t-11.5 7q-29 23 -65 49.5t-65 52.5q-13 12 -13 19z " />
<glyph unicode="&#xda;" horiz-adv-x="700" d="M108.5 131q-6.5 50 14.5 120l90 296q11 36 2.5 52.5t-22.5 20.5q-31 9 -31 22q0 6 13 8.5t25 2.5q21 0 42 -1.5t47 -1.5q22 0 41 1t34 1q24 0 23 -11q-1 -7 -10.5 -11t-26.5 -9q-16 -4 -35 -24.5t-31 -61.5l-88 -297q-22 -74 -7.5 -121t52.5 -69t87 -22q73 0 122.5 34.5 t81.5 90t50 118.5q11 38 23.5 77.5t23.5 73.5t17 54q20 60 21.5 89t-11 41t-36.5 18q-9 2 -17.5 6.5t-8.5 11.5q0 6 9.5 8.5t21.5 2.5h32.5t37.5 -0.5t32 -0.5q15 0 28.5 0.5t25.5 1.5t22 1q12 0 18.5 -2.5t5.5 -8.5q-1 -12 -38 -20q-16 -4 -28 -11.5t-25 -30.5t-32 -74 q-21 -55 -42.5 -119t-46.5 -133q-28 -77 -67 -138t-98 -95.5t-149 -34.5q-48 0 -89.5 15.5t-69 47.5t-34 82zM467 703q0 7 5 15q18 30 37.5 60t39.5 59q9 13 27 13q7 0 21 -3t25.5 -8t11.5 -12t-13 -19q-29 -26 -65 -52.5t-65 -49.5q-7 -5 -11.5 -7t-6.5 -2q-6 0 -6 6z" />
<glyph unicode="&#xdb;" horiz-adv-x="700" d="M108.5 131q-6.5 50 14.5 120l90 296q11 36 2.5 52.5t-22.5 20.5q-31 9 -31 22q0 6 13 8.5t25 2.5q21 0 42 -1.5t47 -1.5q22 0 41 1t34 1q24 0 23 -11q-1 -7 -10.5 -11t-26.5 -9q-16 -4 -35 -24.5t-31 -61.5l-88 -297q-22 -74 -7.5 -121t52.5 -69t87 -22q73 0 122.5 34.5 t81.5 90t50 118.5q11 38 23.5 77.5t23.5 73.5t17 54q20 60 21.5 89t-11 41t-36.5 18q-9 2 -17.5 6.5t-8.5 11.5q0 6 9.5 8.5t21.5 2.5h32.5t37.5 -0.5t32 -0.5q15 0 28.5 0.5t25.5 1.5t22 1q12 0 18.5 -2.5t5.5 -8.5q-1 -12 -38 -20q-16 -4 -28 -11.5t-25 -30.5t-32 -74 q-21 -55 -42.5 -119t-46.5 -133q-28 -77 -67 -138t-98 -95.5t-149 -34.5q-48 0 -89.5 15.5t-69 47.5t-34 82zM365 706q0 6 7 12l124 82q19 12 28.5 17t16.5 5q10 0 20 -7t17 -15l72 -82q3 -4 4.5 -6.5t1.5 -5.5q0 -11 -14 -11q-6 0 -25.5 10t-40 23.5t-32.5 21.5 q-12 9 -26 1q-9 -5 -29.5 -14t-44 -18.5t-41.5 -16t-23 -6.5q-15 0 -15 10z" />
<glyph unicode="&#xdc;" horiz-adv-x="700" d="M108.5 131q-6.5 50 14.5 120l90 296q11 36 2.5 52.5t-22.5 20.5q-31 9 -31 22q0 6 13 8.5t25 2.5q21 0 42 -1.5t47 -1.5q22 0 41 1t34 1q24 0 23 -11q-1 -7 -10.5 -11t-26.5 -9q-16 -4 -35 -24.5t-31 -61.5l-88 -297q-22 -74 -7.5 -121t52.5 -69t87 -22q73 0 122.5 34.5 t81.5 90t50 118.5q11 38 23.5 77.5t23.5 73.5t17 54q20 60 21.5 89t-11 41t-36.5 18q-9 2 -17.5 6.5t-8.5 11.5q0 6 9.5 8.5t21.5 2.5h32.5t37.5 -0.5t32 -0.5q15 0 28.5 0.5t25.5 1.5t22 1q12 0 18.5 -2.5t5.5 -8.5q-1 -12 -38 -20q-16 -4 -28 -11.5t-25 -30.5t-32 -74 q-21 -55 -42.5 -119t-46.5 -133q-28 -77 -67 -138t-98 -95.5t-149 -34.5q-48 0 -89.5 15.5t-69 47.5t-34 82zM372 739q0 25 16.5 43t41.5 18q16 0 26 -13t10 -30q0 -22 -17 -39.5t-40 -17.5q-16 0 -26.5 12t-10.5 27zM573 739q0 25 16.5 43t41.5 18q16 0 26 -13t10 -30 q0 -15 -8 -28t-21 -21t-28 -8q-16 0 -26.5 12t-10.5 27z" />
<glyph unicode="&#xdd;" horiz-adv-x="575" d="M99 6q0 7 9.5 11t26.5 7q37 7 62.5 27.5t36.5 56.5l51 160q7 20 6 36.5t-7 37.5l-56 206q-9 34 -23.5 52t-37.5 20q-14 2 -21 8.5t-7 13.5q0 6 11.5 8.5t23.5 2.5q21 0 48 -1.5t60 -1.5q22 0 41 1t34 1q12 0 17.5 -2.5t5.5 -8.5q0 -7 -9.5 -12t-27.5 -8q-28 -4 -35 -15 t2 -46l42 -159q5 -19 9.5 -28.5t9.5 -9.5t14 9t22 23q33 37 57.5 68.5t58.5 73.5q33 41 31.5 58.5t-30.5 24.5q-10 2 -17 7.5t-7 12.5q0 6 9 8.5t21 2.5q21 0 38.5 -0.5t39.5 -0.5q29 0 55.5 1.5t42.5 1.5q12 0 18.5 -2.5t6.5 -8.5q0 -7 -10 -10.5t-24 -8.5 q-19 -6 -43.5 -21.5t-46.5 -33.5t-37 -34q-25 -26 -56.5 -61t-61 -68t-48.5 -53q-22 -24 -32 -45.5t-19 -50.5l-45 -148q-10 -34 2.5 -55.5t45.5 -28.5q15 -3 20 -7t5 -11q0 -6 -9 -8.5t-21 -2.5q-25 0 -41 1.5t-31 2.5t-36 1q-23 0 -41 -1t-36 -2.5t-43 -1.5q-12 0 -18 2.5 t-6 8.5zM400 703q0 7 5 15q18 30 37.5 60t39.5 59q9 13 27 13q7 0 21 -3t25.5 -8t11.5 -12t-13 -19q-29 -26 -65 -52.5t-65 -49.5q-7 -5 -11.5 -7t-6.5 -2q-6 0 -6 6z" />
<glyph unicode="&#xde;" horiz-adv-x="551" d="M-20 6q0 12 36 18q37 7 61.5 23t34.5 51l138 452q11 35 1.5 50t-42.5 22q-15 3 -19.5 8t-4.5 12q0 6 9 8.5t21 2.5q25 0 41 -1t31 -1.5t36 -0.5q20 0 33.5 0.5t28.5 1.5t40 1q24 0 24 -11q0 -7 -10 -12t-27 -8q-24 -4 -41 -12t-28 -22t-19 -38l-17 -52l-5 29 q7 1 22.5 1.5t27.5 0.5q63 0 110.5 -23t74.5 -65t27 -100q0 -49 -23 -89t-62 -68.5t-89.5 -44t-104.5 -15.5q-10 0 -26 2.5t-16 10.5q0 6 7 9t16 4q14 2 29 3.5t28 5.5q32 9 60 25.5t49.5 41t34 56t12.5 70.5q0 42 -18 75.5t-50 53t-73 19.5q-14 0 -21.5 -3.5t-11.5 -12.5 t-9 -24l-110 -362q-10 -35 4 -51t47 -23q15 -3 20 -7t5 -11q0 -6 -9 -8.5t-21 -2.5q-25 0 -41 1.5t-30.5 2.5t-36.5 1q-34 0 -58 -2.5t-62 -2.5q-12 0 -18 2.5t-6 8.5z" />
<glyph unicode="&#xdf;" horiz-adv-x="522" d="M-173 -238q0 18 12 31t27 13q8 0 15 -8t17 -17q9 -8 21.5 -15t30.5 -7q32 0 46.5 28t27.5 89q3 15 10 47t15 70.5t15.5 72.5t11.5 52q17 79 38 154t48 142q41 103 92 167t113.5 94.5t135.5 30.5q65 0 94 -24.5t29 -55.5q0 -24 -19 -50t-48.5 -51.5t-60.5 -49.5t-55 -44 q-17 -14 -33.5 -27.5t-27 -32t-10.5 -47.5q0 -8 6.5 -27t15 -39t13.5 -31q13 -26 21 -50t8 -47q0 -37 -19 -61.5t-36 -37.5q-22 -17 -52.5 -31t-68.5 -14q-28 0 -45 12.5t-17 31.5q0 20 8.5 33t19.5 13q6 0 14 -5.5t16 -13.5q10 -8 22.5 -15.5t34.5 -7.5q23 0 43.5 17.5 t20.5 46.5q0 18 -7.5 41.5t-20.5 48.5q-10 22 -23 52t-13 52q0 25 11 49t34 49t59 53q13 10 35.5 27.5t46 40t40 48t16.5 50.5q0 26 -21 46t-64 20t-82 -25.5t-71.5 -66.5t-57.5 -88t-40 -89q-20 -56 -40 -123.5t-37 -139.5t-30 -143q-8 -44 -23 -94t-38.5 -94t-56 -72 t-76.5 -28q-25 0 -45.5 4.5t-33 15.5t-12.5 30z" />
<glyph unicode="&#xe0;" horiz-adv-x="491" d="M-6 30q0 36 24 83.5t67 100t99 101.5q54 47 88 70.5t50 23.5t28 -14q14 -18 12.5 -16.5t-0.5 1.5q2 0 3.5 1.5t2.5 4.5q14 24 17 29t0 1q6 10 12 10q9 0 18 -3t14.5 -8t5.5 -10t-7 -25l-112 -297q-13 -34 13 -34q18 0 43.5 17.5t44.5 42.5q2 2 4.5 3.5t4.5 1.5 q4 0 5.5 -2.5t1.5 -8.5q0 -7 -14 -27.5t-29 -35.5q-28 -26 -56.5 -40t-52.5 -14q-10 0 -20 6t-16.5 15t-6.5 18q0 11 6 23q-4 -9 -0.5 0t12 28t18.5 40t17 37q5 11 4.5 16.5t-6.5 -1.5q-61 -68 -104.5 -108t-76.5 -57t-63 -17q-12 0 -24 6.5t-19.5 16.5t-7.5 21zM72 83 q0 -15 8 -24.5t21 -9.5q22 0 65.5 36.5t98.5 101.5q38 44 60 81t22 55q0 8 -13 19q-6 5 -13 8t-12 3q-18 0 -49.5 -18t-57.5 -43q-33 -32 -63 -72t-48.5 -77t-18.5 -60zM219 628q0 8 7.5 16t17 14t14.5 6q8 0 14 -7.5t11 -17.5l75 -144q4 -7 3 -13.5t-9 -6.5q-6 0 -12 4.5 t-11 10.5l-92 108q-9 11 -13.5 18.5t-4.5 11.5z" />
<glyph unicode="&#xe1;" horiz-adv-x="491" d="M-6 30q0 36 24 83.5t67 100t99 101.5q54 47 88 70.5t50 23.5t28 -14q14 -18 12.5 -16.5t-0.5 1.5q2 0 3.5 1.5t2.5 4.5q14 24 17 29t0 1q6 10 12 10q9 0 18 -3t14.5 -8t5.5 -10t-7 -25l-112 -297q-13 -34 13 -34q18 0 43.5 17.5t44.5 42.5q2 2 4.5 3.5t4.5 1.5 q4 0 5.5 -2.5t1.5 -8.5q0 -7 -14 -27.5t-29 -35.5q-28 -26 -56.5 -40t-52.5 -14q-10 0 -20 6t-16.5 15t-6.5 18q0 11 6 23q-4 -9 -0.5 0t12 28t18.5 40t17 37q5 11 4.5 16.5t-6.5 -1.5q-61 -68 -104.5 -108t-76.5 -57t-63 -17q-12 0 -24 6.5t-19.5 16.5t-7.5 21zM72 83 q0 -15 8 -24.5t21 -9.5q22 0 65.5 36.5t98.5 101.5q38 44 60 81t22 55q0 8 -13 19q-6 5 -13 8t-12 3q-18 0 -49.5 -18t-57.5 -43q-33 -32 -63 -72t-48.5 -77t-18.5 -60zM340 481.5q-1 6.5 3 13.5l75 144q5 10 11.5 17.5t13.5 7.5q5 0 14.5 -6t17 -14t7.5 -16 q0 -4 -4.5 -11.5t-13.5 -18.5l-92 -108q-4 -6 -10.5 -10.5t-12.5 -4.5q-8 0 -9 6.5z" />
<glyph unicode="&#xe2;" horiz-adv-x="491" d="M-6 30q0 36 24 83.5t67 100t99 101.5q54 47 88 70.5t50 23.5t28 -14q14 -18 12.5 -16.5t-0.5 1.5q2 0 3.5 1.5t2.5 4.5q14 24 17 29t0 1q6 10 12 10q9 0 18 -3t14.5 -8t5.5 -10t-7 -25l-112 -297q-13 -34 13 -34q18 0 43.5 17.5t44.5 42.5q2 2 4.5 3.5t4.5 1.5 q4 0 5.5 -2.5t1.5 -8.5q0 -7 -14 -27.5t-29 -35.5q-28 -26 -56.5 -40t-52.5 -14q-10 0 -20 6t-16.5 15t-6.5 18q0 11 6 23q-4 -9 -0.5 0t12 28t18.5 40t17 37q5 11 4.5 16.5t-6.5 -1.5q-61 -68 -104.5 -108t-76.5 -57t-63 -17q-12 0 -24 6.5t-19.5 16.5t-7.5 21zM72 83 q0 -15 8 -24.5t21 -9.5q22 0 65.5 36.5t98.5 101.5q38 44 60 81t22 55q0 8 -13 19q-6 5 -13 8t-12 3q-18 0 -49.5 -18t-57.5 -43q-33 -32 -63 -72t-48.5 -77t-18.5 -60zM256 455q0 5 2 9.5t5 8.5q8 12 26.5 36.5t38.5 50t32 39.5q14 16 28.5 29t21.5 13t10.5 -6.5t7.5 -23.5 q4 -15 8 -37.5t7.5 -45.5t5.5 -40t2 -21q0 -6 -2 -13.5t-6 -7.5q-9 0 -17 17q-6 15 -16.5 41.5t-19.5 49.5q-3 8 -9 0q-22 -23 -49 -49t-44 -43q-5 -5 -12 -10.5t-11 -5.5q-9 0 -9 9z" />
<glyph unicode="&#xe3;" horiz-adv-x="491" d="M-6 30q0 36 24 83.5t67 100t99 101.5q54 47 88 70.5t50 23.5t28 -14q14 -18 12.5 -16.5t-0.5 1.5q2 0 3.5 1.5t2.5 4.5q14 24 17 29t0 1q6 10 12 10q9 0 18 -3t14.5 -8t5.5 -10t-7 -25l-112 -297q-13 -34 13 -34q18 0 43.5 17.5t44.5 42.5q2 2 4.5 3.5t4.5 1.5 q4 0 5.5 -2.5t1.5 -8.5q0 -7 -14 -27.5t-29 -35.5q-28 -26 -56.5 -40t-52.5 -14q-10 0 -20 6t-16.5 15t-6.5 18q0 11 6 23q-4 -9 -0.5 0t12 28t18.5 40t17 37q5 11 4.5 16.5t-6.5 -1.5q-61 -68 -104.5 -108t-76.5 -57t-63 -17q-12 0 -24 6.5t-19.5 16.5t-7.5 21zM72 83 q0 -15 8 -24.5t21 -9.5q22 0 65.5 36.5t98.5 101.5q38 44 60 81t22 55q0 8 -13 19q-6 5 -13 8t-12 3q-18 0 -49.5 -18t-57.5 -43q-33 -32 -63 -72t-48.5 -77t-18.5 -60zM227 484q0 4 10 17t24.5 28.5t29 26.5t23.5 11q17 0 27 -1.5t24 -3.5q17 -1 30 -2.5t26 -1.5 q20 0 35 15q11 11 16 17.5t8 6.5q8 0 13.5 -4.5t5.5 -12.5q0 -3 -5.5 -9t-12.5 -13q-12 -12 -22.5 -26t-20.5 -26q-6 -7 -16 -10.5t-13 -3.5q-6 0 -18.5 1t-29 3t-35 3t-36.5 1q-12 0 -20 -7t-16 -15.5t-11 -8.5q-7 0 -11.5 4t-4.5 11z" />
<glyph unicode="&#xe4;" horiz-adv-x="491" d="M-6 30q0 36 24 83.5t67 100t99 101.5q54 47 88 70.5t50 23.5t28 -14q14 -18 12.5 -16.5t-0.5 1.5q2 0 3.5 1.5t2.5 4.5q14 24 17 29t0 1q6 10 12 10q9 0 18 -3t14.5 -8t5.5 -10t-7 -25l-112 -297q-13 -34 13 -34q18 0 43.5 17.5t44.5 42.5q2 2 4.5 3.5t4.5 1.5 q4 0 5.5 -2.5t1.5 -8.5q0 -7 -14 -27.5t-29 -35.5q-28 -26 -56.5 -40t-52.5 -14q-10 0 -20 6t-16.5 15t-6.5 18q0 11 6 23q-4 -9 -0.5 0t12 28t18.5 40t17 37q5 11 4.5 16.5t-6.5 -1.5q-61 -68 -104.5 -108t-76.5 -57t-63 -17q-12 0 -24 6.5t-19.5 16.5t-7.5 21zM72 83 q0 -15 8 -24.5t21 -9.5q22 0 65.5 36.5t98.5 101.5q38 44 60 81t22 55q0 8 -13 19q-6 5 -13 8t-12 3q-18 0 -49.5 -18t-57.5 -43q-33 -32 -63 -72t-48.5 -77t-18.5 -60zM244 552q0 16 7.5 30t20 22.5t28.5 8.5t25 -13.5t9 -29.5q0 -22 -16 -39.5t-39 -17.5q-15 0 -25 12 t-10 27zM415 552q0 16 7.5 30t20 22.5t28.5 8.5t25 -13.5t9 -29.5q0 -22 -16 -39.5t-39 -17.5q-15 0 -25 12t-10 27z" />
<glyph unicode="&#xe5;" horiz-adv-x="491" d="M-6 30q0 36 24 83.5t67 100t99 101.5q54 47 88 70.5t50 23.5t28 -14q14 -18 12.5 -16.5t-0.5 1.5q2 0 3.5 1.5t2.5 4.5q14 24 17 29t0 1q6 10 12 10q9 0 18 -3t14.5 -8t5.5 -10t-7 -25l-112 -297q-13 -34 13 -34q18 0 43.5 17.5t44.5 42.5q2 2 4.5 3.5t4.5 1.5 q4 0 5.5 -2.5t1.5 -8.5q0 -7 -14 -27.5t-29 -35.5q-28 -26 -56.5 -40t-52.5 -14q-10 0 -20 6t-16.5 15t-6.5 18q0 11 6 23q-4 -9 -0.5 0t12 28t18.5 40t17 37q5 11 4.5 16.5t-6.5 -1.5q-61 -68 -104.5 -108t-76.5 -57t-63 -17q-12 0 -24 6.5t-19.5 16.5t-7.5 21zM72 83 q0 -15 8 -24.5t21 -9.5q22 0 65.5 36.5t98.5 101.5q38 44 60 81t22 55q0 8 -13 19q-6 5 -13 8t-12 3q-18 0 -49.5 -18t-57.5 -43q-33 -32 -63 -72t-48.5 -77t-18.5 -60zM302 551q0 30 18 54.5t43.5 39.5t48.5 15q25 0 40.5 -15.5t15.5 -39.5q0 -35 -18.5 -60t-44.5 -38.5 t-49 -13.5q-25 0 -39.5 16.5t-14.5 41.5zM339 560q0 -16 8.5 -27.5t23.5 -11.5q14 0 27.5 10.5t23 26.5t9.5 34q0 17 -10 28.5t-26 11.5q-14 0 -27 -10t-21 -26.5t-8 -35.5z" />
<glyph unicode="&#xe6;" horiz-adv-x="521" d="M-7 30q0 31 25 81.5t69.5 105.5t104.5 101q54 42 96 62.5t74 27t56 6.5l-87 -54q-28 0 -59.5 -17.5t-63.5 -44.5q-38 -33 -68.5 -74.5t-47.5 -81.5t-17 -68q0 -13 7.5 -19t20.5 -6q16 0 50 27t82 107l38 -32q-56 -62 -97 -98t-72 -51.5t-60 -15.5q-11 0 -23 6t-20 16 t-8 22zM203 90q-3 50 14 106t48.5 105.5t74.5 81t94 31.5q35 0 55.5 -14t21.5 -41q2 -31 -20.5 -57t-57 -44.5t-70 -28.5t-60.5 -10q-10 0 -14 -10q-7 -24 -11 -44t-2 -52q2 -37 13 -56.5t36 -19.5q34 0 59.5 21.5t38.5 40.5q7 11 16 11q11 0 11 -12v-5.5t-2 -6.5 q-19 -31 -42 -53.5t-48.5 -34.5t-54.5 -12q-23 0 -46 17t-38 41t-16 46zM301 248q0 -6 7 -6q11 0 34.5 6.5t49 21t43 36t15.5 51.5q-1 13 -7.5 23.5t-21.5 10.5q-19 0 -40 -16t-39.5 -39.5t-29.5 -47.5t-11 -40z" />
<glyph unicode="&#xe7;" horiz-adv-x="313" d="M-49 -225q0 27 20 27q9 0 18 -5.5t16 -13.5q11 -9 22.5 -17.5t27.5 -8.5q11 0 18.5 8.5t7.5 19.5q0 17 -10 28.5t-21 23.5q-10 11 -19 24t-9 31q0 17 17 40t42.5 46t52.5 39h30q-46 -37 -61 -64t-15 -41q0 -10 9.5 -21.5t20.5 -22.5t20 -22.5t9 -25.5q0 -16 -14 -33.5 t-34 -33t-39.5 -25t-31.5 -9.5q-23 0 -40.5 7.5t-27 20t-9.5 28.5zM15 90q1 36 12 79.5t32 86.5t52.5 79t72.5 57.5t92 21.5q27 0 41 -9.5t14 -22.5q0 -16 -9.5 -32.5t-20.5 -16.5q-8 0 -13.5 7t-10.5 17q-6 11 -15 20.5t-26 9.5q-24 0 -50 -29t-48.5 -74t-36.5 -95t-14 -91 q0 -33 13 -45t35 -12q32 0 51 12.5t38 30.5q7 7 10.5 10t9.5 3q8 0 8 -13q0 -8 -12.5 -24t-34 -33.5t-49 -29.5t-57.5 -12q-18 0 -37.5 13.5t-33 37t-13.5 54.5z" />
<glyph unicode="&#xe8;" horiz-adv-x="341" d="M14 89q0 50 20.5 106.5t56.5 106t83.5 81t100.5 31.5q35 0 54.5 -14.5t19.5 -40.5q0 -31 -19.5 -54t-52.5 -39.5t-73.5 -27.5t-82.5 -19q-6 -1 -9.5 -2.5t-5.5 -7.5q-7 -22 -14 -48t-7 -49q0 -35 13.5 -54t39.5 -19q36 0 61 18t41 36q10 11 18 11q10 0 10 -10v-3.5 t-2 -4.5q-20 -33 -45 -55.5t-53.5 -34t-61.5 -11.5q-21 0 -42.5 16t-35.5 40.5t-14 47.5zM121 248q0 -6 7 -6q11 0 37.5 6.5t55.5 21t49.5 36t20.5 51.5q0 13 -7 22.5t-20 9.5q-21 0 -45.5 -17.5t-46.5 -42t-36.5 -47.5t-14.5 -34zM151 628q0 8 7.5 16t17 14t14.5 6 q8 0 14 -7.5t11 -17.5l75 -144q4 -7 3 -13.5t-9 -6.5q-6 0 -12 4.5t-11 10.5l-92 108q-9 11 -13.5 18.5t-4.5 11.5z" />
<glyph unicode="&#xe9;" horiz-adv-x="341" d="M14 89q0 50 20.5 106.5t56.5 106t83.5 81t100.5 31.5q35 0 54.5 -14.5t19.5 -40.5q0 -31 -19.5 -54t-52.5 -39.5t-73.5 -27.5t-82.5 -19q-6 -1 -9.5 -2.5t-5.5 -7.5q-7 -22 -14 -48t-7 -49q0 -35 13.5 -54t39.5 -19q36 0 61 18t41 36q10 11 18 11q10 0 10 -10v-3.5 t-2 -4.5q-20 -33 -45 -55.5t-53.5 -34t-61.5 -11.5q-21 0 -42.5 16t-35.5 40.5t-14 47.5zM121 248q0 -6 7 -6q11 0 37.5 6.5t55.5 21t49.5 36t20.5 51.5q0 13 -7 22.5t-20 9.5q-21 0 -45.5 -17.5t-46.5 -42t-36.5 -47.5t-14.5 -34zM272 481.5q-1 6.5 3 13.5l75 144 q5 10 11.5 17.5t13.5 7.5q5 0 14.5 -6t17 -14t7.5 -16q0 -4 -4.5 -11.5t-13.5 -18.5l-92 -108q-4 -6 -10.5 -10.5t-12.5 -4.5q-8 0 -9 6.5z" />
<glyph unicode="&#xea;" horiz-adv-x="341" d="M14 89q0 50 20.5 106.5t56.5 106t83.5 81t100.5 31.5q35 0 54.5 -14.5t19.5 -40.5q0 -31 -19.5 -54t-52.5 -39.5t-73.5 -27.5t-82.5 -19q-6 -1 -9.5 -2.5t-5.5 -7.5q-7 -22 -14 -48t-7 -49q0 -35 13.5 -54t39.5 -19q36 0 61 18t41 36q10 11 18 11q10 0 10 -10v-3.5 t-2 -4.5q-20 -33 -45 -55.5t-53.5 -34t-61.5 -11.5q-21 0 -42.5 16t-35.5 40.5t-14 47.5zM121 248q0 -6 7 -6q11 0 37.5 6.5t55.5 21t49.5 36t20.5 51.5q0 13 -7 22.5t-20 9.5q-21 0 -45.5 -17.5t-46.5 -42t-36.5 -47.5t-14.5 -34zM188 455q0 5 2 9.5t5 8.5q8 12 26.5 36.5 t38.5 50t32 39.5q14 16 28.5 29t21.5 13t10.5 -6.5t7.5 -23.5q4 -15 8 -37.5t7.5 -45.5t5.5 -40t2 -21q0 -6 -2 -13.5t-6 -7.5q-9 0 -17 17q-6 15 -16.5 41.5t-19.5 49.5q-3 8 -9 0q-22 -23 -49 -49t-44 -43q-5 -5 -12 -10.5t-11 -5.5q-9 0 -9 9z" />
<glyph unicode="&#xeb;" horiz-adv-x="341" d="M14 89q0 50 20.5 106.5t56.5 106t83.5 81t100.5 31.5q35 0 54.5 -14.5t19.5 -40.5q0 -31 -19.5 -54t-52.5 -39.5t-73.5 -27.5t-82.5 -19q-6 -1 -9.5 -2.5t-5.5 -7.5q-7 -22 -14 -48t-7 -49q0 -35 13.5 -54t39.5 -19q36 0 61 18t41 36q10 11 18 11q10 0 10 -10v-3.5 t-2 -4.5q-20 -33 -45 -55.5t-53.5 -34t-61.5 -11.5q-21 0 -42.5 16t-35.5 40.5t-14 47.5zM121 248q0 -6 7 -6q11 0 37.5 6.5t55.5 21t49.5 36t20.5 51.5q0 13 -7 22.5t-20 9.5q-21 0 -45.5 -17.5t-46.5 -42t-36.5 -47.5t-14.5 -34zM176 552q0 16 7.5 30t20 22.5t28.5 8.5 t25 -13.5t9 -29.5q0 -22 -16 -39.5t-39 -17.5q-15 0 -25 12t-10 27zM347 552q0 16 7.5 30t20 22.5t28.5 8.5t25 -13.5t9 -29.5q0 -22 -16 -39.5t-39 -17.5q-15 0 -25 12t-10 27z" />
<glyph unicode="&#xec;" horiz-adv-x="294" d="M27 20q0 4 0.5 8t2.5 8q41 83 69 156.5t50 128.5q4 12 -5 12q-5 0 -19.5 -5.5t-30.5 -14.5t-28 -18q-5 -4 -10 -2t-5 7t7.5 14.5t21 21.5t32.5 25.5t41.5 27t47.5 24.5q9 4 18 -2t14.5 -15t3.5 -14l-122 -289q-4 -8 -5.5 -15.5t-1.5 -13.5q0 -7 5.5 -9.5t10.5 -2.5 q14 0 32 13.5t38.5 33t39.5 38.5q2 2 4 2t4 -1.5t2 -3.5q0 -16 -19 -40.5t-47.5 -49t-58.5 -41.5t-53 -17q-17 0 -28 11t-11 23zM104 628q0 8 7.5 16t17 14t14.5 6q8 0 14 -7.5t11 -17.5l75 -144q4 -7 3 -13.5t-9 -6.5q-6 0 -12 4.5t-11 10.5l-92 108q-9 11 -13.5 18.5 t-4.5 11.5z" />
<glyph unicode="&#xed;" horiz-adv-x="294" d="M27 20q0 4 0.5 8t2.5 8q41 83 69 156.5t50 128.5q4 12 -5 12q-5 0 -19.5 -5.5t-30.5 -14.5t-28 -18q-5 -4 -10 -2t-5 7t7.5 14.5t21 21.5t32.5 25.5t41.5 27t47.5 24.5q9 4 18 -2t14.5 -15t3.5 -14l-122 -289q-4 -8 -5.5 -15.5t-1.5 -13.5q0 -7 5.5 -9.5t10.5 -2.5 q14 0 32 13.5t38.5 33t39.5 38.5q2 2 4 2t4 -1.5t2 -3.5q0 -16 -19 -40.5t-47.5 -49t-58.5 -41.5t-53 -17q-17 0 -28 11t-11 23zM225 481.5q-1 6.5 3 13.5l75 144q5 10 11.5 17.5t13.5 7.5q5 0 14.5 -6t17 -14t7.5 -16q0 -4 -4.5 -11.5t-13.5 -18.5l-92 -108 q-4 -6 -10.5 -10.5t-12.5 -4.5q-8 0 -9 6.5z" />
<glyph unicode="&#xee;" horiz-adv-x="294" d="M27 20q0 4 0.5 8t2.5 8q41 83 69 156.5t50 128.5q4 12 -5 12q-5 0 -19.5 -5.5t-30.5 -14.5t-28 -18q-5 -4 -10 -2t-5 7t7.5 14.5t21 21.5t32.5 25.5t41.5 27t47.5 24.5q9 4 18 -2t14.5 -15t3.5 -14l-122 -289q-4 -8 -5.5 -15.5t-1.5 -13.5q0 -7 5.5 -9.5t10.5 -2.5 q14 0 32 13.5t38.5 33t39.5 38.5q2 2 4 2t4 -1.5t2 -3.5q0 -16 -19 -40.5t-47.5 -49t-58.5 -41.5t-53 -17q-17 0 -28 11t-11 23zM141 455q0 5 2 9.5t5 8.5q8 12 26.5 36.5t38.5 50t32 39.5q14 16 28.5 29t21.5 13t10.5 -6.5t7.5 -23.5q4 -15 8 -37.5t7.5 -45.5t5.5 -40 t2 -21q0 -6 -2 -13.5t-6 -7.5q-9 0 -17 17q-6 15 -16.5 41.5t-19.5 49.5q-3 8 -9 0q-22 -23 -49 -49t-44 -43q-5 -5 -12 -10.5t-11 -5.5q-9 0 -9 9z" />
<glyph unicode="&#xef;" horiz-adv-x="294" d="M27 20q0 4 0.5 8t2.5 8q41 83 69 156.5t50 128.5q4 12 -5 12q-5 0 -19.5 -5.5t-30.5 -14.5t-28 -18q-5 -4 -10 -2t-5 7t7.5 14.5t21 21.5t32.5 25.5t41.5 27t47.5 24.5q9 4 18 -2t14.5 -15t3.5 -14l-122 -289q-4 -8 -5.5 -15.5t-1.5 -13.5q0 -7 5.5 -9.5t10.5 -2.5 q14 0 32 13.5t38.5 33t39.5 38.5q2 2 4 2t4 -1.5t2 -3.5q0 -16 -19 -40.5t-47.5 -49t-58.5 -41.5t-53 -17q-17 0 -28 11t-11 23zM129 552q0 16 7.5 30t20 22.5t28.5 8.5t25 -13.5t9 -29.5q0 -22 -16 -39.5t-39 -17.5q-15 0 -25 12t-10 27zM300 552q0 16 7.5 30t20 22.5 t28.5 8.5t25 -13.5t9 -29.5q0 -22 -16 -39.5t-39 -17.5q-15 0 -25 12t-10 27z" />
<glyph unicode="&#xf0;" horiz-adv-x="415" d="M57 104q0 45 17.5 98.5t50 101.5t78.5 79t102 31q11 0 21 -2.5t17 -7.5q3 -1 6.5 -3.5t5.5 -2.5q3 0 6 14.5t3 41.5q0 57 -18 103l-144 -70q-10 -4 -17 -4.5t-7 9.5q0 9 6 22.5t16 18.5l127 62q-20 32 -51 54t-75 29q-4 1 -8.5 4.5t-4.5 9.5q0 10 8 11.5t18 1.5 q53 0 94.5 -23t69.5 -63l89 44q11 5 19.5 3.5t8.5 -11.5q0 -13 -9.5 -24t-20.5 -16l-67 -32q29 -61 29 -141q0 -62 -12 -126.5t-34.5 -123.5t-56 -105.5t-76.5 -73.5t-96 -27q-20 0 -42 13.5t-37.5 40t-15.5 64.5zM121 96q0 -37 9 -58.5t34 -21.5q24 0 48.5 20.5t47 54 t40 72t28 76t10.5 65.5q0 38 -8.5 59t-34.5 21q-24 0 -48.5 -20.5t-47 -54t-40 -72t-28 -76t-10.5 -65.5z" />
<glyph unicode="&#xf1;" horiz-adv-x="527" d="M36.5 14q-1.5 8 1.5 14l116 284q18 44 2 44q-10 0 -21 -2.5t-24 -12.5t-29 -31q-4 -4 -8.5 -3.5t-6.5 7.5q0 6 3.5 15.5t8.5 19t9 15.5q15 23 40.5 36t59.5 14q11 0 20 -5.5t13.5 -15.5t-0.5 -22l-66 -170q-3 -7 1.5 -8t7.5 4q41 70 83.5 118.5t81.5 73.5t69 25 q21 0 36.5 -14.5t20 -39t-9.5 -56.5l-92 -218q-15 -36 5 -36q12 0 29.5 9t35.5 21.5t31.5 23t17.5 14.5q1 1 1.5 1h1.5q3 0 5.5 -2.5t2.5 -6.5q0 -8 -4 -14q-26 -31 -55.5 -56t-61 -39.5t-63.5 -14.5q-9 0 -18 6.5t-13.5 16.5t0.5 21q29 67 58.5 133.5t55.5 133.5 q16 41 11 57.5t-19 17.5q-11 1 -26 -7.5t-34 -26t-41 -44.5q-12 -14 -32 -43.5t-45 -68t-51.5 -82t-50.5 -85.5q-9 -16 -16 -23.5t-15 -7.5q-6 0 -11.5 4.5t-9.5 11t-5.5 14.5zM207 484q0 4 10 17t24.5 28.5t29 26.5t23.5 11q17 0 27 -1.5t24 -3.5q17 -1 30 -2.5t26 -1.5 q20 0 35 15q11 11 16 17.5t8 6.5q8 0 13.5 -4.5t5.5 -12.5q0 -3 -5.5 -9t-12.5 -13q-12 -12 -22.5 -26t-20.5 -26q-6 -7 -16 -10.5t-13 -3.5q-6 0 -18.5 1t-29 3t-35 3t-36.5 1q-12 0 -20 -7t-16 -15.5t-11 -8.5q-7 0 -11.5 4t-4.5 11z" />
<glyph unicode="&#xf2;" horiz-adv-x="380" d="M17 99q0 47 18.5 101.5t51.5 103t76.5 79.5t93.5 31t77.5 -34t27.5 -84q0 -45 -18 -98.5t-51.5 -101.5t-80 -79t-104.5 -31q-24 0 -45 16t-33.5 42t-12.5 55zM81 78q0 -33 11.5 -47.5t31.5 -14.5q24 0 48.5 21t47 55t40 75t28 82t10.5 75q0 26 -8.5 43t-34.5 17 q-23 0 -47.5 -19t-47 -51t-40.5 -71.5t-28.5 -82t-10.5 -82.5zM162 628q0 8 7.5 16t17 14t14.5 6q8 0 14 -7.5t11 -17.5l75 -144q4 -7 3 -13.5t-9 -6.5q-6 0 -12 4.5t-11 10.5l-92 108q-9 11 -13.5 18.5t-4.5 11.5z" />
<glyph unicode="&#xf3;" horiz-adv-x="380" d="M17 99q0 47 18.5 101.5t51.5 103t76.5 79.5t93.5 31t77.5 -34t27.5 -84q0 -45 -18 -98.5t-51.5 -101.5t-80 -79t-104.5 -31q-24 0 -45 16t-33.5 42t-12.5 55zM81 78q0 -33 11.5 -47.5t31.5 -14.5q24 0 48.5 21t47 55t40 75t28 82t10.5 75q0 26 -8.5 43t-34.5 17 q-23 0 -47.5 -19t-47 -51t-40.5 -71.5t-28.5 -82t-10.5 -82.5zM283 481.5q-1 6.5 3 13.5l75 144q5 10 11.5 17.5t13.5 7.5q5 0 14.5 -6t17 -14t7.5 -16q0 -4 -4.5 -11.5t-13.5 -18.5l-92 -108q-4 -6 -10.5 -10.5t-12.5 -4.5q-8 0 -9 6.5z" />
<glyph unicode="&#xf4;" horiz-adv-x="380" d="M17 99q0 47 18.5 101.5t51.5 103t76.5 79.5t93.5 31t77.5 -34t27.5 -84q0 -45 -18 -98.5t-51.5 -101.5t-80 -79t-104.5 -31q-24 0 -45 16t-33.5 42t-12.5 55zM81 78q0 -33 11.5 -47.5t31.5 -14.5q24 0 48.5 21t47 55t40 75t28 82t10.5 75q0 26 -8.5 43t-34.5 17 q-23 0 -47.5 -19t-47 -51t-40.5 -71.5t-28.5 -82t-10.5 -82.5zM199 455q0 5 2 9.5t5 8.5q8 12 26.5 36.5t38.5 50t32 39.5q14 16 28.5 29t21.5 13t10.5 -6.5t7.5 -23.5q4 -15 8 -37.5t7.5 -45.5t5.5 -40t2 -21q0 -6 -2 -13.5t-6 -7.5q-9 0 -17 17q-6 15 -16.5 41.5 t-19.5 49.5q-3 8 -9 0q-22 -23 -49 -49t-44 -43q-5 -5 -12 -10.5t-11 -5.5q-9 0 -9 9z" />
<glyph unicode="&#xf5;" horiz-adv-x="380" d="M17 99q0 47 18.5 101.5t51.5 103t76.5 79.5t93.5 31t77.5 -34t27.5 -84q0 -45 -18 -98.5t-51.5 -101.5t-80 -79t-104.5 -31q-24 0 -45 16t-33.5 42t-12.5 55zM81 78q0 -33 11.5 -47.5t31.5 -14.5q24 0 48.5 21t47 55t40 75t28 82t10.5 75q0 26 -8.5 43t-34.5 17 q-23 0 -47.5 -19t-47 -51t-40.5 -71.5t-28.5 -82t-10.5 -82.5zM179 484q0 4 10 17t24.5 28.5t29 26.5t23.5 11q17 0 27 -1.5t24 -3.5q17 -1 30 -2.5t26 -1.5q20 0 35 15q11 11 16 17.5t8 6.5q8 0 13.5 -4.5t5.5 -12.5q0 -3 -5.5 -9t-12.5 -13q-12 -12 -22.5 -26t-20.5 -26 q-6 -7 -16 -10.5t-13 -3.5q-6 0 -18.5 1t-29 3t-35 3t-36.5 1q-12 0 -20 -7t-16 -15.5t-11 -8.5q-7 0 -11.5 4t-4.5 11z" />
<glyph unicode="&#xf6;" horiz-adv-x="380" d="M17 99q0 47 18.5 101.5t51.5 103t76.5 79.5t93.5 31t77.5 -34t27.5 -84q0 -45 -18 -98.5t-51.5 -101.5t-80 -79t-104.5 -31q-24 0 -45 16t-33.5 42t-12.5 55zM81 78q0 -33 11.5 -47.5t31.5 -14.5q24 0 48.5 21t47 55t40 75t28 82t10.5 75q0 26 -8.5 43t-34.5 17 q-23 0 -47.5 -19t-47 -51t-40.5 -71.5t-28.5 -82t-10.5 -82.5zM187 552q0 16 7.5 30t20 22.5t28.5 8.5t25 -13.5t9 -29.5q0 -22 -16 -39.5t-39 -17.5q-15 0 -25 12t-10 27zM358 552q0 16 7.5 30t20 22.5t28.5 8.5t25 -13.5t9 -29.5q0 -22 -16 -39.5t-39 -17.5q-15 0 -25 12 t-10 27z" />
<glyph unicode="&#xf7;" horiz-adv-x="586" d="M66 241q0 4 1.5 14t6.5 18.5t15 8.5h453q4 0 8 -3t4 -7q0 -14 -8 -27.5t-22 -13.5h-444q-5 0 -9.5 3t-4.5 7zM262 399q0 20 14 33.5t33 13.5q20 0 33.5 -13.5t13.5 -33.5q0 -19 -13.5 -33t-33.5 -14q-19 0 -33 14t-14 33zM263 114q0 20 14 33.5t33 13.5q20 0 33.5 -13.5 t13.5 -33.5q0 -19 -13.5 -33t-33.5 -14q-19 0 -33 14t-14 33z" />
<glyph unicode="&#xf8;" horiz-adv-x="380" d="M-22 5q0 12 10 20l47 46l25 17l246 252l25 20l49 49q2 2 5 3.5t6 1.5q8 0 10.5 -4.5t3.5 -10.5q1 -7 -2.5 -14t-8.5 -12l-50 -51l-27 -23l-242 -252l-19 -11l-47 -47q-1 -1 -2.5 -2t-4.5 -1q-8 0 -16 6t-8 13zM17 99q0 47 18.5 101.5t51.5 103t76.5 79.5t93.5 31 t77.5 -34t27.5 -84q0 -45 -18 -98.5t-51.5 -101.5t-80 -79t-104.5 -31q-24 0 -45 16t-33.5 42t-12.5 55zM81 78q0 -33 11.5 -47.5t31.5 -14.5q24 0 48.5 21t47 55t40 75t28 82t10.5 75q0 26 -8.5 43t-34.5 17q-23 0 -47.5 -19t-47 -51t-40.5 -71.5t-28.5 -82t-10.5 -82.5z " />
<glyph unicode="&#xf9;" horiz-adv-x="509" d="M24 39l105 253q7 17 9 29t-6 12q-5 0 -16.5 -8t-26 -20t-29.5 -25q-2 -2 -7.5 -1t-5.5 4q0 4 2 11.5t10 18.5q25 34 55.5 57t58 35.5t41.5 12.5q5 0 11.5 -5.5t10.5 -13t0 -14.5q-33 -68 -63 -138t-60 -138q-9 -20 -11 -37t8 -17t30 17t45.5 44t53.5 58q38 43 73.5 89 t61.5 83t34 52q5 10 12 13t13 3t12 -6t9.5 -14t0.5 -14l-128 -294q-8 -19 -7 -29t10 -10q13 0 34 14t43 32.5t37 33.5q1 1 3 1q3 0 6 -2.5t3 -6.5q0 -2 -1 -4l-2.5 -5t-4 -7t-6 -8.5t-8.5 -10.5q-19 -24 -44 -46.5t-53.5 -37t-60.5 -14.5q-13 0 -23.5 17t-4.5 30 q14 30 30 64t28.5 63t17.5 43q5 12 -1 13t-11 -5q-52 -57 -92 -99.5t-69.5 -70t-50 -41.5t-33.5 -14q-11 0 -22.5 9.5t-17.5 22.5t-3 21zM213 628q0 8 7.5 16t17 14t14.5 6q8 0 14 -7.5t11 -17.5l75 -144q4 -7 3 -13.5t-9 -6.5q-6 0 -12 4.5t-11 10.5l-92 108 q-9 11 -13.5 18.5t-4.5 11.5z" />
<glyph unicode="&#xfa;" horiz-adv-x="509" d="M24 39l105 253q7 17 9 29t-6 12q-5 0 -16.5 -8t-26 -20t-29.5 -25q-2 -2 -7.5 -1t-5.5 4q0 4 2 11.5t10 18.5q25 34 55.5 57t58 35.5t41.5 12.5q5 0 11.5 -5.5t10.5 -13t0 -14.5q-33 -68 -63 -138t-60 -138q-9 -20 -11 -37t8 -17t30 17t45.5 44t53.5 58q38 43 73.5 89 t61.5 83t34 52q5 10 12 13t13 3t12 -6t9.5 -14t0.5 -14l-128 -294q-8 -19 -7 -29t10 -10q13 0 34 14t43 32.5t37 33.5q1 1 3 1q3 0 6 -2.5t3 -6.5q0 -2 -1 -4l-2.5 -5t-4 -7t-6 -8.5t-8.5 -10.5q-19 -24 -44 -46.5t-53.5 -37t-60.5 -14.5q-13 0 -23.5 17t-4.5 30 q14 30 30 64t28.5 63t17.5 43q5 12 -1 13t-11 -5q-52 -57 -92 -99.5t-69.5 -70t-50 -41.5t-33.5 -14q-11 0 -22.5 9.5t-17.5 22.5t-3 21zM334 481.5q-1 6.5 3 13.5l75 144q5 10 11.5 17.5t13.5 7.5q5 0 14.5 -6t17 -14t7.5 -16q0 -4 -4.5 -11.5t-13.5 -18.5l-92 -108 q-4 -6 -10.5 -10.5t-12.5 -4.5q-8 0 -9 6.5z" />
<glyph unicode="&#xfb;" horiz-adv-x="509" d="M24 39l105 253q7 17 9 29t-6 12q-5 0 -16.5 -8t-26 -20t-29.5 -25q-2 -2 -7.5 -1t-5.5 4q0 4 2 11.5t10 18.5q25 34 55.5 57t58 35.5t41.5 12.5q5 0 11.5 -5.5t10.5 -13t0 -14.5q-33 -68 -63 -138t-60 -138q-9 -20 -11 -37t8 -17t30 17t45.5 44t53.5 58q38 43 73.5 89 t61.5 83t34 52q5 10 12 13t13 3t12 -6t9.5 -14t0.5 -14l-128 -294q-8 -19 -7 -29t10 -10q13 0 34 14t43 32.5t37 33.5q1 1 3 1q3 0 6 -2.5t3 -6.5q0 -2 -1 -4l-2.5 -5t-4 -7t-6 -8.5t-8.5 -10.5q-19 -24 -44 -46.5t-53.5 -37t-60.5 -14.5q-13 0 -23.5 17t-4.5 30 q14 30 30 64t28.5 63t17.5 43q5 12 -1 13t-11 -5q-52 -57 -92 -99.5t-69.5 -70t-50 -41.5t-33.5 -14q-11 0 -22.5 9.5t-17.5 22.5t-3 21zM250 455q0 5 2 9.5t5 8.5q8 12 26.5 36.5t38.5 50t32 39.5q14 16 28.5 29t21.5 13t10.5 -6.5t7.5 -23.5q4 -15 8 -37.5t7.5 -45.5 t5.5 -40t2 -21q0 -6 -2 -13.5t-6 -7.5q-9 0 -17 17q-6 15 -16.5 41.5t-19.5 49.5q-3 8 -9 0q-22 -23 -49 -49t-44 -43q-5 -5 -12 -10.5t-11 -5.5q-9 0 -9 9z" />
<glyph unicode="&#xfc;" horiz-adv-x="509" d="M24 39l105 253q7 17 9 29t-6 12q-5 0 -16.5 -8t-26 -20t-29.5 -25q-2 -2 -7.5 -1t-5.5 4q0 4 2 11.5t10 18.5q25 34 55.5 57t58 35.5t41.5 12.5q5 0 11.5 -5.5t10.5 -13t0 -14.5q-33 -68 -63 -138t-60 -138q-9 -20 -11 -37t8 -17t30 17t45.5 44t53.5 58q38 43 73.5 89 t61.5 83t34 52q5 10 12 13t13 3t12 -6t9.5 -14t0.5 -14l-128 -294q-8 -19 -7 -29t10 -10q13 0 34 14t43 32.5t37 33.5q1 1 3 1q3 0 6 -2.5t3 -6.5q0 -2 -1 -4l-2.5 -5t-4 -7t-6 -8.5t-8.5 -10.5q-19 -24 -44 -46.5t-53.5 -37t-60.5 -14.5q-13 0 -23.5 17t-4.5 30 q14 30 30 64t28.5 63t17.5 43q5 12 -1 13t-11 -5q-52 -57 -92 -99.5t-69.5 -70t-50 -41.5t-33.5 -14q-11 0 -22.5 9.5t-17.5 22.5t-3 21zM238 552q0 16 7.5 30t20 22.5t28.5 8.5t25 -13.5t9 -29.5q0 -22 -16 -39.5t-39 -17.5q-15 0 -25 12t-10 27zM409 552q0 16 7.5 30 t20 22.5t28.5 8.5t25 -13.5t9 -29.5q0 -22 -16 -39.5t-39 -17.5q-15 0 -25 12t-10 27z" />
<glyph unicode="&#xfd;" horiz-adv-x="405" d="M-99 -248q0 14 6 25t15 18t18 7q10 0 17 -5.5t14 -11.5t14 -10.5t16 -4.5q35 0 73.5 44.5t71.5 111.5q23 47 30.5 103.5t7.5 124.5q0 74 -10.5 118t-24 63.5t-23.5 19.5t-21.5 -11.5t-21 -26.5t-13.5 -27q-1 -5 -7 -17t-12 -12q-4 0 -6.5 8.5t-2.5 19.5q0 23 9.5 45 t25 40t33.5 29t35 11q24 0 40.5 -17t26.5 -49q14 -43 25 -106.5t6 -163.5q-1 -18 3.5 -17t11.5 14q33 63 59.5 146t26.5 183q0 5 7.5 12t11.5 7t12 -5.5t14.5 -15.5t6.5 -22q0 -62 -31 -146t-87 -178t-130 -186q-35 -43 -71 -79.5t-69.5 -58.5t-61.5 -22q-15 0 -30 10.5 t-15 31.5zM244 481.5q-1 6.5 3 13.5l75 144q5 10 11.5 17.5t13.5 7.5q5 0 14.5 -6t17 -14t7.5 -16q0 -4 -4.5 -11.5t-13.5 -18.5l-92 -108q-4 -6 -10.5 -10.5t-12.5 -4.5q-8 0 -9 6.5z" />
<glyph unicode="&#xfe;" horiz-adv-x="451" d="M-130 -277q0 8 10.5 13.5t19.5 6.5q21 4 33.5 11t18.5 26l250 796q5 17 7.5 32t2.5 25q0 5 -8.5 8t-18.5 6q-11 4 -21 7.5t-10 7.5t1.5 6t4.5 3q11 6 30 12t39.5 11.5t36.5 9t22 3.5q5 0 10.5 -1t5.5 -9t-1 -15t-6 -18q-1 -4 -11.5 -32.5t-26 -73t-34 -97.5t-36.5 -108 t-33 -103q-4 -14 -1 -12.5t10 11.5q27 38 62 76t74 63.5t76 25.5q26 0 47 -19t21 -60q0 -37 -17 -82.5t-47 -91.5t-69 -84t-83.5 -61.5t-90.5 -23.5q-15 0 -28 3.5t-30 12.5l16 18l-71 -234q-7 -21 4 -30t35 -11q10 -1 20 -4t10 -11q0 -6 -9 -8.5t-20 -2.5q-15 0 -29 -0.5 t-26.5 -1.5t-24.5 -2q-25 -2 -48.5 -4.5t-50.5 -2.5q-5 0 -10.5 2t-5.5 7zM112 91q0 -31 17 -49t35 -18q15 0 36.5 15.5t45.5 40t45 52.5q27 36 48.5 78t32 80t6 62t-28.5 24q-18 0 -45.5 -18t-58.5 -50t-60 -74q-10 -15 -20.5 -31.5t-20 -32.5t-17 -30.5t-11.5 -27 t-4 -21.5z" />
<glyph unicode="&#xff;" horiz-adv-x="405" d="M-99 -248q0 14 6 25t15 18t18 7q10 0 17 -5.5t14 -11.5t14 -10.5t16 -4.5q35 0 73.5 44.5t71.5 111.5q23 47 30.5 103.5t7.5 124.5q0 74 -10.5 118t-24 63.5t-23.5 19.5t-21.5 -11.5t-21 -26.5t-13.5 -27q-1 -5 -7 -17t-12 -12q-4 0 -6.5 8.5t-2.5 19.5q0 23 9.5 45 t25 40t33.5 29t35 11q24 0 40.5 -17t26.5 -49q14 -43 25 -106.5t6 -163.5q-1 -18 3.5 -17t11.5 14q33 63 59.5 146t26.5 183q0 5 7.5 12t11.5 7t12 -5.5t14.5 -15.5t6.5 -22q0 -62 -31 -146t-87 -178t-130 -186q-35 -43 -71 -79.5t-69.5 -58.5t-61.5 -22q-15 0 -30 10.5 t-15 31.5zM148 552q0 16 7.5 30t20 22.5t28.5 8.5t25 -13.5t9 -29.5q0 -22 -16 -39.5t-39 -17.5q-15 0 -25 12t-10 27zM319 552q0 16 7.5 30t20 22.5t28.5 8.5t25 -13.5t9 -29.5q0 -22 -16 -39.5t-39 -17.5q-15 0 -25 12t-10 27z" />
<glyph unicode="&#x152;" horiz-adv-x="943" d="M78 243q0 72 26.5 146t78 136.5t125.5 100.5t170 38q40 0 73.5 -5t60.5 -17.5t46 -35.5l-22 -79q-14 50 -58.5 77.5t-104.5 27.5q-53 0 -100.5 -25.5t-85.5 -69t-66 -98.5t-43 -115.5t-15 -118.5q0 -47 16.5 -89.5t51 -69.5t87.5 -27q54 0 100.5 24t83.5 64l13 -69 q-41 -24 -93.5 -38t-108.5 -14q-81 0 -133 35.5t-77 94t-25 127.5zM335 6q0 12 36 18q50 8 71.5 24.5t31.5 50.5l137 450q14 43 1 56.5t-57 19.5q-15 2 -20.5 6t-5.5 11q0 6 9.5 8.5t21.5 2.5q8 0 28.5 -1t46 -1.5t46.5 -0.5h161q55 0 83.5 2.5t40 5t13.5 2.5q4 0 7.5 -4.5 t3.5 -8.5q0 -6 -6 -21.5t-13 -38.5t-11 -52q-1 -10 -6.5 -14.5t-10.5 -4.5t-8.5 7t-2.5 18q3 46 -8 63.5t-51 17.5h-122q-24 0 -34 -6.5t-15 -23.5l-67 -212q-6 -18 -3 -25t19 -6l124 3q26 1 41.5 11.5t27.5 25.5q7 8 15.5 19.5t17.5 11.5q8 0 8.5 -8.5t-4.5 -19.5 q-9 -17 -15.5 -32t-11.5 -29q-6 -16 -10.5 -33.5t-9.5 -39.5q-1 -7 -4.5 -14t-8.5 -7q-8 0 -10.5 11t-2.5 16q0 31 -10.5 43.5t-27.5 12.5l-115 2q-17 0 -29.5 -4.5t-18.5 -26.5l-51 -182q-14 -51 -5.5 -67t39.5 -16h155q25 0 44.5 8t35.5 19q15 11 28 26.5t26 36.5l8 12 t10 6q5 0 6 -7t1 -13q0 -9 -7 -28t-16 -38.5t-16 -31.5q-6 -10 -13.5 -15.5t-19.5 -5.5q-41 0 -80.5 0.5t-76.5 1.5t-71 2t-65.5 1.5t-59.5 0.5q-24 0 -42 -1.5t-35.5 -3t-42.5 -1.5q-12 0 -18 2.5t-6 8.5z" />
<glyph unicode="&#x153;" horiz-adv-x="584" d="M18 104q0 45 18 98.5t51 101.5t79 79t102 31q25 0 52.5 -20.5t37.5 -59.5q32 35 71 57.5t87 22.5q41 0 57.5 -16t16.5 -47q0 -30 -25.5 -54.5t-64 -42.5t-77.5 -27.5t-65 -9.5q-10 0 -15 -10q-10 -22 -13.5 -42.5t-3.5 -52.5q0 -37 14 -56.5t39 -19.5q36 0 64.5 22 t43.5 41q8 11 18 11t10 -10v-3.5t-2 -4.5q-20 -33 -45.5 -56.5t-56 -36.5t-65.5 -13q-24 0 -47.5 19.5t-34.5 56.5q-31 -33 -68.5 -54.5t-82.5 -21.5q-20 0 -42 13.5t-37.5 40t-15.5 64.5zM82 96q0 -43 8 -61.5t35 -18.5q24 0 48.5 20.5t47 54t40 72t28 76t10.5 65.5 q0 41 -8.5 60.5t-34.5 19.5q-24 0 -48.5 -20.5t-47 -54t-40 -72t-28 -76t-10.5 -65.5zM363 249q0 -6 7 -6q11 0 37 6t55 19t49.5 34t20.5 51q0 14 -7.5 25.5t-22.5 11.5q-21 0 -45 -17.5t-45.5 -42t-35 -47.5t-13.5 -34z" />
<glyph unicode="&#x178;" horiz-adv-x="575" d="M99 6q0 7 9.5 11t26.5 7q37 7 62.5 27.5t36.5 56.5l51 160q7 20 6 36.5t-7 37.5l-56 206q-9 34 -23.5 52t-37.5 20q-14 2 -21 8.5t-7 13.5q0 6 11.5 8.5t23.5 2.5q21 0 48 -1.5t60 -1.5q22 0 41 1t34 1q12 0 17.5 -2.5t5.5 -8.5q0 -7 -9.5 -12t-27.5 -8q-28 -4 -35 -15 t2 -46l42 -159q5 -19 9.5 -28.5t9.5 -9.5t14 9t22 23q33 37 57.5 68.5t58.5 73.5q33 41 31.5 58.5t-30.5 24.5q-10 2 -17 7.5t-7 12.5q0 6 9 8.5t21 2.5q21 0 38.5 -0.5t39.5 -0.5q29 0 55.5 1.5t42.5 1.5q12 0 18.5 -2.5t6.5 -8.5q0 -7 -10 -10.5t-24 -8.5 q-19 -6 -43.5 -21.5t-46.5 -33.5t-37 -34q-25 -26 -56.5 -61t-61 -68t-48.5 -53q-22 -24 -32 -45.5t-19 -50.5l-45 -148q-10 -34 2.5 -55.5t45.5 -28.5q15 -3 20 -7t5 -11q0 -6 -9 -8.5t-21 -2.5q-25 0 -41 1.5t-31 2.5t-36 1q-23 0 -41 -1t-36 -2.5t-43 -1.5q-12 0 -18 2.5 t-6 8.5zM305 739q0 25 16.5 43t41.5 18q16 0 26 -13t10 -30q0 -22 -17 -39.5t-40 -17.5q-16 0 -26.5 12t-10.5 27zM506 739q0 25 16.5 43t41.5 18q16 0 26 -13t10 -30q0 -15 -8 -28t-21 -21t-28 -8q-16 0 -26.5 12t-10.5 27z" />
<glyph unicode="&#x2c6;" horiz-adv-x="300" d="M133 455q0 5 2 9.5t5 8.5q8 12 26.5 36.5t38.5 50t32 39.5q14 16 28.5 29t21.5 13t10.5 -6.5t7.5 -23.5q4 -15 8 -37.5t7.5 -45.5t5.5 -40t2 -21q0 -6 -2 -13.5t-6 -7.5q-9 0 -17 17q-6 15 -16.5 41.5t-19.5 49.5q-3 8 -9 0q-22 -23 -49 -49t-44 -43q-5 -5 -12 -10.5 t-11 -5.5q-9 0 -9 9z" />
<glyph unicode="&#x2dc;" horiz-adv-x="300" d="M116 484q0 4 10 17t24.5 28.5t29 26.5t23.5 11q17 0 27 -1.5t24 -3.5q17 -1 30 -2.5t26 -1.5q20 0 35 15q11 11 16 17.5t8 6.5q8 0 13.5 -4.5t5.5 -12.5q0 -3 -5.5 -9t-12.5 -13q-12 -12 -22.5 -26t-20.5 -26q-6 -7 -16 -10.5t-13 -3.5q-6 0 -18.5 1t-29 3t-35 3t-36.5 1 q-12 0 -20 -7t-16 -15.5t-11 -8.5q-7 0 -11.5 4t-4.5 11z" />
<glyph unicode="&#x2000;" horiz-adv-x="425" />
<glyph unicode="&#x2001;" horiz-adv-x="850" />
<glyph unicode="&#x2002;" horiz-adv-x="425" />
<glyph unicode="&#x2003;" horiz-adv-x="850" />
<glyph unicode="&#x2004;" horiz-adv-x="283" />
<glyph unicode="&#x2005;" horiz-adv-x="212" />
<glyph unicode="&#x2006;" horiz-adv-x="141" />
<glyph unicode="&#x2007;" horiz-adv-x="141" />
<glyph unicode="&#x2008;" horiz-adv-x="106" />
<glyph unicode="&#x2009;" horiz-adv-x="170" />
<glyph unicode="&#x200a;" horiz-adv-x="47" />
<glyph unicode="&#x2010;" horiz-adv-x="268" d="M27 184q0 17 12 31t20 15q46 6 91.5 12.5t91.5 12.5q5 1 6.5 -1t1.5 -7q0 -11 -5 -22.5t-13 -19.5t-18 -10q-44 -6 -88 -12.5t-88 -12.5q-4 -1 -7.5 4t-3.5 10z" />
<glyph unicode="&#x2011;" horiz-adv-x="268" d="M27 184q0 17 12 31t20 15q46 6 91.5 12.5t91.5 12.5q5 1 6.5 -1t1.5 -7q0 -11 -5 -22.5t-13 -19.5t-18 -10q-44 -6 -88 -12.5t-88 -12.5q-4 -1 -7.5 4t-3.5 10z" />
<glyph unicode="&#x2012;" horiz-adv-x="268" d="M27 184q0 17 12 31t20 15q46 6 91.5 12.5t91.5 12.5q5 1 6.5 -1t1.5 -7q0 -11 -5 -22.5t-13 -19.5t-18 -10q-44 -6 -88 -12.5t-88 -12.5q-4 -1 -7.5 4t-3.5 10z" />
<glyph unicode="&#x2013;" horiz-adv-x="519" d="M49 197q2 5 6.5 15t12 18.5t16.5 8.5h384q5 0 8 -4.5t0 -9.5q-8 -14 -17.5 -27t-23.5 -13h-377q-5 0 -7.5 4t-1.5 8z" />
<glyph unicode="&#x2014;" horiz-adv-x="891" d="M49 197q2 5 6.5 15t12 18.5t16.5 8.5h756q5 0 8 -4.5t0 -9.5q-8 -14 -17.5 -27t-23.5 -13h-749q-5 0 -7.5 4t-1.5 8z" />
<glyph unicode="&#x2018;" horiz-adv-x="215" d="M140 513q0 38 15.5 70.5t40 56.5t51.5 38t50 14q8 0 13 -0.5t5 -5.5q0 -4 -7 -7.5t-18 -9.5q-29 -15 -49.5 -33.5t-31 -38t-10.5 -40.5q0 -16 10.5 -24.5t21.5 -13.5q11 -6 20.5 -13.5t9.5 -22.5q0 -17 -17.5 -28.5t-37.5 -11.5q-27 0 -46.5 17.5t-19.5 52.5z" />
<glyph unicode="&#x2019;" horiz-adv-x="215" d="M127 449q0 5 7 8t18 9q29 16 49.5 34t31 38t10.5 40q0 17 -10.5 25t-21.5 13q-11 6 -20.5 13.5t-9.5 22.5q0 17 17.5 28.5t37.5 11.5q27 0 46.5 -17.5t19.5 -52.5q0 -37 -15.5 -70t-40 -57t-51.5 -38t-50 -14q-7 0 -12.5 0.5t-5.5 5.5z" />
<glyph unicode="&#x201a;" horiz-adv-x="215" d="M-50 -123q0 5 7 8t18 9q29 16 49.5 34t31 38t10.5 40q0 17 -10.5 25t-21.5 13q-11 6 -20.5 13.5t-9.5 22.5q0 17 17.5 28.5t37.5 11.5q27 0 46.5 -17.5t19.5 -52.5q0 -37 -15.5 -70t-40 -57t-51.5 -38t-50 -14q-7 0 -12.5 0.5t-5.5 5.5z" />
<glyph unicode="&#x201c;" horiz-adv-x="389" d="M141 514q0 38 15.5 70.5t40 56.5t51.5 38t50 14q8 0 13 -0.5t5 -5.5q0 -4 -7 -7.5t-18 -9.5q-29 -15 -49.5 -33.5t-31 -38t-10.5 -40.5q0 -16 10.5 -24.5t21.5 -13.5q11 -6 20.5 -13.5t9.5 -22.5q0 -17 -17.5 -28.5t-37.5 -11.5q-27 0 -46.5 17.5t-19.5 52.5zM315 514 q0 38 15.5 70.5t40 56.5t51.5 38t50 14q8 0 13 -0.5t5 -5.5q0 -4 -7 -7.5t-18 -9.5q-29 -15 -49.5 -33.5t-31 -38t-10.5 -40.5q0 -16 10.5 -24.5t21.5 -13.5q11 -6 20.5 -13.5t9.5 -22.5q0 -17 -17.5 -28.5t-37.5 -11.5q-27 0 -46.5 17.5t-19.5 52.5z" />
<glyph unicode="&#x201d;" horiz-adv-x="390" d="M128 450q0 5 7 8t18 9q29 16 49.5 34t31 38t10.5 40q0 17 -10.5 25t-21.5 13q-11 6 -20.5 13.5t-9.5 22.5q0 17 17.5 28.5t37.5 11.5q27 0 46.5 -17.5t19.5 -52.5q0 -37 -15.5 -70t-40 -57t-51.5 -38t-50 -14q-7 0 -12.5 0.5t-5.5 5.5zM302 450q0 5 7 8t18 9 q29 16 49.5 34t31 38t10.5 40q0 17 -10.5 25t-21.5 13q-11 6 -20.5 13.5t-9.5 22.5q0 17 17.5 28.5t37.5 11.5q27 0 46.5 -17.5t19.5 -52.5q0 -37 -15.5 -70t-40 -57t-51.5 -38t-50 -14q-7 0 -12.5 0.5t-5.5 5.5z" />
<glyph unicode="&#x201e;" horiz-adv-x="389" d="M-50 -123q0 5 7 8t18 9q29 16 49.5 34t31 38t10.5 40q0 17 -10.5 25t-21.5 13q-11 6 -20.5 13.5t-9.5 22.5q0 17 17.5 28.5t37.5 11.5q27 0 46.5 -17.5t19.5 -52.5q0 -37 -15.5 -70t-40 -57t-51.5 -38t-50 -14q-7 0 -12.5 0.5t-5.5 5.5zM124 -123q0 5 7 8t18 9 q29 16 49.5 34t31 38t10.5 40q0 17 -10.5 25t-21.5 13q-11 6 -20.5 13.5t-9.5 22.5q0 17 17.5 28.5t37.5 11.5q27 0 46.5 -17.5t19.5 -52.5q0 -37 -15.5 -70t-40 -57t-51.5 -38t-50 -14q-7 0 -12.5 0.5t-5.5 5.5z" />
<glyph unicode="&#x2022;" horiz-adv-x="341" d="M96 343q0 40 20 73t53 52.5t73 19.5q29 0 52 -15.5t36.5 -41t13.5 -55.5q0 -40 -20 -73t-53 -52.5t-74 -19.5q-29 0 -52 15.5t-36 41.5t-13 55z" />
<glyph unicode="&#x2026;" horiz-adv-x="671" d="M4 36q0 18 9 33t23.5 23.5t32.5 8.5q20 0 32.5 -15t12.5 -35q0 -18 -8.5 -32.5t-23.5 -23.5t-33 -9q-19 0 -32 15.5t-13 34.5zM232 36q0 18 9 33t23.5 23.5t32.5 8.5q20 0 32.5 -15t12.5 -35q0 -18 -8.5 -32.5t-23.5 -23.5t-33 -9q-19 0 -32 15.5t-13 34.5zM460 36 q0 18 9 33t23.5 23.5t32.5 8.5q20 0 32.5 -15t12.5 -35q0 -18 -8.5 -32.5t-23.5 -23.5t-33 -9q-19 0 -32 15.5t-13 34.5z" />
<glyph unicode="&#x202f;" horiz-adv-x="170" />
<glyph unicode="&#x2039;" horiz-adv-x="409" d="M59 196q0 5 4 8.5t7 4.5q46 24 100.5 52.5t106 57.5t87.5 52q5 4 11.5 7t16.5 3q5 0 3 -8.5t-10 -15.5q-33 -29 -72.5 -59t-75.5 -56t-62 -42q-7 -4 -5.5 -7.5t5.5 -8.5q17 -18 39 -42t43.5 -50t34.5 -50q4 -7 3 -15t-6 -8q-8 0 -18 7.5t-13 10.5q-16 16 -41 36.5 t-52.5 41.5t-52.5 38.5t-42 27.5q-4 2 -7.5 5.5t-3.5 9.5z" />
<glyph unicode="&#x203a;" horiz-adv-x="409" d="M15 27.5q2 8.5 9 15.5q34 29 73 59t75.5 56t61.5 42q7 5 6 8.5t-6 7.5q-17 18 -39 42t-43 50.5t-35 49.5q-4 7 -3 15t6 8q8 0 18 -7.5t13 -10.5q17 -16 41.5 -36.5t52 -41.5t52.5 -38.5t42 -27.5q5 -2 8 -5.5t3 -9.5q0 -5 -4 -8t-7 -5q-46 -23 -100.5 -52t-106 -57.5 t-87.5 -52.5q-5 -4 -11.5 -7t-16.5 -3q-4 0 -2 8.5z" />
<glyph unicode="&#x205f;" horiz-adv-x="212" />
<glyph unicode="&#x20ac;" horiz-adv-x="627" d="M-7 261q0 7 7 16.5t17 9.5l475 13q5 0 10 -4.5t3 -9.5q-4 -12 -11 -21t-20 -9l-467 -7q-5 0 -9.5 4t-4.5 8zM46 366q0 7 7 16.5t17 9.5l475 13q5 0 10 -4.5t3 -9.5q-5 -12 -11.5 -21t-19.5 -9l-467 -7q-5 0 -9.5 4t-4.5 8zM74 240q0 90 32.5 167t89.5 135t130.5 90.5 t154.5 32.5q28 0 55.5 -4.5t55.5 -14.5q19 -6 33 -11t24 -5q5 0 10 2.5l11 5.5q6 2 12 4.5t11 2.5q9 0 9.5 -6t-2.5 -10q-11 -15 -25 -40t-25.5 -52t-16.5 -50q-1 -7 -7 -13.5t-11 -6.5q-9 0 -12.5 8.5t-2.5 17.5q5 23 3.5 46.5t-18.5 45.5t-44.5 35.5t-62.5 13.5 q-43 0 -88 -20t-85.5 -56.5t-73 -86.5t-51 -110.5t-18.5 -128.5q0 -61 17.5 -102t46 -66t62 -36t65.5 -11q51 0 83 16.5t54 44t42 61.5q5 8 10 13.5t13 5.5q5 0 6 -5t1 -15q0 -7 -9 -30.5t-22 -50.5t-24.5 -46.5t-16.5 -19.5q-4 0 -9 3.5t-10 7.5q-4 4 -9.5 6.5t-11.5 2.5 q-7 0 -17 -3t-24 -8q-15 -5 -36 -9.5t-47 -4.5q-41 0 -85 17.5t-82 51t-61.5 80.5t-23.5 105z" />
<glyph unicode="&#x2122;" horiz-adv-x="1077" d="M138 288q2 4 5.5 8t15.5 5q26 3 44.5 14.5t25.5 33.5l81 264q6 20 0 24t-27 4h-38q-16 0 -33.5 -10.5t-28.5 -21.5q-3 -3 -9.5 -8.5t-13.5 -10t-12 -4.5q-2 0 -2.5 2.5t0.5 5.5t3 6t5 6q16 16 25 34t17 37q5 10 9 11.5t6 1.5t7 -3.5t6 -8.5q2 -6 15 -10t26 -4h217 q14 0 30 4.5t22 10.5q8 8 12 7.5t8 -0.5q7 0 5 -10l-2 -6t-3 -7q-7 -18 -16.5 -33t-13.5 -29q-1 -5 -5.5 -10.5t-9.5 -4.5t-4.5 8t-1.5 11q-1 6 -1.5 14.5t-8 15t-28.5 6.5q-25 0 -48 -0.5t-32 -1.5q-7 -1 -12.5 -5.5t-7.5 -12.5l-83 -272q-7 -22 4 -33t33 -14 q11 -1 14.5 -5.5t2.5 -8.5q-2 -8 -21 -8q-14 0 -26.5 0.5t-25.5 0.5h-27h-25t-27 -0.5t-29 -0.5q-8 0 -13 2t-4 6zM499 279q0 5 5 8t15 4q16 3 28 10t23.5 22t24.5 41l114 234q8 15 7.5 26.5t-11 19.5t-33.5 10q-13 2 -18 4t-5 7t7 7t17 2t31 -1t43.5 -1.5t33.5 -0.5 q8 0 11.5 -4t5 -13t0.5 -24l5 -248q0 -13 5 -11t12 10q53 64 100.5 121.5t98.5 121.5q7 13 10 20.5t7 15.5q4 9 12 9h38q7 0 24.5 2.5t24.5 2.5q8 0 13.5 -2t5.5 -7t-4.5 -8t-18.5 -5q-26 -3 -35 -11.5t-18 -40.5q-16 -55 -27.5 -113.5t-22.5 -116.5q-7 -40 -1.5 -56.5 t24.5 -20.5q8 -1 11.5 -3.5t3.5 -6.5q0 -3 -5 -5.5t-12 -2.5q-22 0 -40.5 4t-38.5 4q-13 0 -21.5 -2l-17 -4t-23.5 -2q-13 0 -13 8q0 6 20 11q19 5 28.5 15.5t15.5 30.5q14 46 24 83.5t19.5 74t19.5 77.5q1 3 -1.5 4t-5.5 -3l-168 -201l-72 -91q-6 -8 -12.5 -11.5t-8.5 -3.5 q-5 0 -5 15q0 76 1.5 148.5t-3.5 147.5q-1 13 -5.5 12.5t-11.5 -14.5q-27 -54 -50.5 -105.5t-46.5 -107.5q-17 -42 -15.5 -56t14.5 -16q8 -1 12.5 -3.5t4.5 -6.5t-6 -6t-14 -2q-21 0 -34 1t-33 1q-10 0 -15.5 -1t-12.5 -2t-21 -1t-14 6z" />
</font>
</defs>
</svg>
